<?xml version="1.0" encoding="utf-8" standalone="no"?>
<!DOCTYPE svg PUBLIC "-//W3C//DTD SVG 1.1//EN"
  "http://www.w3.org/Graphics/SVG/1.1/DTD/svg11.dtd">
<!-- Created with matplotlib (https://matplotlib.org/) -->
<svg height="288pt" version="1.1" viewBox="0 0 864 288" width="864pt" xmlns="http://www.w3.org/2000/svg" xmlns:xlink="http://www.w3.org/1999/xlink">
 <defs>
  <style type="text/css">
*{stroke-linecap:butt;stroke-linejoin:round;}
  </style>
 </defs>
 <g id="figure_1">
  <g id="patch_1">
   <path d="M 0 288 
L 864 288 
L 864 0 
L 0 0 
z
" style="fill:#ffffff;"/>
  </g>
  <g id="axes_1">
   <g id="patch_2">
    <path d="M 47.675 245.29375 
L 288.655208 245.29375 
L 288.655208 51.84 
L 47.675 51.84 
z
" style="fill:#ffffff;"/>
   </g>
   <g id="PathCollection_1">
    <defs>
     <path d="M -0 4.242641 
L 2.545584 0 
L 0 -4.242641 
L -2.545584 -0 
z
" id="m0cd5d1d61c" style="stroke:#3274a1;"/>
    </defs>
    <g clip-path="url(#p27564bb333)">
     <use style="fill:#3274a1;stroke:#3274a1;" x="67.756684" xlink:href="#m0cd5d1d61c" y="179.353233"/>
    </g>
   </g>
   <g id="PatchCollection_1">
    <path clip-path="url(#p27564bb333)" d="M 67.693929 178.813309 
L 67.819439 178.813309 
L 67.819439 61.5079 
L 67.693929 61.5079 
z
" style="fill:#ffffff;"/>
    <path clip-path="url(#p27564bb333)" d="M 67.631174 178.273384 
L 67.882195 178.273384 
L 67.882195 61.5079 
L 67.631174 61.5079 
z
" style="fill:#e5eef3;"/>
    <path clip-path="url(#p27564bb333)" d="M 67.505663 177.193534 
L 68.007705 177.193534 
L 68.007705 61.5079 
L 67.505663 61.5079 
z
" style="fill:#ccdce7;"/>
    <path clip-path="url(#p27564bb333)" d="M 67.254642 175.033835 
L 68.258726 175.033835 
L 68.258726 61.5079 
L 67.254642 61.5079 
z
" style="fill:#b2cbdc;"/>
    <path clip-path="url(#p27564bb333)" d="M 66.7526 170.744448 
L 68.760768 170.744448 
L 68.760768 61.5079 
L 66.7526 61.5079 
z
" style="fill:#98b9d0;"/>
    <path clip-path="url(#p27564bb333)" d="M 65.748516 163.276051 
L 69.764852 163.276051 
L 69.764852 61.5079 
L 65.748516 61.5079 
z
" style="fill:#7ea8c4;"/>
    <path clip-path="url(#p27564bb333)" d="M 63.740347 155.348474 
L 71.773021 155.348474 
L 71.773021 61.5079 
L 63.740347 61.5079 
z
" style="fill:#6596b8;"/>
    <path clip-path="url(#p27564bb333)" d="M 59.72401 143.838239 
L 75.789358 143.838239 
L 75.789358 62.236525 
L 59.72401 62.236525 
z
" style="fill:#4b85ac;"/>
    <path clip-path="url(#p27564bb333)" d="M 51.691337 122.986041 
L 83.822031 122.986041 
L 83.822031 63.346438 
L 51.691337 63.346438 
z
" style="fill:#3274a1;"/>
   </g>
   <g id="PathCollection_2">
    <defs>
     <path d="M -0 4.242641 
L 2.545584 0 
L 0 -4.242641 
L -2.545584 -0 
z
" id="m1ea2b21c4c" style="stroke:#e1812c;"/>
    </defs>
    <g clip-path="url(#p27564bb333)">
     <use style="fill:#e1812c;stroke:#e1812c;" x="107.920052" xlink:href="#m1ea2b21c4c" y="232.919294"/>
    </g>
   </g>
   <g id="PatchCollection_2">
    <path clip-path="url(#p27564bb333)" d="M 107.857297 232.710051 
L 107.982807 232.710051 
L 107.982807 61.5079 
L 107.857297 61.5079 
z
" style="fill:#ffffff;"/>
    <path clip-path="url(#p27564bb333)" d="M 107.794542 232.500809 
L 108.045563 232.500809 
L 108.045563 61.5079 
L 107.794542 61.5079 
z
" style="fill:#fbefe5;"/>
    <path clip-path="url(#p27564bb333)" d="M 107.669031 232.082324 
L 108.171073 232.082324 
L 108.171073 61.5079 
L 107.669031 61.5079 
z
" style="fill:#f7dfca;"/>
    <path clip-path="url(#p27564bb333)" d="M 107.41801 231.245354 
L 108.422094 231.245354 
L 108.422094 61.5079 
L 107.41801 61.5079 
z
" style="fill:#f4d0b0;"/>
    <path clip-path="url(#p27564bb333)" d="M 106.915968 229.475761 
L 108.924136 229.475761 
L 108.924136 61.5079 
L 106.915968 61.5079 
z
" style="fill:#f0c095;"/>
    <path clip-path="url(#p27564bb333)" d="M 105.911884 223.098849 
L 109.92822 223.098849 
L 109.92822 62.101836 
L 105.911884 62.101836 
z
" style="fill:#ecb07b;"/>
    <path clip-path="url(#p27564bb333)" d="M 103.903715 210.175048 
L 111.936389 210.175048 
L 111.936389 66.148967 
L 103.903715 66.148967 
z
" style="fill:#e8a060;"/>
    <path clip-path="url(#p27564bb333)" d="M 99.887378 204.00332 
L 115.952726 204.00332 
L 115.952726 72.829173 
L 99.887378 72.829173 
z
" style="fill:#e59046;"/>
    <path clip-path="url(#p27564bb333)" d="M 91.854705 174.027822 
L 123.985399 174.027822 
L 123.985399 113.483634 
L 91.854705 113.483634 
z
" style="fill:#e1812c;"/>
   </g>
   <g id="PathCollection_3">
    <defs>
     <path d="M -0 4.242641 
L 2.545584 0 
L 0 -4.242641 
L -2.545584 -0 
z
" id="md9b22ed233" style="stroke:#3a923a;"/>
    </defs>
    <g clip-path="url(#p27564bb333)">
     <use style="fill:#3a923a;stroke:#3a923a;" x="148.08342" xlink:href="#md9b22ed233" y="232.919294"/>
    </g>
   </g>
   <g id="PatchCollection_3">
    <path clip-path="url(#p27564bb333)" d="M 148.020665 232.853532 
L 148.146175 232.853532 
L 148.146175 61.5079 
L 148.020665 61.5079 
z
" style="fill:#ffffff;"/>
    <path clip-path="url(#p27564bb333)" d="M 147.95791 232.78777 
L 148.208931 232.78777 
L 148.208931 61.5079 
L 147.95791 61.5079 
z
" style="fill:#e6f1e6;"/>
    <path clip-path="url(#p27564bb333)" d="M 147.832399 232.656246 
L 148.334441 232.656246 
L 148.334441 61.5079 
L 147.832399 61.5079 
z
" style="fill:#cee4ce;"/>
    <path clip-path="url(#p27564bb333)" d="M 147.581378 232.393199 
L 148.585462 232.393199 
L 148.585462 61.5079 
L 147.581378 61.5079 
z
" style="fill:#b5d6b5;"/>
    <path clip-path="url(#p27564bb333)" d="M 147.079336 231.886234 
L 149.087504 231.886234 
L 149.087504 61.529801 
L 147.079336 61.529801 
z
" style="fill:#9cc89c;"/>
    <path clip-path="url(#p27564bb333)" d="M 146.075252 231.431348 
L 150.091589 231.431348 
L 150.091589 62.318219 
L 146.075252 62.318219 
z
" style="fill:#83bb83;"/>
    <path clip-path="url(#p27564bb333)" d="M 144.067083 226.010167 
L 152.099757 226.010167 
L 152.099757 64.766659 
L 144.067083 64.766659 
z
" style="fill:#6bad6b;"/>
    <path clip-path="url(#p27564bb333)" d="M 140.050747 221.986488 
L 156.116094 221.986488 
L 156.116094 83.096186 
L 140.050747 83.096186 
z
" style="fill:#529f52;"/>
    <path clip-path="url(#p27564bb333)" d="M 132.018073 199.944371 
L 164.148767 199.944371 
L 164.148767 133.443884 
L 132.018073 133.443884 
z
" style="fill:#3a923a;"/>
   </g>
   <g id="PathCollection_4">
    <defs>
     <path d="M -0 4.242641 
L 2.545584 0 
L 0 -4.242641 
L -2.545584 -0 
z
" id="m060b68148b" style="stroke:#c03d3e;"/>
    </defs>
    <g clip-path="url(#p27564bb333)">
     <use style="fill:#c03d3e;stroke:#c03d3e;" x="188.246788" xlink:href="#m060b68148b" y="232.919294"/>
    </g>
   </g>
   <g id="PatchCollection_4">
    <path clip-path="url(#p27564bb333)" d="M 188.184033 232.186945 
L 188.309543 232.186945 
L 188.309543 61.5079 
L 188.184033 61.5079 
z
" style="fill:#ffffff;"/>
    <path clip-path="url(#p27564bb333)" d="M 188.121278 231.454597 
L 188.372299 231.454597 
L 188.372299 61.5079 
L 188.121278 61.5079 
z
" style="fill:#f7e7e7;"/>
    <path clip-path="url(#p27564bb333)" d="M 187.995767 229.9899 
L 188.497809 229.9899 
L 188.497809 61.5079 
L 187.995767 61.5079 
z
" style="fill:#efcecf;"/>
    <path clip-path="url(#p27564bb333)" d="M 187.744746 227.060506 
L 188.74883 227.060506 
L 188.74883 61.5079 
L 187.744746 61.5079 
z
" style="fill:#e7b6b6;"/>
    <path clip-path="url(#p27564bb333)" d="M 187.242704 222.023631 
L 189.250872 222.023631 
L 189.250872 61.5079 
L 187.242704 61.5079 
z
" style="fill:#df9e9e;"/>
    <path clip-path="url(#p27564bb333)" d="M 186.23862 218.807424 
L 190.254957 218.807424 
L 190.254957 61.909977 
L 186.23862 61.909977 
z
" style="fill:#d78586;"/>
    <path clip-path="url(#p27564bb333)" d="M 184.230451 207.798609 
L 192.263125 207.798609 
L 192.263125 65.41484 
L 184.230451 65.41484 
z
" style="fill:#d06d6e;"/>
    <path clip-path="url(#p27564bb333)" d="M 180.214115 192.988691 
L 196.279462 192.988691 
L 196.279462 71.073636 
L 180.214115 71.073636 
z
" style="fill:#c85555;"/>
    <path clip-path="url(#p27564bb333)" d="M 172.181441 161.039662 
L 204.312135 161.039662 
L 204.312135 103.793912 
L 172.181441 103.793912 
z
" style="fill:#c03d3e;"/>
   </g>
   <g id="PathCollection_5">
    <defs>
     <path d="M -0 4.242641 
L 2.545584 0 
L 0 -4.242641 
L -2.545584 -0 
z
" id="m3827beccf5" style="stroke:#9372b2;"/>
    </defs>
    <g clip-path="url(#p27564bb333)">
     <use style="fill:#9372b2;stroke:#9372b2;" x="228.410156" xlink:href="#m3827beccf5" y="215.266566"/>
    </g>
   </g>
   <g id="PatchCollection_5">
    <path clip-path="url(#p27564bb333)" d="M 228.284646 210.75365 
L 228.535667 210.75365 
L 228.535667 61.5079 
L 228.284646 61.5079 
z
" style="fill:#ffffff;"/>
    <path clip-path="url(#p27564bb333)" d="M 228.159135 206.240734 
L 228.661177 206.240734 
L 228.661177 61.5079 
L 228.159135 61.5079 
z
" style="fill:#f0ebf4;"/>
    <path clip-path="url(#p27564bb333)" d="M 227.908114 197.214903 
L 228.912198 197.214903 
L 228.912198 61.5079 
L 227.908114 61.5079 
z
" style="fill:#e0d7e9;"/>
    <path clip-path="url(#p27564bb333)" d="M 227.406072 175.994318 
L 229.41424 175.994318 
L 229.41424 61.5079 
L 227.406072 61.5079 
z
" style="fill:#d1c3de;"/>
    <path clip-path="url(#p27564bb333)" d="M 226.401988 129.282285 
L 230.418325 129.282285 
L 230.418325 61.5079 
L 226.401988 61.5079 
z
" style="fill:#c1aed3;"/>
    <path clip-path="url(#p27564bb333)" d="M 224.393819 104.39702 
L 232.426493 104.39702 
L 232.426493 61.5079 
L 224.393819 61.5079 
z
" style="fill:#b29ac8;"/>
    <path clip-path="url(#p27564bb333)" d="M 220.377483 76.651256 
L 236.44283 76.651256 
L 236.44283 61.559562 
L 220.377483 61.559562 
z
" style="fill:#a286bd;"/>
    <path clip-path="url(#p27564bb333)" d="M 212.344809 63.28497 
L 244.475503 63.28497 
L 244.475503 62.336071 
L 212.344809 62.336071 
z
" style="fill:#9372b2;"/>
   </g>
   <g id="PathCollection_6">
    <defs>
     <path d="M -0 4.242641 
L 2.545584 0 
L 0 -4.242641 
L -2.545584 -0 
z
" id="m8158dc7fa3" style="stroke:#845b53;"/>
    </defs>
    <g clip-path="url(#p27564bb333)">
     <use style="fill:#845b53;stroke:#845b53;" x="268.573524" xlink:href="#m8158dc7fa3" y="227.052535"/>
    </g>
   </g>
   <g id="PatchCollection_6">
    <path clip-path="url(#p27564bb333)" d="M 268.510769 222.319627 
L 268.63628 222.319627 
L 268.63628 61.5079 
L 268.510769 61.5079 
z
" style="fill:#ffffff;"/>
    <path clip-path="url(#p27564bb333)" d="M 268.448014 217.58672 
L 268.699035 217.58672 
L 268.699035 61.5079 
L 268.448014 61.5079 
z
" style="fill:#f0eae9;"/>
    <path clip-path="url(#p27564bb333)" d="M 268.322503 208.120905 
L 268.824545 208.120905 
L 268.824545 61.5079 
L 268.322503 61.5079 
z
" style="fill:#e0d6d4;"/>
    <path clip-path="url(#p27564bb333)" d="M 268.071482 189.189275 
L 269.075566 189.189275 
L 269.075566 61.5079 
L 268.071482 61.5079 
z
" style="fill:#d1c1be;"/>
    <path clip-path="url(#p27564bb333)" d="M 267.56944 153.480341 
L 269.577609 153.480341 
L 269.577609 61.5079 
L 267.56944 61.5079 
z
" style="fill:#c1ada9;"/>
    <path clip-path="url(#p27564bb333)" d="M 266.565356 148.955415 
L 270.581693 148.955415 
L 270.581693 61.5079 
L 266.565356 61.5079 
z
" style="fill:#b29893;"/>
    <path clip-path="url(#p27564bb333)" d="M 264.557187 136.795502 
L 272.589861 136.795502 
L 272.589861 61.5079 
L 264.557187 61.5079 
z
" style="fill:#a2847d;"/>
    <path clip-path="url(#p27564bb333)" d="M 260.540851 110.718908 
L 276.606198 110.718908 
L 276.606198 61.917845 
L 260.540851 61.917845 
z
" style="fill:#936f68;"/>
    <path clip-path="url(#p27564bb333)" d="M 252.508177 90.420157 
L 284.638872 90.420157 
L 284.638872 64.058665 
L 252.508177 64.058665 
z
" style="fill:#845b53;"/>
   </g>
   <g id="matplotlib.axis_1">
    <g id="xtick_1">
     <g id="line2d_1">
      <defs>
       <path d="M 0 0 
L 0 3.5 
" id="m14171396f7" style="stroke:#000000;stroke-width:0.8;"/>
      </defs>
      <g>
       <use style="stroke:#000000;stroke-width:0.8;" x="67.756684" xlink:href="#m14171396f7" y="245.29375"/>
      </g>
     </g>
     <g id="text_1">
      <!-- ExtraTrees -->
      <defs>
       <path d="M 9.8125 72.90625 
L 55.90625 72.90625 
L 55.90625 64.59375 
L 19.671875 64.59375 
L 19.671875 43.015625 
L 54.390625 43.015625 
L 54.390625 34.71875 
L 19.671875 34.71875 
L 19.671875 8.296875 
L 56.78125 8.296875 
L 56.78125 0 
L 9.8125 0 
z
" id="DejaVuSans-69"/>
       <path d="M 54.890625 54.6875 
L 35.109375 28.078125 
L 55.90625 0 
L 45.3125 0 
L 29.390625 21.484375 
L 13.484375 0 
L 2.875 0 
L 24.125 28.609375 
L 4.6875 54.6875 
L 15.28125 54.6875 
L 29.78125 35.203125 
L 44.28125 54.6875 
z
" id="DejaVuSans-120"/>
       <path d="M 18.3125 70.21875 
L 18.3125 54.6875 
L 36.8125 54.6875 
L 36.8125 47.703125 
L 18.3125 47.703125 
L 18.3125 18.015625 
Q 18.3125 11.328125 20.140625 9.421875 
Q 21.96875 7.515625 27.59375 7.515625 
L 36.8125 7.515625 
L 36.8125 0 
L 27.59375 0 
Q 17.1875 0 13.234375 3.875 
Q 9.28125 7.765625 9.28125 18.015625 
L 9.28125 47.703125 
L 2.6875 47.703125 
L 2.6875 54.6875 
L 9.28125 54.6875 
L 9.28125 70.21875 
z
" id="DejaVuSans-116"/>
       <path d="M 41.109375 46.296875 
Q 39.59375 47.171875 37.8125 47.578125 
Q 36.03125 48 33.890625 48 
Q 26.265625 48 22.1875 43.046875 
Q 18.109375 38.09375 18.109375 28.8125 
L 18.109375 0 
L 9.078125 0 
L 9.078125 54.6875 
L 18.109375 54.6875 
L 18.109375 46.1875 
Q 20.953125 51.171875 25.484375 53.578125 
Q 30.03125 56 36.53125 56 
Q 37.453125 56 38.578125 55.875 
Q 39.703125 55.765625 41.0625 55.515625 
z
" id="DejaVuSans-114"/>
       <path d="M 34.28125 27.484375 
Q 23.390625 27.484375 19.1875 25 
Q 14.984375 22.515625 14.984375 16.5 
Q 14.984375 11.71875 18.140625 8.90625 
Q 21.296875 6.109375 26.703125 6.109375 
Q 34.1875 6.109375 38.703125 11.40625 
Q 43.21875 16.703125 43.21875 25.484375 
L 43.21875 27.484375 
z
M 52.203125 31.203125 
L 52.203125 0 
L 43.21875 0 
L 43.21875 8.296875 
Q 40.140625 3.328125 35.546875 0.953125 
Q 30.953125 -1.421875 24.3125 -1.421875 
Q 15.921875 -1.421875 10.953125 3.296875 
Q 6 8.015625 6 15.921875 
Q 6 25.140625 12.171875 29.828125 
Q 18.359375 34.515625 30.609375 34.515625 
L 43.21875 34.515625 
L 43.21875 35.40625 
Q 43.21875 41.609375 39.140625 45 
Q 35.0625 48.390625 27.6875 48.390625 
Q 23 48.390625 18.546875 47.265625 
Q 14.109375 46.140625 10.015625 43.890625 
L 10.015625 52.203125 
Q 14.9375 54.109375 19.578125 55.046875 
Q 24.21875 56 28.609375 56 
Q 40.484375 56 46.34375 49.84375 
Q 52.203125 43.703125 52.203125 31.203125 
z
" id="DejaVuSans-97"/>
       <path d="M -0.296875 72.90625 
L 61.375 72.90625 
L 61.375 64.59375 
L 35.5 64.59375 
L 35.5 0 
L 25.59375 0 
L 25.59375 64.59375 
L -0.296875 64.59375 
z
" id="DejaVuSans-84"/>
       <path d="M 56.203125 29.59375 
L 56.203125 25.203125 
L 14.890625 25.203125 
Q 15.484375 15.921875 20.484375 11.0625 
Q 25.484375 6.203125 34.421875 6.203125 
Q 39.59375 6.203125 44.453125 7.46875 
Q 49.3125 8.734375 54.109375 11.28125 
L 54.109375 2.78125 
Q 49.265625 0.734375 44.1875 -0.34375 
Q 39.109375 -1.421875 33.890625 -1.421875 
Q 20.796875 -1.421875 13.15625 6.1875 
Q 5.515625 13.8125 5.515625 26.8125 
Q 5.515625 40.234375 12.765625 48.109375 
Q 20.015625 56 32.328125 56 
Q 43.359375 56 49.78125 48.890625 
Q 56.203125 41.796875 56.203125 29.59375 
z
M 47.21875 32.234375 
Q 47.125 39.59375 43.09375 43.984375 
Q 39.0625 48.390625 32.421875 48.390625 
Q 24.90625 48.390625 20.390625 44.140625 
Q 15.875 39.890625 15.1875 32.171875 
z
" id="DejaVuSans-101"/>
       <path d="M 44.28125 53.078125 
L 44.28125 44.578125 
Q 40.484375 46.53125 36.375 47.5 
Q 32.28125 48.484375 27.875 48.484375 
Q 21.1875 48.484375 17.84375 46.4375 
Q 14.5 44.390625 14.5 40.28125 
Q 14.5 37.15625 16.890625 35.375 
Q 19.28125 33.59375 26.515625 31.984375 
L 29.59375 31.296875 
Q 39.15625 29.25 43.1875 25.515625 
Q 47.21875 21.78125 47.21875 15.09375 
Q 47.21875 7.46875 41.1875 3.015625 
Q 35.15625 -1.421875 24.609375 -1.421875 
Q 20.21875 -1.421875 15.453125 -0.5625 
Q 10.6875 0.296875 5.421875 2 
L 5.421875 11.28125 
Q 10.40625 8.6875 15.234375 7.390625 
Q 20.0625 6.109375 24.8125 6.109375 
Q 31.15625 6.109375 34.5625 8.28125 
Q 37.984375 10.453125 37.984375 14.40625 
Q 37.984375 18.0625 35.515625 20.015625 
Q 33.0625 21.96875 24.703125 23.78125 
L 21.578125 24.515625 
Q 13.234375 26.265625 9.515625 29.90625 
Q 5.8125 33.546875 5.8125 39.890625 
Q 5.8125 47.609375 11.28125 51.796875 
Q 16.75 56 26.8125 56 
Q 31.78125 56 36.171875 55.265625 
Q 40.578125 54.546875 44.28125 53.078125 
z
" id="DejaVuSans-115"/>
      </defs>
      <g transform="translate(51.170611 294.741149)rotate(-45)scale(0.1 -0.1)">
       <use xlink:href="#DejaVuSans-69"/>
       <use x="63.183594" xlink:href="#DejaVuSans-120"/>
       <use x="122.363281" xlink:href="#DejaVuSans-116"/>
       <use x="161.572266" xlink:href="#DejaVuSans-114"/>
       <use x="202.685547" xlink:href="#DejaVuSans-97"/>
       <use x="263.964844" xlink:href="#DejaVuSans-84"/>
       <use x="310.298828" xlink:href="#DejaVuSans-114"/>
       <use x="349.162109" xlink:href="#DejaVuSans-101"/>
       <use x="410.685547" xlink:href="#DejaVuSans-101"/>
       <use x="472.208984" xlink:href="#DejaVuSans-115"/>
      </g>
     </g>
    </g>
    <g id="xtick_2">
     <g id="line2d_2">
      <g>
       <use style="stroke:#000000;stroke-width:0.8;" x="107.920052" xlink:href="#m14171396f7" y="245.29375"/>
      </g>
     </g>
     <g id="text_2">
      <!-- FeatBoost -->
      <defs>
       <path d="M 9.8125 72.90625 
L 51.703125 72.90625 
L 51.703125 64.59375 
L 19.671875 64.59375 
L 19.671875 43.109375 
L 48.578125 43.109375 
L 48.578125 34.8125 
L 19.671875 34.8125 
L 19.671875 0 
L 9.8125 0 
z
" id="DejaVuSans-70"/>
       <path d="M 19.671875 34.8125 
L 19.671875 8.109375 
L 35.5 8.109375 
Q 43.453125 8.109375 47.28125 11.40625 
Q 51.125 14.703125 51.125 21.484375 
Q 51.125 28.328125 47.28125 31.5625 
Q 43.453125 34.8125 35.5 34.8125 
z
M 19.671875 64.796875 
L 19.671875 42.828125 
L 34.28125 42.828125 
Q 41.5 42.828125 45.03125 45.53125 
Q 48.578125 48.25 48.578125 53.8125 
Q 48.578125 59.328125 45.03125 62.0625 
Q 41.5 64.796875 34.28125 64.796875 
z
M 9.8125 72.90625 
L 35.015625 72.90625 
Q 46.296875 72.90625 52.390625 68.21875 
Q 58.5 63.53125 58.5 54.890625 
Q 58.5 48.1875 55.375 44.234375 
Q 52.25 40.28125 46.1875 39.3125 
Q 53.46875 37.75 57.5 32.78125 
Q 61.53125 27.828125 61.53125 20.40625 
Q 61.53125 10.640625 54.890625 5.3125 
Q 48.25 0 35.984375 0 
L 9.8125 0 
z
" id="DejaVuSans-66"/>
       <path d="M 30.609375 48.390625 
Q 23.390625 48.390625 19.1875 42.75 
Q 14.984375 37.109375 14.984375 27.296875 
Q 14.984375 17.484375 19.15625 11.84375 
Q 23.34375 6.203125 30.609375 6.203125 
Q 37.796875 6.203125 41.984375 11.859375 
Q 46.1875 17.53125 46.1875 27.296875 
Q 46.1875 37.015625 41.984375 42.703125 
Q 37.796875 48.390625 30.609375 48.390625 
z
M 30.609375 56 
Q 42.328125 56 49.015625 48.375 
Q 55.71875 40.765625 55.71875 27.296875 
Q 55.71875 13.875 49.015625 6.21875 
Q 42.328125 -1.421875 30.609375 -1.421875 
Q 18.84375 -1.421875 12.171875 6.21875 
Q 5.515625 13.875 5.515625 27.296875 
Q 5.515625 40.765625 12.171875 48.375 
Q 18.84375 56 30.609375 56 
z
" id="DejaVuSans-111"/>
      </defs>
      <g transform="translate(92.323928 292.76125)rotate(-45)scale(0.1 -0.1)">
       <use xlink:href="#DejaVuSans-70"/>
       <use x="52.019531" xlink:href="#DejaVuSans-101"/>
       <use x="113.542969" xlink:href="#DejaVuSans-97"/>
       <use x="174.822266" xlink:href="#DejaVuSans-116"/>
       <use x="214.03125" xlink:href="#DejaVuSans-66"/>
       <use x="282.634766" xlink:href="#DejaVuSans-111"/>
       <use x="343.816406" xlink:href="#DejaVuSans-111"/>
       <use x="404.998047" xlink:href="#DejaVuSans-115"/>
       <use x="457.097656" xlink:href="#DejaVuSans-116"/>
      </g>
     </g>
    </g>
    <g id="xtick_3">
     <g id="line2d_3">
      <g>
       <use style="stroke:#000000;stroke-width:0.8;" x="148.08342" xlink:href="#m14171396f7" y="245.29375"/>
      </g>
     </g>
     <g id="text_3">
      <!-- FeatBoost w/1-NN -->
      <defs>
       <path id="DejaVuSans-32"/>
       <path d="M 4.203125 54.6875 
L 13.1875 54.6875 
L 24.421875 12.015625 
L 35.59375 54.6875 
L 46.1875 54.6875 
L 57.421875 12.015625 
L 68.609375 54.6875 
L 77.59375 54.6875 
L 63.28125 0 
L 52.6875 0 
L 40.921875 44.828125 
L 29.109375 0 
L 18.5 0 
z
" id="DejaVuSans-119"/>
       <path d="M 25.390625 72.90625 
L 33.6875 72.90625 
L 8.296875 -9.28125 
L 0 -9.28125 
z
" id="DejaVuSans-47"/>
       <path d="M 12.40625 8.296875 
L 28.515625 8.296875 
L 28.515625 63.921875 
L 10.984375 60.40625 
L 10.984375 69.390625 
L 28.421875 72.90625 
L 38.28125 72.90625 
L 38.28125 8.296875 
L 54.390625 8.296875 
L 54.390625 0 
L 12.40625 0 
z
" id="DejaVuSans-49"/>
       <path d="M 4.890625 31.390625 
L 31.203125 31.390625 
L 31.203125 23.390625 
L 4.890625 23.390625 
z
" id="DejaVuSans-45"/>
       <path d="M 9.8125 72.90625 
L 23.09375 72.90625 
L 55.421875 11.921875 
L 55.421875 72.90625 
L 64.984375 72.90625 
L 64.984375 0 
L 51.703125 0 
L 19.390625 60.984375 
L 19.390625 0 
L 9.8125 0 
z
" id="DejaVuSans-78"/>
      </defs>
      <g transform="translate(118.466142 320.803558)rotate(-45)scale(0.1 -0.1)">
       <use xlink:href="#DejaVuSans-70"/>
       <use x="52.019531" xlink:href="#DejaVuSans-101"/>
       <use x="113.542969" xlink:href="#DejaVuSans-97"/>
       <use x="174.822266" xlink:href="#DejaVuSans-116"/>
       <use x="214.03125" xlink:href="#DejaVuSans-66"/>
       <use x="282.634766" xlink:href="#DejaVuSans-111"/>
       <use x="343.816406" xlink:href="#DejaVuSans-111"/>
       <use x="404.998047" xlink:href="#DejaVuSans-115"/>
       <use x="457.097656" xlink:href="#DejaVuSans-116"/>
       <use x="496.306641" xlink:href="#DejaVuSans-32"/>
       <use x="528.09375" xlink:href="#DejaVuSans-119"/>
       <use x="609.880859" xlink:href="#DejaVuSans-47"/>
       <use x="643.572266" xlink:href="#DejaVuSans-49"/>
       <use x="707.195312" xlink:href="#DejaVuSans-45"/>
       <use x="743.279297" xlink:href="#DejaVuSans-78"/>
       <use x="818.083984" xlink:href="#DejaVuSans-78"/>
      </g>
     </g>
    </g>
    <g id="xtick_4">
     <g id="line2d_4">
      <g>
       <use style="stroke:#000000;stroke-width:0.8;" x="188.246788" xlink:href="#m14171396f7" y="245.29375"/>
      </g>
     </g>
     <g id="text_4">
      <!-- FeatBoost Deep -->
      <defs>
       <path d="M 19.671875 64.796875 
L 19.671875 8.109375 
L 31.59375 8.109375 
Q 46.6875 8.109375 53.6875 14.9375 
Q 60.6875 21.78125 60.6875 36.53125 
Q 60.6875 51.171875 53.6875 57.984375 
Q 46.6875 64.796875 31.59375 64.796875 
z
M 9.8125 72.90625 
L 30.078125 72.90625 
Q 51.265625 72.90625 61.171875 64.09375 
Q 71.09375 55.28125 71.09375 36.53125 
Q 71.09375 17.671875 61.125 8.828125 
Q 51.171875 0 30.078125 0 
L 9.8125 0 
z
" id="DejaVuSans-68"/>
       <path d="M 18.109375 8.203125 
L 18.109375 -20.796875 
L 9.078125 -20.796875 
L 9.078125 54.6875 
L 18.109375 54.6875 
L 18.109375 46.390625 
Q 20.953125 51.265625 25.265625 53.625 
Q 29.59375 56 35.59375 56 
Q 45.5625 56 51.78125 48.09375 
Q 58.015625 40.1875 58.015625 27.296875 
Q 58.015625 14.40625 51.78125 6.484375 
Q 45.5625 -1.421875 35.59375 -1.421875 
Q 29.59375 -1.421875 25.265625 0.953125 
Q 20.953125 3.328125 18.109375 8.203125 
z
M 48.6875 27.296875 
Q 48.6875 37.203125 44.609375 42.84375 
Q 40.53125 48.484375 33.40625 48.484375 
Q 26.265625 48.484375 22.1875 42.84375 
Q 18.109375 37.203125 18.109375 27.296875 
Q 18.109375 17.390625 22.1875 11.75 
Q 26.265625 6.109375 33.40625 6.109375 
Q 40.53125 6.109375 44.609375 11.75 
Q 48.6875 17.390625 48.6875 27.296875 
z
" id="DejaVuSans-112"/>
      </defs>
      <g transform="translate(162.209238 313.644102)rotate(-45)scale(0.1 -0.1)">
       <use xlink:href="#DejaVuSans-70"/>
       <use x="52.019531" xlink:href="#DejaVuSans-101"/>
       <use x="113.542969" xlink:href="#DejaVuSans-97"/>
       <use x="174.822266" xlink:href="#DejaVuSans-116"/>
       <use x="214.03125" xlink:href="#DejaVuSans-66"/>
       <use x="282.634766" xlink:href="#DejaVuSans-111"/>
       <use x="343.816406" xlink:href="#DejaVuSans-111"/>
       <use x="404.998047" xlink:href="#DejaVuSans-115"/>
       <use x="457.097656" xlink:href="#DejaVuSans-116"/>
       <use x="496.306641" xlink:href="#DejaVuSans-32"/>
       <use x="528.09375" xlink:href="#DejaVuSans-68"/>
       <use x="605.095703" xlink:href="#DejaVuSans-101"/>
       <use x="666.619141" xlink:href="#DejaVuSans-101"/>
       <use x="728.142578" xlink:href="#DejaVuSans-112"/>
      </g>
     </g>
    </g>
    <g id="xtick_5">
     <g id="line2d_5">
      <g>
       <use style="stroke:#000000;stroke-width:0.8;" x="228.410156" xlink:href="#m14171396f7" y="245.29375"/>
      </g>
     </g>
     <g id="text_5">
      <!-- MultiSURF -->
      <defs>
       <path d="M 9.8125 72.90625 
L 24.515625 72.90625 
L 43.109375 23.296875 
L 61.8125 72.90625 
L 76.515625 72.90625 
L 76.515625 0 
L 66.890625 0 
L 66.890625 64.015625 
L 48.09375 14.015625 
L 38.1875 14.015625 
L 19.390625 64.015625 
L 19.390625 0 
L 9.8125 0 
z
" id="DejaVuSans-77"/>
       <path d="M 8.5 21.578125 
L 8.5 54.6875 
L 17.484375 54.6875 
L 17.484375 21.921875 
Q 17.484375 14.15625 20.5 10.265625 
Q 23.53125 6.390625 29.59375 6.390625 
Q 36.859375 6.390625 41.078125 11.03125 
Q 45.3125 15.671875 45.3125 23.6875 
L 45.3125 54.6875 
L 54.296875 54.6875 
L 54.296875 0 
L 45.3125 0 
L 45.3125 8.40625 
Q 42.046875 3.421875 37.71875 1 
Q 33.40625 -1.421875 27.6875 -1.421875 
Q 18.265625 -1.421875 13.375 4.4375 
Q 8.5 10.296875 8.5 21.578125 
z
M 31.109375 56 
z
" id="DejaVuSans-117"/>
       <path d="M 9.421875 75.984375 
L 18.40625 75.984375 
L 18.40625 0 
L 9.421875 0 
z
" id="DejaVuSans-108"/>
       <path d="M 9.421875 54.6875 
L 18.40625 54.6875 
L 18.40625 0 
L 9.421875 0 
z
M 9.421875 75.984375 
L 18.40625 75.984375 
L 18.40625 64.59375 
L 9.421875 64.59375 
z
" id="DejaVuSans-105"/>
       <path d="M 53.515625 70.515625 
L 53.515625 60.890625 
Q 47.90625 63.578125 42.921875 64.890625 
Q 37.9375 66.21875 33.296875 66.21875 
Q 25.25 66.21875 20.875 63.09375 
Q 16.5 59.96875 16.5 54.203125 
Q 16.5 49.359375 19.40625 46.890625 
Q 22.3125 44.4375 30.421875 42.921875 
L 36.375 41.703125 
Q 47.40625 39.59375 52.65625 34.296875 
Q 57.90625 29 57.90625 20.125 
Q 57.90625 9.515625 50.796875 4.046875 
Q 43.703125 -1.421875 29.984375 -1.421875 
Q 24.8125 -1.421875 18.96875 -0.25 
Q 13.140625 0.921875 6.890625 3.21875 
L 6.890625 13.375 
Q 12.890625 10.015625 18.65625 8.296875 
Q 24.421875 6.59375 29.984375 6.59375 
Q 38.421875 6.59375 43.015625 9.90625 
Q 47.609375 13.234375 47.609375 19.390625 
Q 47.609375 24.75 44.3125 27.78125 
Q 41.015625 30.8125 33.5 32.328125 
L 27.484375 33.5 
Q 16.453125 35.6875 11.515625 40.375 
Q 6.59375 45.0625 6.59375 53.421875 
Q 6.59375 63.09375 13.40625 68.65625 
Q 20.21875 74.21875 32.171875 74.21875 
Q 37.3125 74.21875 42.625 73.28125 
Q 47.953125 72.359375 53.515625 70.515625 
z
" id="DejaVuSans-83"/>
       <path d="M 8.6875 72.90625 
L 18.609375 72.90625 
L 18.609375 28.609375 
Q 18.609375 16.890625 22.84375 11.734375 
Q 27.09375 6.59375 36.625 6.59375 
Q 46.09375 6.59375 50.34375 11.734375 
Q 54.59375 16.890625 54.59375 28.609375 
L 54.59375 72.90625 
L 64.5 72.90625 
L 64.5 27.390625 
Q 64.5 13.140625 57.4375 5.859375 
Q 50.390625 -1.421875 36.625 -1.421875 
Q 22.796875 -1.421875 15.734375 5.859375 
Q 8.6875 13.140625 8.6875 27.390625 
z
" id="DejaVuSans-85"/>
       <path d="M 44.390625 34.1875 
Q 47.5625 33.109375 50.5625 29.59375 
Q 53.5625 26.078125 56.59375 19.921875 
L 66.609375 0 
L 56 0 
L 46.6875 18.703125 
Q 43.0625 26.03125 39.671875 28.421875 
Q 36.28125 30.8125 30.421875 30.8125 
L 19.671875 30.8125 
L 19.671875 0 
L 9.8125 0 
L 9.8125 72.90625 
L 32.078125 72.90625 
Q 44.578125 72.90625 50.734375 67.671875 
Q 56.890625 62.453125 56.890625 51.90625 
Q 56.890625 45.015625 53.6875 40.46875 
Q 50.484375 35.9375 44.390625 34.1875 
z
M 19.671875 64.796875 
L 19.671875 38.921875 
L 32.078125 38.921875 
Q 39.203125 38.921875 42.84375 42.21875 
Q 46.484375 45.515625 46.484375 51.90625 
Q 46.484375 58.296875 42.84375 61.546875 
Q 39.203125 64.796875 32.078125 64.796875 
z
" id="DejaVuSans-82"/>
      </defs>
      <g transform="translate(212.397502 293.59431)rotate(-45)scale(0.1 -0.1)">
       <use xlink:href="#DejaVuSans-77"/>
       <use x="86.279297" xlink:href="#DejaVuSans-117"/>
       <use x="149.658203" xlink:href="#DejaVuSans-108"/>
       <use x="177.441406" xlink:href="#DejaVuSans-116"/>
       <use x="216.650391" xlink:href="#DejaVuSans-105"/>
       <use x="244.433594" xlink:href="#DejaVuSans-83"/>
       <use x="307.910156" xlink:href="#DejaVuSans-85"/>
       <use x="381.103516" xlink:href="#DejaVuSans-82"/>
       <use x="450.585938" xlink:href="#DejaVuSans-70"/>
      </g>
     </g>
    </g>
    <g id="xtick_6">
     <g id="line2d_6">
      <g>
       <use style="stroke:#000000;stroke-width:0.8;" x="268.573524" xlink:href="#m14171396f7" y="245.29375"/>
      </g>
     </g>
     <g id="text_6">
      <!-- RFE w/XGBoost -->
      <defs>
       <path d="M 6.296875 72.90625 
L 16.890625 72.90625 
L 35.015625 45.796875 
L 53.21875 72.90625 
L 63.8125 72.90625 
L 40.375 37.890625 
L 65.375 0 
L 54.78125 0 
L 34.28125 31 
L 13.625 0 
L 2.984375 0 
L 29 38.921875 
z
" id="DejaVuSans-88"/>
       <path d="M 59.515625 10.40625 
L 59.515625 29.984375 
L 43.40625 29.984375 
L 43.40625 38.09375 
L 69.28125 38.09375 
L 69.28125 6.78125 
Q 63.578125 2.734375 56.6875 0.65625 
Q 49.8125 -1.421875 42 -1.421875 
Q 24.90625 -1.421875 15.25 8.5625 
Q 5.609375 18.5625 5.609375 36.375 
Q 5.609375 54.25 15.25 64.234375 
Q 24.90625 74.21875 42 74.21875 
Q 49.125 74.21875 55.546875 72.453125 
Q 61.96875 70.703125 67.390625 67.28125 
L 67.390625 56.78125 
Q 61.921875 61.421875 55.765625 63.765625 
Q 49.609375 66.109375 42.828125 66.109375 
Q 29.4375 66.109375 22.71875 58.640625 
Q 16.015625 51.171875 16.015625 36.375 
Q 16.015625 21.625 22.71875 14.15625 
Q 29.4375 6.6875 42.828125 6.6875 
Q 48.046875 6.6875 52.140625 7.59375 
Q 56.25 8.5 59.515625 10.40625 
z
" id="DejaVuSans-71"/>
      </defs>
      <g transform="translate(243.453003 311.810044)rotate(-45)scale(0.1 -0.1)">
       <use xlink:href="#DejaVuSans-82"/>
       <use x="69.482422" xlink:href="#DejaVuSans-70"/>
       <use x="127.001953" xlink:href="#DejaVuSans-69"/>
       <use x="190.185547" xlink:href="#DejaVuSans-32"/>
       <use x="221.972656" xlink:href="#DejaVuSans-119"/>
       <use x="303.759766" xlink:href="#DejaVuSans-47"/>
       <use x="337.451172" xlink:href="#DejaVuSans-88"/>
       <use x="405.957031" xlink:href="#DejaVuSans-71"/>
       <use x="483.447266" xlink:href="#DejaVuSans-66"/>
       <use x="552.050781" xlink:href="#DejaVuSans-111"/>
       <use x="613.232422" xlink:href="#DejaVuSans-111"/>
       <use x="674.414062" xlink:href="#DejaVuSans-115"/>
       <use x="726.513672" xlink:href="#DejaVuSans-116"/>
      </g>
     </g>
    </g>
    <g id="text_7">
     <!-- ranking_method -->
     <defs>
      <path d="M 54.890625 33.015625 
L 54.890625 0 
L 45.90625 0 
L 45.90625 32.71875 
Q 45.90625 40.484375 42.875 44.328125 
Q 39.84375 48.1875 33.796875 48.1875 
Q 26.515625 48.1875 22.3125 43.546875 
Q 18.109375 38.921875 18.109375 30.90625 
L 18.109375 0 
L 9.078125 0 
L 9.078125 54.6875 
L 18.109375 54.6875 
L 18.109375 46.1875 
Q 21.34375 51.125 25.703125 53.5625 
Q 30.078125 56 35.796875 56 
Q 45.21875 56 50.046875 50.171875 
Q 54.890625 44.34375 54.890625 33.015625 
z
" id="DejaVuSans-110"/>
      <path d="M 9.078125 75.984375 
L 18.109375 75.984375 
L 18.109375 31.109375 
L 44.921875 54.6875 
L 56.390625 54.6875 
L 27.390625 29.109375 
L 57.625 0 
L 45.90625 0 
L 18.109375 26.703125 
L 18.109375 0 
L 9.078125 0 
z
" id="DejaVuSans-107"/>
      <path d="M 45.40625 27.984375 
Q 45.40625 37.75 41.375 43.109375 
Q 37.359375 48.484375 30.078125 48.484375 
Q 22.859375 48.484375 18.828125 43.109375 
Q 14.796875 37.75 14.796875 27.984375 
Q 14.796875 18.265625 18.828125 12.890625 
Q 22.859375 7.515625 30.078125 7.515625 
Q 37.359375 7.515625 41.375 12.890625 
Q 45.40625 18.265625 45.40625 27.984375 
z
M 54.390625 6.78125 
Q 54.390625 -7.171875 48.1875 -13.984375 
Q 42 -20.796875 29.203125 -20.796875 
Q 24.46875 -20.796875 20.265625 -20.09375 
Q 16.0625 -19.390625 12.109375 -17.921875 
L 12.109375 -9.1875 
Q 16.0625 -11.328125 19.921875 -12.34375 
Q 23.78125 -13.375 27.78125 -13.375 
Q 36.625 -13.375 41.015625 -8.765625 
Q 45.40625 -4.15625 45.40625 5.171875 
L 45.40625 9.625 
Q 42.625 4.78125 38.28125 2.390625 
Q 33.9375 0 27.875 0 
Q 17.828125 0 11.671875 7.65625 
Q 5.515625 15.328125 5.515625 27.984375 
Q 5.515625 40.671875 11.671875 48.328125 
Q 17.828125 56 27.875 56 
Q 33.9375 56 38.28125 53.609375 
Q 42.625 51.21875 45.40625 46.390625 
L 45.40625 54.6875 
L 54.390625 54.6875 
z
" id="DejaVuSans-103"/>
      <path d="M 50.984375 -16.609375 
L 50.984375 -23.578125 
L -0.984375 -23.578125 
L -0.984375 -16.609375 
z
" id="DejaVuSans-95"/>
      <path d="M 52 44.1875 
Q 55.375 50.25 60.0625 53.125 
Q 64.75 56 71.09375 56 
Q 79.640625 56 84.28125 50.015625 
Q 88.921875 44.046875 88.921875 33.015625 
L 88.921875 0 
L 79.890625 0 
L 79.890625 32.71875 
Q 79.890625 40.578125 77.09375 44.375 
Q 74.3125 48.1875 68.609375 48.1875 
Q 61.625 48.1875 57.5625 43.546875 
Q 53.515625 38.921875 53.515625 30.90625 
L 53.515625 0 
L 44.484375 0 
L 44.484375 32.71875 
Q 44.484375 40.625 41.703125 44.40625 
Q 38.921875 48.1875 33.109375 48.1875 
Q 26.21875 48.1875 22.15625 43.53125 
Q 18.109375 38.875 18.109375 30.90625 
L 18.109375 0 
L 9.078125 0 
L 9.078125 54.6875 
L 18.109375 54.6875 
L 18.109375 46.1875 
Q 21.1875 51.21875 25.484375 53.609375 
Q 29.78125 56 35.6875 56 
Q 41.65625 56 45.828125 52.96875 
Q 50 49.953125 52 44.1875 
z
" id="DejaVuSans-109"/>
      <path d="M 54.890625 33.015625 
L 54.890625 0 
L 45.90625 0 
L 45.90625 32.71875 
Q 45.90625 40.484375 42.875 44.328125 
Q 39.84375 48.1875 33.796875 48.1875 
Q 26.515625 48.1875 22.3125 43.546875 
Q 18.109375 38.921875 18.109375 30.90625 
L 18.109375 0 
L 9.078125 0 
L 9.078125 75.984375 
L 18.109375 75.984375 
L 18.109375 46.1875 
Q 21.34375 51.125 25.703125 53.5625 
Q 30.078125 56 35.796875 56 
Q 45.21875 56 50.046875 50.171875 
Q 54.890625 44.34375 54.890625 33.015625 
z
" id="DejaVuSans-104"/>
      <path d="M 45.40625 46.390625 
L 45.40625 75.984375 
L 54.390625 75.984375 
L 54.390625 0 
L 45.40625 0 
L 45.40625 8.203125 
Q 42.578125 3.328125 38.25 0.953125 
Q 33.9375 -1.421875 27.875 -1.421875 
Q 17.96875 -1.421875 11.734375 6.484375 
Q 5.515625 14.40625 5.515625 27.296875 
Q 5.515625 40.1875 11.734375 48.09375 
Q 17.96875 56 27.875 56 
Q 33.9375 56 38.25 53.625 
Q 42.578125 51.265625 45.40625 46.390625 
z
M 14.796875 27.296875 
Q 14.796875 17.390625 18.875 11.75 
Q 22.953125 6.109375 30.078125 6.109375 
Q 37.203125 6.109375 41.296875 11.75 
Q 45.40625 17.390625 45.40625 27.296875 
Q 45.40625 37.203125 41.296875 42.84375 
Q 37.203125 48.484375 30.078125 48.484375 
Q 22.953125 48.484375 18.875 42.84375 
Q 14.796875 37.203125 14.796875 27.296875 
z
" id="DejaVuSans-100"/>
     </defs>
     <g transform="translate(127.440104 333.872557)scale(0.1 -0.1)">
      <use xlink:href="#DejaVuSans-114"/>
      <use x="41.113281" xlink:href="#DejaVuSans-97"/>
      <use x="102.392578" xlink:href="#DejaVuSans-110"/>
      <use x="165.771484" xlink:href="#DejaVuSans-107"/>
      <use x="223.681641" xlink:href="#DejaVuSans-105"/>
      <use x="251.464844" xlink:href="#DejaVuSans-110"/>
      <use x="314.84375" xlink:href="#DejaVuSans-103"/>
      <use x="378.320312" xlink:href="#DejaVuSans-95"/>
      <use x="428.320312" xlink:href="#DejaVuSans-109"/>
      <use x="525.732422" xlink:href="#DejaVuSans-101"/>
      <use x="587.255859" xlink:href="#DejaVuSans-116"/>
      <use x="626.464844" xlink:href="#DejaVuSans-104"/>
      <use x="689.84375" xlink:href="#DejaVuSans-111"/>
      <use x="751.025391" xlink:href="#DejaVuSans-100"/>
     </g>
    </g>
   </g>
   <g id="matplotlib.axis_2">
    <g id="ytick_1">
     <g id="line2d_7">
      <defs>
       <path d="M 0 0 
L -3.5 0 
" id="mf0b0c62108" style="stroke:#000000;stroke-width:0.8;"/>
      </defs>
      <g>
       <use style="stroke:#000000;stroke-width:0.8;" x="47.675" xlink:href="#mf0b0c62108" y="233.793842"/>
      </g>
     </g>
     <g id="text_8">
      <!-- 0.0 -->
      <defs>
       <path d="M 31.78125 66.40625 
Q 24.171875 66.40625 20.328125 58.90625 
Q 16.5 51.421875 16.5 36.375 
Q 16.5 21.390625 20.328125 13.890625 
Q 24.171875 6.390625 31.78125 6.390625 
Q 39.453125 6.390625 43.28125 13.890625 
Q 47.125 21.390625 47.125 36.375 
Q 47.125 51.421875 43.28125 58.90625 
Q 39.453125 66.40625 31.78125 66.40625 
z
M 31.78125 74.21875 
Q 44.046875 74.21875 50.515625 64.515625 
Q 56.984375 54.828125 56.984375 36.375 
Q 56.984375 17.96875 50.515625 8.265625 
Q 44.046875 -1.421875 31.78125 -1.421875 
Q 19.53125 -1.421875 13.0625 8.265625 
Q 6.59375 17.96875 6.59375 36.375 
Q 6.59375 54.828125 13.0625 64.515625 
Q 19.53125 74.21875 31.78125 74.21875 
z
" id="DejaVuSans-48"/>
       <path d="M 10.6875 12.40625 
L 21 12.40625 
L 21 0 
L 10.6875 0 
z
" id="DejaVuSans-46"/>
      </defs>
      <g transform="translate(24.771875 237.59306)scale(0.1 -0.1)">
       <use xlink:href="#DejaVuSans-48"/>
       <use x="63.623047" xlink:href="#DejaVuSans-46"/>
       <use x="95.410156" xlink:href="#DejaVuSans-48"/>
      </g>
     </g>
    </g>
    <g id="ytick_2">
     <g id="line2d_8">
      <g>
       <use style="stroke:#000000;stroke-width:0.8;" x="47.675" xlink:href="#mf0b0c62108" y="199.161744"/>
      </g>
     </g>
     <g id="text_9">
      <!-- 0.2 -->
      <defs>
       <path d="M 19.1875 8.296875 
L 53.609375 8.296875 
L 53.609375 0 
L 7.328125 0 
L 7.328125 8.296875 
Q 12.9375 14.109375 22.625 23.890625 
Q 32.328125 33.6875 34.8125 36.53125 
Q 39.546875 41.84375 41.421875 45.53125 
Q 43.3125 49.21875 43.3125 52.78125 
Q 43.3125 58.59375 39.234375 62.25 
Q 35.15625 65.921875 28.609375 65.921875 
Q 23.96875 65.921875 18.8125 64.3125 
Q 13.671875 62.703125 7.8125 59.421875 
L 7.8125 69.390625 
Q 13.765625 71.78125 18.9375 73 
Q 24.125 74.21875 28.421875 74.21875 
Q 39.75 74.21875 46.484375 68.546875 
Q 53.21875 62.890625 53.21875 53.421875 
Q 53.21875 48.921875 51.53125 44.890625 
Q 49.859375 40.875 45.40625 35.40625 
Q 44.1875 33.984375 37.640625 27.21875 
Q 31.109375 20.453125 19.1875 8.296875 
z
" id="DejaVuSans-50"/>
      </defs>
      <g transform="translate(24.771875 202.960963)scale(0.1 -0.1)">
       <use xlink:href="#DejaVuSans-48"/>
       <use x="63.623047" xlink:href="#DejaVuSans-46"/>
       <use x="95.410156" xlink:href="#DejaVuSans-50"/>
      </g>
     </g>
    </g>
    <g id="ytick_3">
     <g id="line2d_9">
      <g>
       <use style="stroke:#000000;stroke-width:0.8;" x="47.675" xlink:href="#mf0b0c62108" y="164.529646"/>
      </g>
     </g>
     <g id="text_10">
      <!-- 0.4 -->
      <defs>
       <path d="M 37.796875 64.3125 
L 12.890625 25.390625 
L 37.796875 25.390625 
z
M 35.203125 72.90625 
L 47.609375 72.90625 
L 47.609375 25.390625 
L 58.015625 25.390625 
L 58.015625 17.1875 
L 47.609375 17.1875 
L 47.609375 0 
L 37.796875 0 
L 37.796875 17.1875 
L 4.890625 17.1875 
L 4.890625 26.703125 
z
" id="DejaVuSans-52"/>
      </defs>
      <g transform="translate(24.771875 168.328865)scale(0.1 -0.1)">
       <use xlink:href="#DejaVuSans-48"/>
       <use x="63.623047" xlink:href="#DejaVuSans-46"/>
       <use x="95.410156" xlink:href="#DejaVuSans-52"/>
      </g>
     </g>
    </g>
    <g id="ytick_4">
     <g id="line2d_10">
      <g>
       <use style="stroke:#000000;stroke-width:0.8;" x="47.675" xlink:href="#mf0b0c62108" y="129.897548"/>
      </g>
     </g>
     <g id="text_11">
      <!-- 0.6 -->
      <defs>
       <path d="M 33.015625 40.375 
Q 26.375 40.375 22.484375 35.828125 
Q 18.609375 31.296875 18.609375 23.390625 
Q 18.609375 15.53125 22.484375 10.953125 
Q 26.375 6.390625 33.015625 6.390625 
Q 39.65625 6.390625 43.53125 10.953125 
Q 47.40625 15.53125 47.40625 23.390625 
Q 47.40625 31.296875 43.53125 35.828125 
Q 39.65625 40.375 33.015625 40.375 
z
M 52.59375 71.296875 
L 52.59375 62.3125 
Q 48.875 64.0625 45.09375 64.984375 
Q 41.3125 65.921875 37.59375 65.921875 
Q 27.828125 65.921875 22.671875 59.328125 
Q 17.53125 52.734375 16.796875 39.40625 
Q 19.671875 43.65625 24.015625 45.921875 
Q 28.375 48.1875 33.59375 48.1875 
Q 44.578125 48.1875 50.953125 41.515625 
Q 57.328125 34.859375 57.328125 23.390625 
Q 57.328125 12.15625 50.6875 5.359375 
Q 44.046875 -1.421875 33.015625 -1.421875 
Q 20.359375 -1.421875 13.671875 8.265625 
Q 6.984375 17.96875 6.984375 36.375 
Q 6.984375 53.65625 15.1875 63.9375 
Q 23.390625 74.21875 37.203125 74.21875 
Q 40.921875 74.21875 44.703125 73.484375 
Q 48.484375 72.75 52.59375 71.296875 
z
" id="DejaVuSans-54"/>
      </defs>
      <g transform="translate(24.771875 133.696767)scale(0.1 -0.1)">
       <use xlink:href="#DejaVuSans-48"/>
       <use x="63.623047" xlink:href="#DejaVuSans-46"/>
       <use x="95.410156" xlink:href="#DejaVuSans-54"/>
      </g>
     </g>
    </g>
    <g id="ytick_5">
     <g id="line2d_11">
      <g>
       <use style="stroke:#000000;stroke-width:0.8;" x="47.675" xlink:href="#mf0b0c62108" y="95.26545"/>
      </g>
     </g>
     <g id="text_12">
      <!-- 0.8 -->
      <defs>
       <path d="M 31.78125 34.625 
Q 24.75 34.625 20.71875 30.859375 
Q 16.703125 27.09375 16.703125 20.515625 
Q 16.703125 13.921875 20.71875 10.15625 
Q 24.75 6.390625 31.78125 6.390625 
Q 38.8125 6.390625 42.859375 10.171875 
Q 46.921875 13.96875 46.921875 20.515625 
Q 46.921875 27.09375 42.890625 30.859375 
Q 38.875 34.625 31.78125 34.625 
z
M 21.921875 38.8125 
Q 15.578125 40.375 12.03125 44.71875 
Q 8.5 49.078125 8.5 55.328125 
Q 8.5 64.0625 14.71875 69.140625 
Q 20.953125 74.21875 31.78125 74.21875 
Q 42.671875 74.21875 48.875 69.140625 
Q 55.078125 64.0625 55.078125 55.328125 
Q 55.078125 49.078125 51.53125 44.71875 
Q 48 40.375 41.703125 38.8125 
Q 48.828125 37.15625 52.796875 32.3125 
Q 56.78125 27.484375 56.78125 20.515625 
Q 56.78125 9.90625 50.3125 4.234375 
Q 43.84375 -1.421875 31.78125 -1.421875 
Q 19.734375 -1.421875 13.25 4.234375 
Q 6.78125 9.90625 6.78125 20.515625 
Q 6.78125 27.484375 10.78125 32.3125 
Q 14.796875 37.15625 21.921875 38.8125 
z
M 18.3125 54.390625 
Q 18.3125 48.734375 21.84375 45.5625 
Q 25.390625 42.390625 31.78125 42.390625 
Q 38.140625 42.390625 41.71875 45.5625 
Q 45.3125 48.734375 45.3125 54.390625 
Q 45.3125 60.0625 41.71875 63.234375 
Q 38.140625 66.40625 31.78125 66.40625 
Q 25.390625 66.40625 21.84375 63.234375 
Q 18.3125 60.0625 18.3125 54.390625 
z
" id="DejaVuSans-56"/>
      </defs>
      <g transform="translate(24.771875 99.064669)scale(0.1 -0.1)">
       <use xlink:href="#DejaVuSans-48"/>
       <use x="63.623047" xlink:href="#DejaVuSans-46"/>
       <use x="95.410156" xlink:href="#DejaVuSans-56"/>
      </g>
     </g>
    </g>
    <g id="ytick_6">
     <g id="line2d_12">
      <g>
       <use style="stroke:#000000;stroke-width:0.8;" x="47.675" xlink:href="#mf0b0c62108" y="60.633352"/>
      </g>
     </g>
     <g id="text_13">
      <!-- 1.0 -->
      <g transform="translate(24.771875 64.432571)scale(0.1 -0.1)">
       <use xlink:href="#DejaVuSans-49"/>
       <use x="63.623047" xlink:href="#DejaVuSans-46"/>
       <use x="95.410156" xlink:href="#DejaVuSans-48"/>
      </g>
     </g>
    </g>
    <g id="text_14">
     <!-- value -->
     <defs>
      <path d="M 2.984375 54.6875 
L 12.5 54.6875 
L 29.59375 8.796875 
L 46.6875 54.6875 
L 56.203125 54.6875 
L 35.6875 0 
L 23.484375 0 
z
" id="DejaVuSans-118"/>
     </defs>
     <g transform="translate(18.692188 162.224687)rotate(-90)scale(0.1 -0.1)">
      <use xlink:href="#DejaVuSans-118"/>
      <use x="59.179688" xlink:href="#DejaVuSans-97"/>
      <use x="120.458984" xlink:href="#DejaVuSans-108"/>
      <use x="148.242188" xlink:href="#DejaVuSans-117"/>
      <use x="211.621094" xlink:href="#DejaVuSans-101"/>
     </g>
    </g>
   </g>
   <g id="line2d_13">
    <path clip-path="url(#p27564bb333)" d="M 51.691337 86.451965 
L 83.822031 86.451965 
" style="fill:none;stroke:#262626;stroke-linecap:square;stroke-opacity:0.45;stroke-width:1.5;"/>
   </g>
   <g id="line2d_14">
    <path clip-path="url(#p27564bb333)" d="M 91.854705 139.351745 
L 123.985399 139.351745 
" style="fill:none;stroke:#262626;stroke-linecap:square;stroke-opacity:0.45;stroke-width:1.5;"/>
   </g>
   <g id="line2d_15">
    <path clip-path="url(#p27564bb333)" d="M 132.018073 159.23403 
L 164.148767 159.23403 
" style="fill:none;stroke:#262626;stroke-linecap:square;stroke-opacity:0.45;stroke-width:1.5;"/>
   </g>
   <g id="line2d_16">
    <path clip-path="url(#p27564bb333)" d="M 172.181441 127.973543 
L 204.312135 127.973543 
" style="fill:none;stroke:#262626;stroke-linecap:square;stroke-opacity:0.45;stroke-width:1.5;"/>
   </g>
   <g id="line2d_17">
    <path clip-path="url(#p27564bb333)" d="M 212.344809 62.584522 
L 244.475503 62.584522 
" style="fill:none;stroke:#262626;stroke-linecap:square;stroke-opacity:0.45;stroke-width:1.5;"/>
   </g>
   <g id="line2d_18">
    <path clip-path="url(#p27564bb333)" d="M 252.508177 73.328012 
L 284.638872 73.328012 
" style="fill:none;stroke:#262626;stroke-linecap:square;stroke-opacity:0.45;stroke-width:1.5;"/>
   </g>
   <g id="patch_3">
    <path d="M 47.675 245.29375 
L 47.675 51.84 
" style="fill:none;stroke:#000000;stroke-linecap:square;stroke-linejoin:miter;stroke-width:0.8;"/>
   </g>
   <g id="patch_4">
    <path d="M 47.675 245.29375 
L 288.655208 245.29375 
" style="fill:none;stroke:#000000;stroke-linecap:square;stroke-linejoin:miter;stroke-width:0.8;"/>
   </g>
   <g id="text_15">
    <!-- AUC -->
    <defs>
     <path d="M 34.1875 63.1875 
L 20.796875 26.90625 
L 47.609375 26.90625 
z
M 28.609375 72.90625 
L 39.796875 72.90625 
L 67.578125 0 
L 57.328125 0 
L 50.6875 18.703125 
L 17.828125 18.703125 
L 11.1875 0 
L 0.78125 0 
z
" id="DejaVuSans-65"/>
     <path d="M 64.40625 67.28125 
L 64.40625 56.890625 
Q 59.421875 61.53125 53.78125 63.8125 
Q 48.140625 66.109375 41.796875 66.109375 
Q 29.296875 66.109375 22.65625 58.46875 
Q 16.015625 50.828125 16.015625 36.375 
Q 16.015625 21.96875 22.65625 14.328125 
Q 29.296875 6.6875 41.796875 6.6875 
Q 48.140625 6.6875 53.78125 8.984375 
Q 59.421875 11.28125 64.40625 15.921875 
L 64.40625 5.609375 
Q 59.234375 2.09375 53.4375 0.328125 
Q 47.65625 -1.421875 41.21875 -1.421875 
Q 24.65625 -1.421875 15.125 8.703125 
Q 5.609375 18.84375 5.609375 36.375 
Q 5.609375 53.953125 15.125 64.078125 
Q 24.65625 74.21875 41.21875 74.21875 
Q 47.75 74.21875 53.53125 72.484375 
Q 59.328125 70.75 64.40625 67.28125 
z
" id="DejaVuSans-67"/>
    </defs>
    <g transform="translate(157.59401 45.84)scale(0.1 -0.1)">
     <use xlink:href="#DejaVuSans-65"/>
     <use x="68.408203" xlink:href="#DejaVuSans-85"/>
     <use x="141.601562" xlink:href="#DejaVuSans-67"/>
    </g>
   </g>
  </g>
  <g id="axes_2">
   <g id="patch_5">
    <path d="M 321.448958 245.29375 
L 562.429167 245.29375 
L 562.429167 51.84 
L 321.448958 51.84 
z
" style="fill:#ffffff;"/>
   </g>
   <g id="PathCollection_7">
    <g clip-path="url(#p630f1aa1cd)">
     <use style="fill:#3274a1;stroke:#3274a1;" x="341.530642" xlink:href="#m0cd5d1d61c" y="233.725747"/>
    </g>
   </g>
   <g id="PatchCollection_7">
    <path clip-path="url(#p630f1aa1cd)" d="M 341.467887 233.152129 
L 341.593398 233.152129 
L 341.593398 60.633352 
L 341.467887 60.633352 
z
" style="fill:#ffffff;"/>
    <path clip-path="url(#p630f1aa1cd)" d="M 341.405132 232.578511 
L 341.656153 232.578511 
L 341.656153 60.633352 
L 341.405132 60.633352 
z
" style="fill:#e5eef3;"/>
    <path clip-path="url(#p630f1aa1cd)" d="M 341.279621 231.431275 
L 341.781663 231.431275 
L 341.781663 60.633352 
L 341.279621 60.633352 
z
" style="fill:#ccdce7;"/>
    <path clip-path="url(#p630f1aa1cd)" d="M 341.0286 229.136804 
L 342.032684 229.136804 
L 342.032684 60.633352 
L 341.0286 60.633352 
z
" style="fill:#b2cbdc;"/>
    <path clip-path="url(#p630f1aa1cd)" d="M 340.526558 224.521233 
L 342.534727 224.521233 
L 342.534727 60.633352 
L 340.526558 60.633352 
z
" style="fill:#98b9d0;"/>
    <path clip-path="url(#p630f1aa1cd)" d="M 339.522474 215.051138 
L 343.538811 215.051138 
L 343.538811 60.633352 
L 339.522474 60.633352 
z
" style="fill:#7ea8c4;"/>
    <path clip-path="url(#p630f1aa1cd)" d="M 337.514306 211.976229 
L 345.546979 211.976229 
L 345.546979 60.633352 
L 337.514306 60.633352 
z
" style="fill:#6596b8;"/>
    <path clip-path="url(#p630f1aa1cd)" d="M 333.497969 206.012504 
L 349.563316 206.012504 
L 349.563316 60.633352 
L 333.497969 60.633352 
z
" style="fill:#4b85ac;"/>
    <path clip-path="url(#p630f1aa1cd)" d="M 325.465295 165.780033 
L 357.59599 165.780033 
L 357.59599 60.633352 
L 325.465295 60.633352 
z
" style="fill:#3274a1;"/>
   </g>
   <g id="PathCollection_8">
    <g clip-path="url(#p630f1aa1cd)">
     <use style="fill:#e1812c;stroke:#e1812c;" x="381.69401" xlink:href="#m1ea2b21c4c" y="233.793842"/>
    </g>
   </g>
   <g id="PatchCollection_8">
    <path clip-path="url(#p630f1aa1cd)" d="M 381.631255 233.582464 
L 381.756766 233.582464 
L 381.756766 60.633352 
L 381.631255 60.633352 
z
" style="fill:#ffffff;"/>
    <path clip-path="url(#p630f1aa1cd)" d="M 381.5685 233.371087 
L 381.819521 233.371087 
L 381.819521 60.633352 
L 381.5685 60.633352 
z
" style="fill:#fbefe5;"/>
    <path clip-path="url(#p630f1aa1cd)" d="M 381.442989 232.948332 
L 381.945031 232.948332 
L 381.945031 60.633352 
L 381.442989 60.633352 
z
" style="fill:#f7dfca;"/>
    <path clip-path="url(#p630f1aa1cd)" d="M 381.191968 232.102821 
L 382.196053 232.102821 
L 382.196053 60.633352 
L 381.191968 60.633352 
z
" style="fill:#f4d0b0;"/>
    <path clip-path="url(#p630f1aa1cd)" d="M 380.689926 230.407775 
L 382.698095 230.407775 
L 382.698095 60.633352 
L 380.689926 60.633352 
z
" style="fill:#f0c095;"/>
    <path clip-path="url(#p630f1aa1cd)" d="M 379.685842 227.381385 
L 383.702179 227.381385 
L 383.702179 64.128128 
L 379.685842 64.128128 
z
" style="fill:#ecb07b;"/>
    <path clip-path="url(#p630f1aa1cd)" d="M 377.677674 223.978408 
L 385.710347 223.978408 
L 385.710347 97.460019 
L 377.677674 97.460019 
z
" style="fill:#e8a060;"/>
    <path clip-path="url(#p630f1aa1cd)" d="M 373.661337 216.401634 
L 389.726684 216.401634 
L 389.726684 122.663023 
L 373.661337 122.663023 
z
" style="fill:#e59046;"/>
    <path clip-path="url(#p630f1aa1cd)" d="M 365.628663 196.456111 
L 397.759358 196.456111 
L 397.759358 150.430294 
L 365.628663 150.430294 
z
" style="fill:#e1812c;"/>
   </g>
   <g id="PathCollection_9">
    <g clip-path="url(#p630f1aa1cd)">
     <use style="fill:#3a923a;stroke:#3a923a;" x="421.857378" xlink:href="#md9b22ed233" y="233.793842"/>
    </g>
   </g>
   <g id="PatchCollection_9">
    <path clip-path="url(#p630f1aa1cd)" d="M 421.794623 233.727409 
L 421.920134 233.727409 
L 421.920134 60.633352 
L 421.794623 60.633352 
z
" style="fill:#ffffff;"/>
    <path clip-path="url(#p630f1aa1cd)" d="M 421.731868 233.660976 
L 421.982889 233.660976 
L 421.982889 60.633352 
L 421.731868 60.633352 
z
" style="fill:#e6f1e6;"/>
    <path clip-path="url(#p630f1aa1cd)" d="M 421.606357 233.52811 
L 422.1084 233.52811 
L 422.1084 60.633352 
L 421.606357 60.633352 
z
" style="fill:#cee4ce;"/>
    <path clip-path="url(#p630f1aa1cd)" d="M 421.355336 233.262378 
L 422.359421 233.262378 
L 422.359421 60.633352 
L 421.355336 60.633352 
z
" style="fill:#b5d6b5;"/>
    <path clip-path="url(#p630f1aa1cd)" d="M 420.853294 232.750241 
L 422.861463 232.750241 
L 422.861463 60.858822 
L 420.853294 60.858822 
z
" style="fill:#9cc89c;"/>
    <path clip-path="url(#p630f1aa1cd)" d="M 419.84921 232.320775 
L 423.865547 232.320775 
L 423.865547 68.97572 
L 419.84921 68.97572 
z
" style="fill:#83bb83;"/>
    <path clip-path="url(#p630f1aa1cd)" d="M 417.841042 231.050631 
L 425.873715 231.050631 
L 425.873715 90.921407 
L 417.841042 90.921407 
z
" style="fill:#6bad6b;"/>
    <path clip-path="url(#p630f1aa1cd)" d="M 413.824705 225.97757 
L 429.890052 225.97757 
L 429.890052 127.655738 
L 413.824705 127.655738 
z
" style="fill:#529f52;"/>
    <path clip-path="url(#p630f1aa1cd)" d="M 405.792031 207.438976 
L 437.922726 207.438976 
L 437.922726 152.775175 
L 405.792031 152.775175 
z
" style="fill:#3a923a;"/>
   </g>
   <g id="PathCollection_10">
    <g clip-path="url(#p630f1aa1cd)">
     <use style="fill:#c03d3e;stroke:#c03d3e;" x="462.020747" xlink:href="#m060b68148b" y="233.793842"/>
    </g>
   </g>
   <g id="PatchCollection_10">
    <path clip-path="url(#p630f1aa1cd)" d="M 461.957991 233.526684 
L 462.083502 233.526684 
L 462.083502 60.633352 
L 461.957991 60.633352 
z
" style="fill:#ffffff;"/>
    <path clip-path="url(#p630f1aa1cd)" d="M 461.895236 233.259526 
L 462.146257 233.259526 
L 462.146257 60.633352 
L 461.895236 60.633352 
z
" style="fill:#f7e7e7;"/>
    <path clip-path="url(#p630f1aa1cd)" d="M 461.769725 232.725211 
L 462.271768 232.725211 
L 462.271768 60.633352 
L 461.769725 60.633352 
z
" style="fill:#efcecf;"/>
    <path clip-path="url(#p630f1aa1cd)" d="M 461.518704 231.65658 
L 462.522789 231.65658 
L 462.522789 60.633352 
L 461.518704 60.633352 
z
" style="fill:#e7b6b6;"/>
    <path clip-path="url(#p630f1aa1cd)" d="M 461.016662 229.583738 
L 463.024831 229.583738 
L 463.024831 60.633352 
L 461.016662 60.633352 
z
" style="fill:#df9e9e;"/>
    <path clip-path="url(#p630f1aa1cd)" d="M 460.012578 225.983475 
L 464.028915 225.983475 
L 464.028915 64.015393 
L 460.012578 64.015393 
z
" style="fill:#d78586;"/>
    <path clip-path="url(#p630f1aa1cd)" d="M 458.00441 220.175491 
L 466.037083 220.175491 
L 466.037083 89.117652 
L 458.00441 89.117652 
z
" style="fill:#d06d6e;"/>
    <path clip-path="url(#p630f1aa1cd)" d="M 453.988073 208.165488 
L 470.05342 208.165488 
L 470.05342 124.636596 
L 453.988073 124.636596 
z
" style="fill:#c85555;"/>
    <path clip-path="url(#p630f1aa1cd)" d="M 445.955399 185.14399 
L 478.086094 185.14399 
L 478.086094 138.375197 
L 445.955399 138.375197 
z
" style="fill:#c03d3e;"/>
   </g>
   <g id="PathCollection_11">
    <g clip-path="url(#p630f1aa1cd)">
     <use style="fill:#9372b2;stroke:#9372b2;" x="502.184115" xlink:href="#m3827beccf5" y="222.663887"/>
    </g>
   </g>
   <g id="PatchCollection_11">
    <path clip-path="url(#p630f1aa1cd)" d="M 502.058604 220.970003 
L 502.309625 220.970003 
L 502.309625 60.633352 
L 502.058604 60.633352 
z
" style="fill:#ffffff;"/>
    <path clip-path="url(#p630f1aa1cd)" d="M 501.933094 219.27612 
L 502.435136 219.27612 
L 502.435136 60.633352 
L 501.933094 60.633352 
z
" style="fill:#f0ebf4;"/>
    <path clip-path="url(#p630f1aa1cd)" d="M 501.682072 215.888352 
L 502.686157 215.888352 
L 502.686157 60.633352 
L 501.682072 60.633352 
z
" style="fill:#e0d7e9;"/>
    <path clip-path="url(#p630f1aa1cd)" d="M 501.18003 208.63926 
L 503.188199 208.63926 
L 503.188199 60.633352 
L 501.18003 60.633352 
z
" style="fill:#d1c3de;"/>
    <path clip-path="url(#p630f1aa1cd)" d="M 500.175946 193.923805 
L 504.192283 193.923805 
L 504.192283 60.633352 
L 500.175946 60.633352 
z
" style="fill:#c1aed3;"/>
    <path clip-path="url(#p630f1aa1cd)" d="M 498.167778 178.353704 
L 506.200451 178.353704 
L 506.200451 60.633352 
L 498.167778 60.633352 
z
" style="fill:#b29ac8;"/>
    <path clip-path="url(#p630f1aa1cd)" d="M 494.151441 114.551314 
L 510.216788 114.551314 
L 510.216788 60.633352 
L 494.151441 60.633352 
z
" style="fill:#a286bd;"/>
    <path clip-path="url(#p630f1aa1cd)" d="M 486.118767 63.779903 
L 518.249462 63.779903 
L 518.249462 60.633352 
L 486.118767 60.633352 
z
" style="fill:#9372b2;"/>
   </g>
   <g id="PathCollection_12">
    <g clip-path="url(#p630f1aa1cd)">
     <use style="fill:#845b53;stroke:#845b53;" x="542.347483" xlink:href="#m8158dc7fa3" y="233.762594"/>
    </g>
   </g>
   <g id="PatchCollection_12">
    <path clip-path="url(#p630f1aa1cd)" d="M 542.284727 233.251163 
L 542.410238 233.251163 
L 542.410238 60.633352 
L 542.284727 60.633352 
z
" style="fill:#ffffff;"/>
    <path clip-path="url(#p630f1aa1cd)" d="M 542.221972 232.739732 
L 542.472993 232.739732 
L 542.472993 60.633352 
L 542.221972 60.633352 
z
" style="fill:#f0eae9;"/>
    <path clip-path="url(#p630f1aa1cd)" d="M 542.096462 231.71687 
L 542.598504 231.71687 
L 542.598504 60.633352 
L 542.096462 60.633352 
z
" style="fill:#e0d6d4;"/>
    <path clip-path="url(#p630f1aa1cd)" d="M 541.845441 229.671146 
L 542.849525 229.671146 
L 542.849525 60.633352 
L 541.845441 60.633352 
z
" style="fill:#d1c1be;"/>
    <path clip-path="url(#p630f1aa1cd)" d="M 541.343398 225.112993 
L 543.351567 225.112993 
L 543.351567 60.633352 
L 541.343398 60.633352 
z
" style="fill:#c1ada9;"/>
    <path clip-path="url(#p630f1aa1cd)" d="M 540.339314 202.630615 
L 544.355651 202.630615 
L 544.355651 60.633352 
L 540.339314 60.633352 
z
" style="fill:#b29893;"/>
    <path clip-path="url(#p630f1aa1cd)" d="M 538.331146 194.806392 
L 546.363819 194.806392 
L 546.363819 60.633352 
L 538.331146 60.633352 
z
" style="fill:#a2847d;"/>
    <path clip-path="url(#p630f1aa1cd)" d="M 534.314809 169.177728 
L 550.380156 169.177728 
L 550.380156 60.633352 
L 534.314809 60.633352 
z
" style="fill:#936f68;"/>
    <path clip-path="url(#p630f1aa1cd)" d="M 526.282135 132.075654 
L 558.41283 132.075654 
L 558.41283 60.633352 
L 526.282135 60.633352 
z
" style="fill:#845b53;"/>
   </g>
   <g id="matplotlib.axis_3">
    <g id="xtick_7">
     <g id="line2d_19">
      <g>
       <use style="stroke:#000000;stroke-width:0.8;" x="341.530642" xlink:href="#m14171396f7" y="245.29375"/>
      </g>
     </g>
     <g id="text_16">
      <!-- ExtraTrees -->
      <g transform="translate(324.944569 294.741149)rotate(-45)scale(0.1 -0.1)">
       <use xlink:href="#DejaVuSans-69"/>
       <use x="63.183594" xlink:href="#DejaVuSans-120"/>
       <use x="122.363281" xlink:href="#DejaVuSans-116"/>
       <use x="161.572266" xlink:href="#DejaVuSans-114"/>
       <use x="202.685547" xlink:href="#DejaVuSans-97"/>
       <use x="263.964844" xlink:href="#DejaVuSans-84"/>
       <use x="310.298828" xlink:href="#DejaVuSans-114"/>
       <use x="349.162109" xlink:href="#DejaVuSans-101"/>
       <use x="410.685547" xlink:href="#DejaVuSans-101"/>
       <use x="472.208984" xlink:href="#DejaVuSans-115"/>
      </g>
     </g>
    </g>
    <g id="xtick_8">
     <g id="line2d_20">
      <g>
       <use style="stroke:#000000;stroke-width:0.8;" x="381.69401" xlink:href="#m14171396f7" y="245.29375"/>
      </g>
     </g>
     <g id="text_17">
      <!-- FeatBoost -->
      <g transform="translate(366.097886 292.76125)rotate(-45)scale(0.1 -0.1)">
       <use xlink:href="#DejaVuSans-70"/>
       <use x="52.019531" xlink:href="#DejaVuSans-101"/>
       <use x="113.542969" xlink:href="#DejaVuSans-97"/>
       <use x="174.822266" xlink:href="#DejaVuSans-116"/>
       <use x="214.03125" xlink:href="#DejaVuSans-66"/>
       <use x="282.634766" xlink:href="#DejaVuSans-111"/>
       <use x="343.816406" xlink:href="#DejaVuSans-111"/>
       <use x="404.998047" xlink:href="#DejaVuSans-115"/>
       <use x="457.097656" xlink:href="#DejaVuSans-116"/>
      </g>
     </g>
    </g>
    <g id="xtick_9">
     <g id="line2d_21">
      <g>
       <use style="stroke:#000000;stroke-width:0.8;" x="421.857378" xlink:href="#m14171396f7" y="245.29375"/>
      </g>
     </g>
     <g id="text_18">
      <!-- FeatBoost w/1-NN -->
      <g transform="translate(392.2401 320.803558)rotate(-45)scale(0.1 -0.1)">
       <use xlink:href="#DejaVuSans-70"/>
       <use x="52.019531" xlink:href="#DejaVuSans-101"/>
       <use x="113.542969" xlink:href="#DejaVuSans-97"/>
       <use x="174.822266" xlink:href="#DejaVuSans-116"/>
       <use x="214.03125" xlink:href="#DejaVuSans-66"/>
       <use x="282.634766" xlink:href="#DejaVuSans-111"/>
       <use x="343.816406" xlink:href="#DejaVuSans-111"/>
       <use x="404.998047" xlink:href="#DejaVuSans-115"/>
       <use x="457.097656" xlink:href="#DejaVuSans-116"/>
       <use x="496.306641" xlink:href="#DejaVuSans-32"/>
       <use x="528.09375" xlink:href="#DejaVuSans-119"/>
       <use x="609.880859" xlink:href="#DejaVuSans-47"/>
       <use x="643.572266" xlink:href="#DejaVuSans-49"/>
       <use x="707.195312" xlink:href="#DejaVuSans-45"/>
       <use x="743.279297" xlink:href="#DejaVuSans-78"/>
       <use x="818.083984" xlink:href="#DejaVuSans-78"/>
      </g>
     </g>
    </g>
    <g id="xtick_10">
     <g id="line2d_22">
      <g>
       <use style="stroke:#000000;stroke-width:0.8;" x="462.020747" xlink:href="#m14171396f7" y="245.29375"/>
      </g>
     </g>
     <g id="text_19">
      <!-- FeatBoost Deep -->
      <g transform="translate(435.983197 313.644102)rotate(-45)scale(0.1 -0.1)">
       <use xlink:href="#DejaVuSans-70"/>
       <use x="52.019531" xlink:href="#DejaVuSans-101"/>
       <use x="113.542969" xlink:href="#DejaVuSans-97"/>
       <use x="174.822266" xlink:href="#DejaVuSans-116"/>
       <use x="214.03125" xlink:href="#DejaVuSans-66"/>
       <use x="282.634766" xlink:href="#DejaVuSans-111"/>
       <use x="343.816406" xlink:href="#DejaVuSans-111"/>
       <use x="404.998047" xlink:href="#DejaVuSans-115"/>
       <use x="457.097656" xlink:href="#DejaVuSans-116"/>
       <use x="496.306641" xlink:href="#DejaVuSans-32"/>
       <use x="528.09375" xlink:href="#DejaVuSans-68"/>
       <use x="605.095703" xlink:href="#DejaVuSans-101"/>
       <use x="666.619141" xlink:href="#DejaVuSans-101"/>
       <use x="728.142578" xlink:href="#DejaVuSans-112"/>
      </g>
     </g>
    </g>
    <g id="xtick_11">
     <g id="line2d_23">
      <g>
       <use style="stroke:#000000;stroke-width:0.8;" x="502.184115" xlink:href="#m14171396f7" y="245.29375"/>
      </g>
     </g>
     <g id="text_20">
      <!-- MultiSURF -->
      <g transform="translate(486.171461 293.59431)rotate(-45)scale(0.1 -0.1)">
       <use xlink:href="#DejaVuSans-77"/>
       <use x="86.279297" xlink:href="#DejaVuSans-117"/>
       <use x="149.658203" xlink:href="#DejaVuSans-108"/>
       <use x="177.441406" xlink:href="#DejaVuSans-116"/>
       <use x="216.650391" xlink:href="#DejaVuSans-105"/>
       <use x="244.433594" xlink:href="#DejaVuSans-83"/>
       <use x="307.910156" xlink:href="#DejaVuSans-85"/>
       <use x="381.103516" xlink:href="#DejaVuSans-82"/>
       <use x="450.585938" xlink:href="#DejaVuSans-70"/>
      </g>
     </g>
    </g>
    <g id="xtick_12">
     <g id="line2d_24">
      <g>
       <use style="stroke:#000000;stroke-width:0.8;" x="542.347483" xlink:href="#m14171396f7" y="245.29375"/>
      </g>
     </g>
     <g id="text_21">
      <!-- RFE w/XGBoost -->
      <g transform="translate(517.226962 311.810044)rotate(-45)scale(0.1 -0.1)">
       <use xlink:href="#DejaVuSans-82"/>
       <use x="69.482422" xlink:href="#DejaVuSans-70"/>
       <use x="127.001953" xlink:href="#DejaVuSans-69"/>
       <use x="190.185547" xlink:href="#DejaVuSans-32"/>
       <use x="221.972656" xlink:href="#DejaVuSans-119"/>
       <use x="303.759766" xlink:href="#DejaVuSans-47"/>
       <use x="337.451172" xlink:href="#DejaVuSans-88"/>
       <use x="405.957031" xlink:href="#DejaVuSans-71"/>
       <use x="483.447266" xlink:href="#DejaVuSans-66"/>
       <use x="552.050781" xlink:href="#DejaVuSans-111"/>
       <use x="613.232422" xlink:href="#DejaVuSans-111"/>
       <use x="674.414062" xlink:href="#DejaVuSans-115"/>
       <use x="726.513672" xlink:href="#DejaVuSans-116"/>
      </g>
     </g>
    </g>
    <g id="text_22">
     <!-- ranking_method -->
     <g transform="translate(401.214063 333.872557)scale(0.1 -0.1)">
      <use xlink:href="#DejaVuSans-114"/>
      <use x="41.113281" xlink:href="#DejaVuSans-97"/>
      <use x="102.392578" xlink:href="#DejaVuSans-110"/>
      <use x="165.771484" xlink:href="#DejaVuSans-107"/>
      <use x="223.681641" xlink:href="#DejaVuSans-105"/>
      <use x="251.464844" xlink:href="#DejaVuSans-110"/>
      <use x="314.84375" xlink:href="#DejaVuSans-103"/>
      <use x="378.320312" xlink:href="#DejaVuSans-95"/>
      <use x="428.320312" xlink:href="#DejaVuSans-109"/>
      <use x="525.732422" xlink:href="#DejaVuSans-101"/>
      <use x="587.255859" xlink:href="#DejaVuSans-116"/>
      <use x="626.464844" xlink:href="#DejaVuSans-104"/>
      <use x="689.84375" xlink:href="#DejaVuSans-111"/>
      <use x="751.025391" xlink:href="#DejaVuSans-100"/>
     </g>
    </g>
   </g>
   <g id="matplotlib.axis_4">
    <g id="ytick_7">
     <g id="line2d_25">
      <g>
       <use style="stroke:#000000;stroke-width:0.8;" x="321.448958" xlink:href="#mf0b0c62108" y="233.793842"/>
      </g>
     </g>
    </g>
    <g id="ytick_8">
     <g id="line2d_26">
      <g>
       <use style="stroke:#000000;stroke-width:0.8;" x="321.448958" xlink:href="#mf0b0c62108" y="199.161744"/>
      </g>
     </g>
    </g>
    <g id="ytick_9">
     <g id="line2d_27">
      <g>
       <use style="stroke:#000000;stroke-width:0.8;" x="321.448958" xlink:href="#mf0b0c62108" y="164.529646"/>
      </g>
     </g>
    </g>
    <g id="ytick_10">
     <g id="line2d_28">
      <g>
       <use style="stroke:#000000;stroke-width:0.8;" x="321.448958" xlink:href="#mf0b0c62108" y="129.897548"/>
      </g>
     </g>
    </g>
    <g id="ytick_11">
     <g id="line2d_29">
      <g>
       <use style="stroke:#000000;stroke-width:0.8;" x="321.448958" xlink:href="#mf0b0c62108" y="95.26545"/>
      </g>
     </g>
    </g>
    <g id="ytick_12">
     <g id="line2d_30">
      <g>
       <use style="stroke:#000000;stroke-width:0.8;" x="321.448958" xlink:href="#mf0b0c62108" y="60.633352"/>
      </g>
     </g>
    </g>
   </g>
   <g id="line2d_31">
    <path clip-path="url(#p630f1aa1cd)" d="M 325.465295 75.295304 
L 357.59599 75.295304 
" style="fill:none;stroke:#262626;stroke-linecap:square;stroke-opacity:0.45;stroke-width:1.5;"/>
   </g>
   <g id="line2d_32">
    <path clip-path="url(#p630f1aa1cd)" d="M 365.628663 172.71669 
L 397.759358 172.71669 
" style="fill:none;stroke:#262626;stroke-linecap:square;stroke-opacity:0.45;stroke-width:1.5;"/>
   </g>
   <g id="line2d_33">
    <path clip-path="url(#p630f1aa1cd)" d="M 405.792031 176.073679 
L 437.922726 176.073679 
" style="fill:none;stroke:#262626;stroke-linecap:square;stroke-opacity:0.45;stroke-width:1.5;"/>
   </g>
   <g id="line2d_34">
    <path clip-path="url(#p630f1aa1cd)" d="M 445.955399 164.950522 
L 478.086094 164.950522 
" style="fill:none;stroke:#262626;stroke-linecap:square;stroke-opacity:0.45;stroke-width:1.5;"/>
   </g>
   <g id="line2d_35">
    <path clip-path="url(#p630f1aa1cd)" d="M 486.118767 60.633352 
L 518.249462 60.633352 
" style="fill:none;stroke:#262626;stroke-linecap:square;stroke-opacity:0.45;stroke-width:1.5;"/>
   </g>
   <g id="line2d_36">
    <path clip-path="url(#p630f1aa1cd)" d="M 526.282135 94.634136 
L 558.41283 94.634136 
" style="fill:none;stroke:#262626;stroke-linecap:square;stroke-opacity:0.45;stroke-width:1.5;"/>
   </g>
   <g id="patch_6">
    <path d="M 321.448958 245.29375 
L 321.448958 51.84 
" style="fill:none;stroke:#000000;stroke-linecap:square;stroke-linejoin:miter;stroke-width:0.8;"/>
   </g>
   <g id="patch_7">
    <path d="M 321.448958 245.29375 
L 562.429167 245.29375 
" style="fill:none;stroke:#000000;stroke-linecap:square;stroke-linejoin:miter;stroke-width:0.8;"/>
   </g>
   <g id="text_23">
    <!-- mAP -->
    <defs>
     <path d="M 19.671875 64.796875 
L 19.671875 37.40625 
L 32.078125 37.40625 
Q 38.96875 37.40625 42.71875 40.96875 
Q 46.484375 44.53125 46.484375 51.125 
Q 46.484375 57.671875 42.71875 61.234375 
Q 38.96875 64.796875 32.078125 64.796875 
z
M 9.8125 72.90625 
L 32.078125 72.90625 
Q 44.34375 72.90625 50.609375 67.359375 
Q 56.890625 61.8125 56.890625 51.125 
Q 56.890625 40.328125 50.609375 34.8125 
Q 44.34375 29.296875 32.078125 29.296875 
L 19.671875 29.296875 
L 19.671875 0 
L 9.8125 0 
z
" id="DejaVuSans-80"/>
    </defs>
    <g transform="translate(430.633594 45.84)scale(0.1 -0.1)">
     <use xlink:href="#DejaVuSans-109"/>
     <use x="97.412109" xlink:href="#DejaVuSans-65"/>
     <use x="165.820312" xlink:href="#DejaVuSans-80"/>
    </g>
   </g>
  </g>
  <g id="axes_3">
   <g id="patch_8">
    <path d="M 595.222917 245.29375 
L 836.203125 245.29375 
L 836.203125 51.84 
L 595.222917 51.84 
z
" style="fill:#ffffff;"/>
   </g>
   <g id="PathCollection_13">
    <g clip-path="url(#p22a6e7060f)">
     <use style="fill:#3274a1;stroke:#3274a1;" x="615.304601" xlink:href="#m0cd5d1d61c" y="233.811159"/>
    </g>
   </g>
   <g id="PatchCollection_13">
    <path clip-path="url(#p22a6e7060f)" d="M 615.241845 233.780737 
L 615.367356 233.780737 
L 615.367356 60.633352 
L 615.241845 60.633352 
z
" style="fill:#ffffff;"/>
    <path clip-path="url(#p22a6e7060f)" d="M 615.17909 233.750315 
L 615.430111 233.750315 
L 615.430111 60.633352 
L 615.17909 60.633352 
z
" style="fill:#e5eef3;"/>
    <path clip-path="url(#p22a6e7060f)" d="M 615.05358 233.689471 
L 615.555622 233.689471 
L 615.555622 60.633352 
L 615.05358 60.633352 
z
" style="fill:#ccdce7;"/>
    <path clip-path="url(#p22a6e7060f)" d="M 614.802559 233.567782 
L 615.806643 233.567782 
L 615.806643 60.633352 
L 614.802559 60.633352 
z
" style="fill:#b2cbdc;"/>
    <path clip-path="url(#p22a6e7060f)" d="M 614.300516 233.337679 
L 616.308685 233.337679 
L 616.308685 60.633352 
L 614.300516 60.633352 
z
" style="fill:#98b9d0;"/>
    <path clip-path="url(#p22a6e7060f)" d="M 613.296432 233.174291 
L 617.312769 233.174291 
L 617.312769 60.633352 
L 613.296432 60.633352 
z
" style="fill:#7ea8c4;"/>
    <path clip-path="url(#p22a6e7060f)" d="M 611.288264 230.980509 
L 619.320938 230.980509 
L 619.320938 60.633352 
L 611.288264 60.633352 
z
" style="fill:#6596b8;"/>
    <path clip-path="url(#p22a6e7060f)" d="M 607.271927 229.014647 
L 623.337274 229.014647 
L 623.337274 60.633352 
L 607.271927 60.633352 
z
" style="fill:#4b85ac;"/>
    <path clip-path="url(#p22a6e7060f)" d="M 599.239253 221.774311 
L 631.369948 221.774311 
L 631.369948 60.633352 
L 599.239253 60.633352 
z
" style="fill:#3274a1;"/>
   </g>
   <g id="PathCollection_14">
    <g clip-path="url(#p22a6e7060f)">
     <use style="fill:#e1812c;stroke:#e1812c;" x="655.467969" xlink:href="#m1ea2b21c4c" y="233.811159"/>
    </g>
   </g>
   <g id="PatchCollection_14">
    <path clip-path="url(#p22a6e7060f)" d="M 655.405213 233.795271 
L 655.530724 233.795271 
L 655.530724 60.633352 
L 655.405213 60.633352 
z
" style="fill:#ffffff;"/>
    <path clip-path="url(#p22a6e7060f)" d="M 655.342458 233.779383 
L 655.593479 233.779383 
L 655.593479 60.633352 
L 655.342458 60.633352 
z
" style="fill:#fbefe5;"/>
    <path clip-path="url(#p22a6e7060f)" d="M 655.216948 233.747606 
L 655.71899 233.747606 
L 655.71899 60.633352 
L 655.216948 60.633352 
z
" style="fill:#f7dfca;"/>
    <path clip-path="url(#p22a6e7060f)" d="M 654.965927 233.684053 
L 655.970011 233.684053 
L 655.970011 60.633352 
L 654.965927 60.633352 
z
" style="fill:#f4d0b0;"/>
    <path clip-path="url(#p22a6e7060f)" d="M 654.463885 233.55355 
L 656.472053 233.55355 
L 656.472053 60.633352 
L 654.463885 60.633352 
z
" style="fill:#f0c095;"/>
    <path clip-path="url(#p22a6e7060f)" d="M 653.4598 233.274637 
L 657.476137 233.274637 
L 657.476137 70.04999 
L 653.4598 70.04999 
z
" style="fill:#ecb07b;"/>
    <path clip-path="url(#p22a6e7060f)" d="M 651.451632 232.476464 
L 659.484306 232.476464 
L 659.484306 113.652271 
L 651.451632 113.652271 
z
" style="fill:#e8a060;"/>
    <path clip-path="url(#p22a6e7060f)" d="M 647.435295 229.886628 
L 663.500642 229.886628 
L 663.500642 137.063636 
L 647.435295 137.063636 
z
" style="fill:#e59046;"/>
    <path clip-path="url(#p22a6e7060f)" d="M 639.402622 223.43094 
L 671.533316 223.43094 
L 671.533316 174.258804 
L 639.402622 174.258804 
z
" style="fill:#e1812c;"/>
   </g>
   <g id="PathCollection_15">
    <g clip-path="url(#p22a6e7060f)">
     <use style="fill:#3a923a;stroke:#3a923a;" x="695.631337" xlink:href="#md9b22ed233" y="236.500398"/>
    </g>
   </g>
   <g id="PatchCollection_15">
    <path clip-path="url(#p22a6e7060f)" d="M 695.568582 236.445136 
L 695.694092 236.445136 
L 695.694092 60.633352 
L 695.568582 60.633352 
z
" style="fill:#ffffff;"/>
    <path clip-path="url(#p22a6e7060f)" d="M 695.505826 236.389874 
L 695.756847 236.389874 
L 695.756847 60.633352 
L 695.505826 60.633352 
z
" style="fill:#e6f1e6;"/>
    <path clip-path="url(#p22a6e7060f)" d="M 695.380316 236.27935 
L 695.882358 236.27935 
L 695.882358 60.633352 
L 695.380316 60.633352 
z
" style="fill:#cee4ce;"/>
    <path clip-path="url(#p22a6e7060f)" d="M 695.129295 236.058302 
L 696.133379 236.058302 
L 696.133379 60.633352 
L 695.129295 60.633352 
z
" style="fill:#b5d6b5;"/>
    <path clip-path="url(#p22a6e7060f)" d="M 694.627253 235.605055 
L 696.635421 235.605055 
L 696.635421 61.073442 
L 694.627253 61.073442 
z
" style="fill:#9cc89c;"/>
    <path clip-path="url(#p22a6e7060f)" d="M 693.623168 234.399917 
L 697.639505 234.399917 
L 697.639505 76.448555 
L 693.623168 76.448555 
z
" style="fill:#83bb83;"/>
    <path clip-path="url(#p22a6e7060f)" d="M 691.615 233.792484 
L 699.647674 233.792484 
L 699.647674 111.683418 
L 691.615 111.683418 
z
" style="fill:#6bad6b;"/>
    <path clip-path="url(#p22a6e7060f)" d="M 687.598663 232.951126 
L 703.66401 232.951126 
L 703.66401 160.741894 
L 687.598663 160.741894 
z
" style="fill:#529f52;"/>
    <path clip-path="url(#p22a6e7060f)" d="M 679.56599 230.359296 
L 711.696684 230.359296 
L 711.696684 183.587062 
L 679.56599 183.587062 
z
" style="fill:#3a923a;"/>
   </g>
   <g id="PathCollection_16">
    <g clip-path="url(#p22a6e7060f)">
     <use style="fill:#c03d3e;stroke:#c03d3e;" x="735.794705" xlink:href="#m060b68148b" y="235.061051"/>
    </g>
   </g>
   <g id="PatchCollection_16">
    <path clip-path="url(#p22a6e7060f)" d="M 735.73195 234.97561 
L 735.85746 234.97561 
L 735.85746 60.633352 
L 735.73195 60.633352 
z
" style="fill:#ffffff;"/>
    <path clip-path="url(#p22a6e7060f)" d="M 735.669194 234.890168 
L 735.920215 234.890168 
L 735.920215 60.633352 
L 735.669194 60.633352 
z
" style="fill:#f7e7e7;"/>
    <path clip-path="url(#p22a6e7060f)" d="M 735.543684 234.719284 
L 736.045726 234.719284 
L 736.045726 60.633352 
L 735.543684 60.633352 
z
" style="fill:#efcecf;"/>
    <path clip-path="url(#p22a6e7060f)" d="M 735.292663 234.377517 
L 736.296747 234.377517 
L 736.296747 60.633352 
L 735.292663 60.633352 
z
" style="fill:#e7b6b6;"/>
    <path clip-path="url(#p22a6e7060f)" d="M 734.790621 233.735239 
L 736.798789 233.735239 
L 736.798789 60.633352 
L 734.790621 60.633352 
z
" style="fill:#df9e9e;"/>
    <path clip-path="url(#p22a6e7060f)" d="M 733.786536 232.94693 
L 737.802873 232.94693 
L 737.802873 64.698152 
L 733.786536 64.698152 
z
" style="fill:#d78586;"/>
    <path clip-path="url(#p22a6e7060f)" d="M 731.778368 230.937552 
L 739.811042 230.937552 
L 739.811042 111.451975 
L 731.778368 111.451975 
z
" style="fill:#d06d6e;"/>
    <path clip-path="url(#p22a6e7060f)" d="M 727.762031 227.377096 
L 743.827378 227.377096 
L 743.827378 142.935276 
L 727.762031 142.935276 
z
" style="fill:#c85555;"/>
    <path clip-path="url(#p22a6e7060f)" d="M 719.729358 213.555243 
L 751.860052 213.555243 
L 751.860052 161.889064 
L 719.729358 161.889064 
z
" style="fill:#c03d3e;"/>
   </g>
   <g id="PathCollection_17">
    <g clip-path="url(#p22a6e7060f)">
     <use style="fill:#9372b2;stroke:#9372b2;" x="775.958073" xlink:href="#m3827beccf5" y="232.833664"/>
    </g>
   </g>
   <g id="PatchCollection_17">
    <path clip-path="url(#p22a6e7060f)" d="M 775.832562 232.219116 
L 776.083583 232.219116 
L 776.083583 60.633352 
L 775.832562 60.633352 
z
" style="fill:#ffffff;"/>
    <path clip-path="url(#p22a6e7060f)" d="M 775.707052 231.604567 
L 776.209094 231.604567 
L 776.209094 60.633352 
L 775.707052 60.633352 
z
" style="fill:#f0ebf4;"/>
    <path clip-path="url(#p22a6e7060f)" d="M 775.456031 230.37547 
L 776.460115 230.37547 
L 776.460115 60.633352 
L 775.456031 60.633352 
z
" style="fill:#e0d7e9;"/>
    <path clip-path="url(#p22a6e7060f)" d="M 774.953989 228.435362 
L 776.962157 228.435362 
L 776.962157 60.633352 
L 774.953989 60.633352 
z
" style="fill:#d1c3de;"/>
    <path clip-path="url(#p22a6e7060f)" d="M 773.949905 226.192167 
L 777.966241 226.192167 
L 777.966241 60.633352 
L 773.949905 60.633352 
z
" style="fill:#c1aed3;"/>
    <path clip-path="url(#p22a6e7060f)" d="M 771.941736 213.936197 
L 779.97441 213.936197 
L 779.97441 60.633352 
L 771.941736 60.633352 
z
" style="fill:#b29ac8;"/>
    <path clip-path="url(#p22a6e7060f)" d="M 767.925399 183.584968 
L 783.990747 183.584968 
L 783.990747 60.633352 
L 767.925399 60.633352 
z
" style="fill:#a286bd;"/>
    <path clip-path="url(#p22a6e7060f)" d="M 759.892726 76.143903 
L 792.02342 76.143903 
L 792.02342 60.633352 
L 759.892726 60.633352 
z
" style="fill:#9372b2;"/>
   </g>
   <g id="PathCollection_18">
    <g clip-path="url(#p22a6e7060f)">
     <use style="fill:#845b53;stroke:#845b53;" x="816.121441" xlink:href="#m8158dc7fa3" y="233.811159"/>
    </g>
   </g>
   <g id="PatchCollection_18">
    <path clip-path="url(#p22a6e7060f)" d="M 816.058686 233.780737 
L 816.184196 233.780737 
L 816.184196 60.633352 
L 816.058686 60.633352 
z
" style="fill:#ffffff;"/>
    <path clip-path="url(#p22a6e7060f)" d="M 815.99593 233.750315 
L 816.246951 233.750315 
L 816.246951 60.633352 
L 815.99593 60.633352 
z
" style="fill:#f0eae9;"/>
    <path clip-path="url(#p22a6e7060f)" d="M 815.87042 233.689471 
L 816.372462 233.689471 
L 816.372462 60.633352 
L 815.87042 60.633352 
z
" style="fill:#e0d6d4;"/>
    <path clip-path="url(#p22a6e7060f)" d="M 815.619399 233.567782 
L 816.623483 233.567782 
L 816.623483 60.633352 
L 815.619399 60.633352 
z
" style="fill:#d1c1be;"/>
    <path clip-path="url(#p22a6e7060f)" d="M 815.117357 233.320177 
L 817.125525 233.320177 
L 817.125525 60.633352 
L 815.117357 60.633352 
z
" style="fill:#c1ada9;"/>
    <path clip-path="url(#p22a6e7060f)" d="M 814.113273 232.675558 
L 818.129609 232.675558 
L 818.129609 60.633352 
L 814.113273 60.633352 
z
" style="fill:#b29893;"/>
    <path clip-path="url(#p22a6e7060f)" d="M 812.105104 230.8636 
L 820.137778 230.8636 
L 820.137778 60.633352 
L 812.105104 60.633352 
z
" style="fill:#a2847d;"/>
    <path clip-path="url(#p22a6e7060f)" d="M 808.088767 224.623446 
L 824.154115 224.623446 
L 824.154115 60.633352 
L 808.088767 60.633352 
z
" style="fill:#936f68;"/>
    <path clip-path="url(#p22a6e7060f)" d="M 800.056094 205.223514 
L 832.186788 205.223514 
L 832.186788 60.633352 
L 800.056094 60.633352 
z
" style="fill:#845b53;"/>
   </g>
   <g id="matplotlib.axis_5">
    <g id="xtick_13">
     <g id="line2d_37">
      <g>
       <use style="stroke:#000000;stroke-width:0.8;" x="615.304601" xlink:href="#m14171396f7" y="245.29375"/>
      </g>
     </g>
     <g id="text_24">
      <!-- ExtraTrees -->
      <g transform="translate(598.718527 294.741149)rotate(-45)scale(0.1 -0.1)">
       <use xlink:href="#DejaVuSans-69"/>
       <use x="63.183594" xlink:href="#DejaVuSans-120"/>
       <use x="122.363281" xlink:href="#DejaVuSans-116"/>
       <use x="161.572266" xlink:href="#DejaVuSans-114"/>
       <use x="202.685547" xlink:href="#DejaVuSans-97"/>
       <use x="263.964844" xlink:href="#DejaVuSans-84"/>
       <use x="310.298828" xlink:href="#DejaVuSans-114"/>
       <use x="349.162109" xlink:href="#DejaVuSans-101"/>
       <use x="410.685547" xlink:href="#DejaVuSans-101"/>
       <use x="472.208984" xlink:href="#DejaVuSans-115"/>
      </g>
     </g>
    </g>
    <g id="xtick_14">
     <g id="line2d_38">
      <g>
       <use style="stroke:#000000;stroke-width:0.8;" x="655.467969" xlink:href="#m14171396f7" y="245.29375"/>
      </g>
     </g>
     <g id="text_25">
      <!-- FeatBoost -->
      <g transform="translate(639.871845 292.76125)rotate(-45)scale(0.1 -0.1)">
       <use xlink:href="#DejaVuSans-70"/>
       <use x="52.019531" xlink:href="#DejaVuSans-101"/>
       <use x="113.542969" xlink:href="#DejaVuSans-97"/>
       <use x="174.822266" xlink:href="#DejaVuSans-116"/>
       <use x="214.03125" xlink:href="#DejaVuSans-66"/>
       <use x="282.634766" xlink:href="#DejaVuSans-111"/>
       <use x="343.816406" xlink:href="#DejaVuSans-111"/>
       <use x="404.998047" xlink:href="#DejaVuSans-115"/>
       <use x="457.097656" xlink:href="#DejaVuSans-116"/>
      </g>
     </g>
    </g>
    <g id="xtick_15">
     <g id="line2d_39">
      <g>
       <use style="stroke:#000000;stroke-width:0.8;" x="695.631337" xlink:href="#m14171396f7" y="245.29375"/>
      </g>
     </g>
     <g id="text_26">
      <!-- FeatBoost w/1-NN -->
      <g transform="translate(666.014059 320.803558)rotate(-45)scale(0.1 -0.1)">
       <use xlink:href="#DejaVuSans-70"/>
       <use x="52.019531" xlink:href="#DejaVuSans-101"/>
       <use x="113.542969" xlink:href="#DejaVuSans-97"/>
       <use x="174.822266" xlink:href="#DejaVuSans-116"/>
       <use x="214.03125" xlink:href="#DejaVuSans-66"/>
       <use x="282.634766" xlink:href="#DejaVuSans-111"/>
       <use x="343.816406" xlink:href="#DejaVuSans-111"/>
       <use x="404.998047" xlink:href="#DejaVuSans-115"/>
       <use x="457.097656" xlink:href="#DejaVuSans-116"/>
       <use x="496.306641" xlink:href="#DejaVuSans-32"/>
       <use x="528.09375" xlink:href="#DejaVuSans-119"/>
       <use x="609.880859" xlink:href="#DejaVuSans-47"/>
       <use x="643.572266" xlink:href="#DejaVuSans-49"/>
       <use x="707.195312" xlink:href="#DejaVuSans-45"/>
       <use x="743.279297" xlink:href="#DejaVuSans-78"/>
       <use x="818.083984" xlink:href="#DejaVuSans-78"/>
      </g>
     </g>
    </g>
    <g id="xtick_16">
     <g id="line2d_40">
      <g>
       <use style="stroke:#000000;stroke-width:0.8;" x="735.794705" xlink:href="#m14171396f7" y="245.29375"/>
      </g>
     </g>
     <g id="text_27">
      <!-- FeatBoost Deep -->
      <g transform="translate(709.757155 313.644102)rotate(-45)scale(0.1 -0.1)">
       <use xlink:href="#DejaVuSans-70"/>
       <use x="52.019531" xlink:href="#DejaVuSans-101"/>
       <use x="113.542969" xlink:href="#DejaVuSans-97"/>
       <use x="174.822266" xlink:href="#DejaVuSans-116"/>
       <use x="214.03125" xlink:href="#DejaVuSans-66"/>
       <use x="282.634766" xlink:href="#DejaVuSans-111"/>
       <use x="343.816406" xlink:href="#DejaVuSans-111"/>
       <use x="404.998047" xlink:href="#DejaVuSans-115"/>
       <use x="457.097656" xlink:href="#DejaVuSans-116"/>
       <use x="496.306641" xlink:href="#DejaVuSans-32"/>
       <use x="528.09375" xlink:href="#DejaVuSans-68"/>
       <use x="605.095703" xlink:href="#DejaVuSans-101"/>
       <use x="666.619141" xlink:href="#DejaVuSans-101"/>
       <use x="728.142578" xlink:href="#DejaVuSans-112"/>
      </g>
     </g>
    </g>
    <g id="xtick_17">
     <g id="line2d_41">
      <g>
       <use style="stroke:#000000;stroke-width:0.8;" x="775.958073" xlink:href="#m14171396f7" y="245.29375"/>
      </g>
     </g>
     <g id="text_28">
      <!-- MultiSURF -->
      <g transform="translate(759.945419 293.59431)rotate(-45)scale(0.1 -0.1)">
       <use xlink:href="#DejaVuSans-77"/>
       <use x="86.279297" xlink:href="#DejaVuSans-117"/>
       <use x="149.658203" xlink:href="#DejaVuSans-108"/>
       <use x="177.441406" xlink:href="#DejaVuSans-116"/>
       <use x="216.650391" xlink:href="#DejaVuSans-105"/>
       <use x="244.433594" xlink:href="#DejaVuSans-83"/>
       <use x="307.910156" xlink:href="#DejaVuSans-85"/>
       <use x="381.103516" xlink:href="#DejaVuSans-82"/>
       <use x="450.585938" xlink:href="#DejaVuSans-70"/>
      </g>
     </g>
    </g>
    <g id="xtick_18">
     <g id="line2d_42">
      <g>
       <use style="stroke:#000000;stroke-width:0.8;" x="816.121441" xlink:href="#m14171396f7" y="245.29375"/>
      </g>
     </g>
     <g id="text_29">
      <!-- RFE w/XGBoost -->
      <g transform="translate(791.00092 311.810044)rotate(-45)scale(0.1 -0.1)">
       <use xlink:href="#DejaVuSans-82"/>
       <use x="69.482422" xlink:href="#DejaVuSans-70"/>
       <use x="127.001953" xlink:href="#DejaVuSans-69"/>
       <use x="190.185547" xlink:href="#DejaVuSans-32"/>
       <use x="221.972656" xlink:href="#DejaVuSans-119"/>
       <use x="303.759766" xlink:href="#DejaVuSans-47"/>
       <use x="337.451172" xlink:href="#DejaVuSans-88"/>
       <use x="405.957031" xlink:href="#DejaVuSans-71"/>
       <use x="483.447266" xlink:href="#DejaVuSans-66"/>
       <use x="552.050781" xlink:href="#DejaVuSans-111"/>
       <use x="613.232422" xlink:href="#DejaVuSans-111"/>
       <use x="674.414062" xlink:href="#DejaVuSans-115"/>
       <use x="726.513672" xlink:href="#DejaVuSans-116"/>
      </g>
     </g>
    </g>
    <g id="text_30">
     <!-- ranking_method -->
     <g transform="translate(674.988021 333.872557)scale(0.1 -0.1)">
      <use xlink:href="#DejaVuSans-114"/>
      <use x="41.113281" xlink:href="#DejaVuSans-97"/>
      <use x="102.392578" xlink:href="#DejaVuSans-110"/>
      <use x="165.771484" xlink:href="#DejaVuSans-107"/>
      <use x="223.681641" xlink:href="#DejaVuSans-105"/>
      <use x="251.464844" xlink:href="#DejaVuSans-110"/>
      <use x="314.84375" xlink:href="#DejaVuSans-103"/>
      <use x="378.320312" xlink:href="#DejaVuSans-95"/>
      <use x="428.320312" xlink:href="#DejaVuSans-109"/>
      <use x="525.732422" xlink:href="#DejaVuSans-101"/>
      <use x="587.255859" xlink:href="#DejaVuSans-116"/>
      <use x="626.464844" xlink:href="#DejaVuSans-104"/>
      <use x="689.84375" xlink:href="#DejaVuSans-111"/>
      <use x="751.025391" xlink:href="#DejaVuSans-100"/>
     </g>
    </g>
   </g>
   <g id="matplotlib.axis_6">
    <g id="ytick_13">
     <g id="line2d_43">
      <g>
       <use style="stroke:#000000;stroke-width:0.8;" x="595.222917" xlink:href="#mf0b0c62108" y="233.793842"/>
      </g>
     </g>
    </g>
    <g id="ytick_14">
     <g id="line2d_44">
      <g>
       <use style="stroke:#000000;stroke-width:0.8;" x="595.222917" xlink:href="#mf0b0c62108" y="199.161744"/>
      </g>
     </g>
    </g>
    <g id="ytick_15">
     <g id="line2d_45">
      <g>
       <use style="stroke:#000000;stroke-width:0.8;" x="595.222917" xlink:href="#mf0b0c62108" y="164.529646"/>
      </g>
     </g>
    </g>
    <g id="ytick_16">
     <g id="line2d_46">
      <g>
       <use style="stroke:#000000;stroke-width:0.8;" x="595.222917" xlink:href="#mf0b0c62108" y="129.897548"/>
      </g>
     </g>
    </g>
    <g id="ytick_17">
     <g id="line2d_47">
      <g>
       <use style="stroke:#000000;stroke-width:0.8;" x="595.222917" xlink:href="#mf0b0c62108" y="95.26545"/>
      </g>
     </g>
    </g>
    <g id="ytick_18">
     <g id="line2d_48">
      <g>
       <use style="stroke:#000000;stroke-width:0.8;" x="595.222917" xlink:href="#mf0b0c62108" y="60.633352"/>
      </g>
     </g>
    </g>
   </g>
   <g id="line2d_49">
    <path clip-path="url(#p22a6e7060f)" d="M 599.239253 111.521902 
L 631.369948 111.521902 
" style="fill:none;stroke:#262626;stroke-linecap:square;stroke-opacity:0.45;stroke-width:1.5;"/>
   </g>
   <g id="line2d_50">
    <path clip-path="url(#p22a6e7060f)" d="M 639.402622 199.8883 
L 671.533316 199.8883 
" style="fill:none;stroke:#262626;stroke-linecap:square;stroke-opacity:0.45;stroke-width:1.5;"/>
   </g>
   <g id="line2d_51">
    <path clip-path="url(#p22a6e7060f)" d="M 679.56599 207.979589 
L 711.696684 207.979589 
" style="fill:none;stroke:#262626;stroke-linecap:square;stroke-opacity:0.45;stroke-width:1.5;"/>
   </g>
   <g id="line2d_52">
    <path clip-path="url(#p22a6e7060f)" d="M 719.729358 189.681483 
L 751.860052 189.681483 
" style="fill:none;stroke:#262626;stroke-linecap:square;stroke-opacity:0.45;stroke-width:1.5;"/>
   </g>
   <g id="line2d_53">
    <path clip-path="url(#p22a6e7060f)" d="M 759.892726 60.633352 
L 792.02342 60.633352 
" style="fill:none;stroke:#262626;stroke-linecap:square;stroke-opacity:0.45;stroke-width:1.5;"/>
   </g>
   <g id="line2d_54">
    <path clip-path="url(#p22a6e7060f)" d="M 800.056094 139.057487 
L 832.186788 139.057487 
" style="fill:none;stroke:#262626;stroke-linecap:square;stroke-opacity:0.45;stroke-width:1.5;"/>
   </g>
   <g id="patch_9">
    <path d="M 595.222917 245.29375 
L 595.222917 51.84 
" style="fill:none;stroke:#000000;stroke-linecap:square;stroke-linejoin:miter;stroke-width:0.8;"/>
   </g>
   <g id="patch_10">
    <path d="M 595.222917 245.29375 
L 836.203125 245.29375 
" style="fill:none;stroke:#000000;stroke-linecap:square;stroke-linejoin:miter;stroke-width:0.8;"/>
   </g>
   <g id="text_31">
    <!-- stability -->
    <defs>
     <path d="M 48.6875 27.296875 
Q 48.6875 37.203125 44.609375 42.84375 
Q 40.53125 48.484375 33.40625 48.484375 
Q 26.265625 48.484375 22.1875 42.84375 
Q 18.109375 37.203125 18.109375 27.296875 
Q 18.109375 17.390625 22.1875 11.75 
Q 26.265625 6.109375 33.40625 6.109375 
Q 40.53125 6.109375 44.609375 11.75 
Q 48.6875 17.390625 48.6875 27.296875 
z
M 18.109375 46.390625 
Q 20.953125 51.265625 25.265625 53.625 
Q 29.59375 56 35.59375 56 
Q 45.5625 56 51.78125 48.09375 
Q 58.015625 40.1875 58.015625 27.296875 
Q 58.015625 14.40625 51.78125 6.484375 
Q 45.5625 -1.421875 35.59375 -1.421875 
Q 29.59375 -1.421875 25.265625 0.953125 
Q 20.953125 3.328125 18.109375 8.203125 
L 18.109375 0 
L 9.078125 0 
L 9.078125 75.984375 
L 18.109375 75.984375 
z
" id="DejaVuSans-98"/>
     <path d="M 32.171875 -5.078125 
Q 28.375 -14.84375 24.75 -17.8125 
Q 21.140625 -20.796875 15.09375 -20.796875 
L 7.90625 -20.796875 
L 7.90625 -13.28125 
L 13.1875 -13.28125 
Q 16.890625 -13.28125 18.9375 -11.515625 
Q 21 -9.765625 23.484375 -3.21875 
L 25.09375 0.875 
L 2.984375 54.6875 
L 12.5 54.6875 
L 29.59375 11.921875 
L 46.6875 54.6875 
L 56.203125 54.6875 
z
" id="DejaVuSans-121"/>
    </defs>
    <g transform="translate(695.823177 45.84)scale(0.1 -0.1)">
     <use xlink:href="#DejaVuSans-115"/>
     <use x="52.099609" xlink:href="#DejaVuSans-116"/>
     <use x="91.308594" xlink:href="#DejaVuSans-97"/>
     <use x="152.587891" xlink:href="#DejaVuSans-98"/>
     <use x="216.064453" xlink:href="#DejaVuSans-105"/>
     <use x="243.847656" xlink:href="#DejaVuSans-108"/>
     <use x="271.630859" xlink:href="#DejaVuSans-105"/>
     <use x="299.414062" xlink:href="#DejaVuSans-116"/>
     <use x="338.623047" xlink:href="#DejaVuSans-121"/>
    </g>
   </g>
  </g>
  <g id="text_32">
   <!-- Distributions for all datasets -->
   <defs>
    <path d="M 37.109375 75.984375 
L 37.109375 68.5 
L 28.515625 68.5 
Q 23.6875 68.5 21.796875 66.546875 
Q 19.921875 64.59375 19.921875 59.515625 
L 19.921875 54.6875 
L 34.71875 54.6875 
L 34.71875 47.703125 
L 19.921875 47.703125 
L 19.921875 0 
L 10.890625 0 
L 10.890625 47.703125 
L 2.296875 47.703125 
L 2.296875 54.6875 
L 10.890625 54.6875 
L 10.890625 58.5 
Q 10.890625 67.625 15.140625 71.796875 
Q 19.390625 75.984375 28.609375 75.984375 
z
" id="DejaVuSans-102"/>
   </defs>
   <g transform="translate(361.233594 28.8)scale(0.1 -0.1)">
    <use xlink:href="#DejaVuSans-68"/>
    <use x="77.001953" xlink:href="#DejaVuSans-105"/>
    <use x="104.785156" xlink:href="#DejaVuSans-115"/>
    <use x="156.884766" xlink:href="#DejaVuSans-116"/>
    <use x="196.09375" xlink:href="#DejaVuSans-114"/>
    <use x="237.207031" xlink:href="#DejaVuSans-105"/>
    <use x="264.990234" xlink:href="#DejaVuSans-98"/>
    <use x="328.466797" xlink:href="#DejaVuSans-117"/>
    <use x="391.845703" xlink:href="#DejaVuSans-116"/>
    <use x="431.054688" xlink:href="#DejaVuSans-105"/>
    <use x="458.837891" xlink:href="#DejaVuSans-111"/>
    <use x="520.019531" xlink:href="#DejaVuSans-110"/>
    <use x="583.398438" xlink:href="#DejaVuSans-115"/>
    <use x="635.498047" xlink:href="#DejaVuSans-32"/>
    <use x="667.285156" xlink:href="#DejaVuSans-102"/>
    <use x="702.490234" xlink:href="#DejaVuSans-111"/>
    <use x="763.671875" xlink:href="#DejaVuSans-114"/>
    <use x="804.785156" xlink:href="#DejaVuSans-32"/>
    <use x="836.572266" xlink:href="#DejaVuSans-97"/>
    <use x="897.851562" xlink:href="#DejaVuSans-108"/>
    <use x="925.634766" xlink:href="#DejaVuSans-108"/>
    <use x="953.417969" xlink:href="#DejaVuSans-32"/>
    <use x="985.205078" xlink:href="#DejaVuSans-100"/>
    <use x="1048.681641" xlink:href="#DejaVuSans-97"/>
    <use x="1109.960938" xlink:href="#DejaVuSans-116"/>
    <use x="1149.169922" xlink:href="#DejaVuSans-97"/>
    <use x="1210.449219" xlink:href="#DejaVuSans-115"/>
    <use x="1262.548828" xlink:href="#DejaVuSans-101"/>
    <use x="1324.072266" xlink:href="#DejaVuSans-116"/>
    <use x="1363.28125" xlink:href="#DejaVuSans-115"/>
   </g>
  </g>
  <g id="text_33">
   <!-- Aggregated metrics per ranking method -->
   <defs>
    <path d="M 48.78125 52.59375 
L 48.78125 44.1875 
Q 44.96875 46.296875 41.140625 47.34375 
Q 37.3125 48.390625 33.40625 48.390625 
Q 24.65625 48.390625 19.8125 42.84375 
Q 14.984375 37.3125 14.984375 27.296875 
Q 14.984375 17.28125 19.8125 11.734375 
Q 24.65625 6.203125 33.40625 6.203125 
Q 37.3125 6.203125 41.140625 7.25 
Q 44.96875 8.296875 48.78125 10.40625 
L 48.78125 2.09375 
Q 45.015625 0.34375 40.984375 -0.53125 
Q 36.96875 -1.421875 32.421875 -1.421875 
Q 20.0625 -1.421875 12.78125 6.34375 
Q 5.515625 14.109375 5.515625 27.296875 
Q 5.515625 40.671875 12.859375 48.328125 
Q 20.21875 56 33.015625 56 
Q 37.15625 56 41.109375 55.140625 
Q 45.0625 54.296875 48.78125 52.59375 
z
" id="DejaVuSans-99"/>
   </defs>
   <g transform="translate(270.67125 17.9175)scale(0.16 -0.16)">
    <use xlink:href="#DejaVuSans-65"/>
    <use x="68.408203" xlink:href="#DejaVuSans-103"/>
    <use x="131.884766" xlink:href="#DejaVuSans-103"/>
    <use x="195.361328" xlink:href="#DejaVuSans-114"/>
    <use x="234.224609" xlink:href="#DejaVuSans-101"/>
    <use x="295.748047" xlink:href="#DejaVuSans-103"/>
    <use x="359.224609" xlink:href="#DejaVuSans-97"/>
    <use x="420.503906" xlink:href="#DejaVuSans-116"/>
    <use x="459.712891" xlink:href="#DejaVuSans-101"/>
    <use x="521.236328" xlink:href="#DejaVuSans-100"/>
    <use x="584.712891" xlink:href="#DejaVuSans-32"/>
    <use x="616.5" xlink:href="#DejaVuSans-109"/>
    <use x="713.912109" xlink:href="#DejaVuSans-101"/>
    <use x="775.435547" xlink:href="#DejaVuSans-116"/>
    <use x="814.644531" xlink:href="#DejaVuSans-114"/>
    <use x="855.757812" xlink:href="#DejaVuSans-105"/>
    <use x="883.541016" xlink:href="#DejaVuSans-99"/>
    <use x="938.521484" xlink:href="#DejaVuSans-115"/>
    <use x="990.621094" xlink:href="#DejaVuSans-32"/>
    <use x="1022.408203" xlink:href="#DejaVuSans-112"/>
    <use x="1085.884766" xlink:href="#DejaVuSans-101"/>
    <use x="1147.408203" xlink:href="#DejaVuSans-114"/>
    <use x="1188.521484" xlink:href="#DejaVuSans-32"/>
    <use x="1220.308594" xlink:href="#DejaVuSans-114"/>
    <use x="1261.421875" xlink:href="#DejaVuSans-97"/>
    <use x="1322.701172" xlink:href="#DejaVuSans-110"/>
    <use x="1386.080078" xlink:href="#DejaVuSans-107"/>
    <use x="1443.990234" xlink:href="#DejaVuSans-105"/>
    <use x="1471.773438" xlink:href="#DejaVuSans-110"/>
    <use x="1535.152344" xlink:href="#DejaVuSans-103"/>
    <use x="1598.628906" xlink:href="#DejaVuSans-32"/>
    <use x="1630.416016" xlink:href="#DejaVuSans-109"/>
    <use x="1727.828125" xlink:href="#DejaVuSans-101"/>
    <use x="1789.351562" xlink:href="#DejaVuSans-116"/>
    <use x="1828.560547" xlink:href="#DejaVuSans-104"/>
    <use x="1891.939453" xlink:href="#DejaVuSans-111"/>
    <use x="1953.121094" xlink:href="#DejaVuSans-100"/>
   </g>
  </g>
 </g>
 <defs>
  <clipPath id="p27564bb333">
   <rect height="193.45375" width="240.980208" x="47.675" y="51.84"/>
  </clipPath>
  <clipPath id="p630f1aa1cd">
   <rect height="193.45375" width="240.980208" x="321.448958" y="51.84"/>
  </clipPath>
  <clipPath id="p22a6e7060f">
   <rect height="193.45375" width="240.980208" x="595.222917" y="51.84"/>
  </clipPath>
 </defs>
</svg>
