<?xml version="1.0" encoding="utf-8" standalone="no"?>
<!DOCTYPE svg PUBLIC "-//W3C//DTD SVG 1.1//EN"
  "http://www.w3.org/Graphics/SVG/1.1/DTD/svg11.dtd">
<!-- Created with matplotlib (https://matplotlib.org/) -->
<svg height="252pt" version="1.1" viewBox="0 0 630 252" width="630pt" xmlns="http://www.w3.org/2000/svg" xmlns:xlink="http://www.w3.org/1999/xlink">
 <defs>
  <style type="text/css">
*{stroke-linecap:butt;stroke-linejoin:round;}
  </style>
 </defs>
 <g id="figure_1">
  <g id="patch_1">
   <path d="M 0 252 
L 630 252 
L 630 0 
L 0 0 
z
" style="fill:#ffffff;"/>
  </g>
  <g id="axes_1">
   <g id="patch_2">
    <path d="M 47.675 210.2 
L 326.2875 210.2 
L 326.2875 55.44 
L 47.675 55.44 
z
" style="fill:#ffffff;"/>
   </g>
   <g id="matplotlib.axis_1">
    <g id="xtick_1">
     <g id="line2d_1">
      <defs>
       <path d="M 0 0 
L 0 3.5 
" id="m44c162292c" style="stroke:#000000;stroke-width:0.8;"/>
      </defs>
      <g>
       <use style="stroke:#000000;stroke-width:0.8;" x="60.339205" xlink:href="#m44c162292c" y="210.2"/>
      </g>
     </g>
     <g id="text_1">
      <!-- 0.0 -->
      <defs>
       <path d="M 31.78125 66.40625 
Q 24.171875 66.40625 20.328125 58.90625 
Q 16.5 51.421875 16.5 36.375 
Q 16.5 21.390625 20.328125 13.890625 
Q 24.171875 6.390625 31.78125 6.390625 
Q 39.453125 6.390625 43.28125 13.890625 
Q 47.125 21.390625 47.125 36.375 
Q 47.125 51.421875 43.28125 58.90625 
Q 39.453125 66.40625 31.78125 66.40625 
z
M 31.78125 74.21875 
Q 44.046875 74.21875 50.515625 64.515625 
Q 56.984375 54.828125 56.984375 36.375 
Q 56.984375 17.96875 50.515625 8.265625 
Q 44.046875 -1.421875 31.78125 -1.421875 
Q 19.53125 -1.421875 13.0625 8.265625 
Q 6.59375 17.96875 6.59375 36.375 
Q 6.59375 54.828125 13.0625 64.515625 
Q 19.53125 74.21875 31.78125 74.21875 
z
" id="DejaVuSans-48"/>
       <path d="M 10.6875 12.40625 
L 21 12.40625 
L 21 0 
L 10.6875 0 
z
" id="DejaVuSans-46"/>
      </defs>
      <g transform="translate(52.387642 224.798437)scale(0.1 -0.1)">
       <use xlink:href="#DejaVuSans-48"/>
       <use x="63.623047" xlink:href="#DejaVuSans-46"/>
       <use x="95.410156" xlink:href="#DejaVuSans-48"/>
      </g>
     </g>
    </g>
    <g id="xtick_2">
     <g id="line2d_2">
      <g>
       <use style="stroke:#000000;stroke-width:0.8;" x="110.996023" xlink:href="#m44c162292c" y="210.2"/>
      </g>
     </g>
     <g id="text_2">
      <!-- 0.2 -->
      <defs>
       <path d="M 19.1875 8.296875 
L 53.609375 8.296875 
L 53.609375 0 
L 7.328125 0 
L 7.328125 8.296875 
Q 12.9375 14.109375 22.625 23.890625 
Q 32.328125 33.6875 34.8125 36.53125 
Q 39.546875 41.84375 41.421875 45.53125 
Q 43.3125 49.21875 43.3125 52.78125 
Q 43.3125 58.59375 39.234375 62.25 
Q 35.15625 65.921875 28.609375 65.921875 
Q 23.96875 65.921875 18.8125 64.3125 
Q 13.671875 62.703125 7.8125 59.421875 
L 7.8125 69.390625 
Q 13.765625 71.78125 18.9375 73 
Q 24.125 74.21875 28.421875 74.21875 
Q 39.75 74.21875 46.484375 68.546875 
Q 53.21875 62.890625 53.21875 53.421875 
Q 53.21875 48.921875 51.53125 44.890625 
Q 49.859375 40.875 45.40625 35.40625 
Q 44.1875 33.984375 37.640625 27.21875 
Q 31.109375 20.453125 19.1875 8.296875 
z
" id="DejaVuSans-50"/>
      </defs>
      <g transform="translate(103.04446 224.798437)scale(0.1 -0.1)">
       <use xlink:href="#DejaVuSans-48"/>
       <use x="63.623047" xlink:href="#DejaVuSans-46"/>
       <use x="95.410156" xlink:href="#DejaVuSans-50"/>
      </g>
     </g>
    </g>
    <g id="xtick_3">
     <g id="line2d_3">
      <g>
       <use style="stroke:#000000;stroke-width:0.8;" x="161.652841" xlink:href="#m44c162292c" y="210.2"/>
      </g>
     </g>
     <g id="text_3">
      <!-- 0.4 -->
      <defs>
       <path d="M 37.796875 64.3125 
L 12.890625 25.390625 
L 37.796875 25.390625 
z
M 35.203125 72.90625 
L 47.609375 72.90625 
L 47.609375 25.390625 
L 58.015625 25.390625 
L 58.015625 17.1875 
L 47.609375 17.1875 
L 47.609375 0 
L 37.796875 0 
L 37.796875 17.1875 
L 4.890625 17.1875 
L 4.890625 26.703125 
z
" id="DejaVuSans-52"/>
      </defs>
      <g transform="translate(153.701278 224.798437)scale(0.1 -0.1)">
       <use xlink:href="#DejaVuSans-48"/>
       <use x="63.623047" xlink:href="#DejaVuSans-46"/>
       <use x="95.410156" xlink:href="#DejaVuSans-52"/>
      </g>
     </g>
    </g>
    <g id="xtick_4">
     <g id="line2d_4">
      <g>
       <use style="stroke:#000000;stroke-width:0.8;" x="212.309659" xlink:href="#m44c162292c" y="210.2"/>
      </g>
     </g>
     <g id="text_4">
      <!-- 0.6 -->
      <defs>
       <path d="M 33.015625 40.375 
Q 26.375 40.375 22.484375 35.828125 
Q 18.609375 31.296875 18.609375 23.390625 
Q 18.609375 15.53125 22.484375 10.953125 
Q 26.375 6.390625 33.015625 6.390625 
Q 39.65625 6.390625 43.53125 10.953125 
Q 47.40625 15.53125 47.40625 23.390625 
Q 47.40625 31.296875 43.53125 35.828125 
Q 39.65625 40.375 33.015625 40.375 
z
M 52.59375 71.296875 
L 52.59375 62.3125 
Q 48.875 64.0625 45.09375 64.984375 
Q 41.3125 65.921875 37.59375 65.921875 
Q 27.828125 65.921875 22.671875 59.328125 
Q 17.53125 52.734375 16.796875 39.40625 
Q 19.671875 43.65625 24.015625 45.921875 
Q 28.375 48.1875 33.59375 48.1875 
Q 44.578125 48.1875 50.953125 41.515625 
Q 57.328125 34.859375 57.328125 23.390625 
Q 57.328125 12.15625 50.6875 5.359375 
Q 44.046875 -1.421875 33.015625 -1.421875 
Q 20.359375 -1.421875 13.671875 8.265625 
Q 6.984375 17.96875 6.984375 36.375 
Q 6.984375 53.65625 15.1875 63.9375 
Q 23.390625 74.21875 37.203125 74.21875 
Q 40.921875 74.21875 44.703125 73.484375 
Q 48.484375 72.75 52.59375 71.296875 
z
" id="DejaVuSans-54"/>
      </defs>
      <g transform="translate(204.358097 224.798437)scale(0.1 -0.1)">
       <use xlink:href="#DejaVuSans-48"/>
       <use x="63.623047" xlink:href="#DejaVuSans-46"/>
       <use x="95.410156" xlink:href="#DejaVuSans-54"/>
      </g>
     </g>
    </g>
    <g id="xtick_5">
     <g id="line2d_5">
      <g>
       <use style="stroke:#000000;stroke-width:0.8;" x="262.966477" xlink:href="#m44c162292c" y="210.2"/>
      </g>
     </g>
     <g id="text_5">
      <!-- 0.8 -->
      <defs>
       <path d="M 31.78125 34.625 
Q 24.75 34.625 20.71875 30.859375 
Q 16.703125 27.09375 16.703125 20.515625 
Q 16.703125 13.921875 20.71875 10.15625 
Q 24.75 6.390625 31.78125 6.390625 
Q 38.8125 6.390625 42.859375 10.171875 
Q 46.921875 13.96875 46.921875 20.515625 
Q 46.921875 27.09375 42.890625 30.859375 
Q 38.875 34.625 31.78125 34.625 
z
M 21.921875 38.8125 
Q 15.578125 40.375 12.03125 44.71875 
Q 8.5 49.078125 8.5 55.328125 
Q 8.5 64.0625 14.71875 69.140625 
Q 20.953125 74.21875 31.78125 74.21875 
Q 42.671875 74.21875 48.875 69.140625 
Q 55.078125 64.0625 55.078125 55.328125 
Q 55.078125 49.078125 51.53125 44.71875 
Q 48 40.375 41.703125 38.8125 
Q 48.828125 37.15625 52.796875 32.3125 
Q 56.78125 27.484375 56.78125 20.515625 
Q 56.78125 9.90625 50.3125 4.234375 
Q 43.84375 -1.421875 31.78125 -1.421875 
Q 19.734375 -1.421875 13.25 4.234375 
Q 6.78125 9.90625 6.78125 20.515625 
Q 6.78125 27.484375 10.78125 32.3125 
Q 14.796875 37.15625 21.921875 38.8125 
z
M 18.3125 54.390625 
Q 18.3125 48.734375 21.84375 45.5625 
Q 25.390625 42.390625 31.78125 42.390625 
Q 38.140625 42.390625 41.71875 45.5625 
Q 45.3125 48.734375 45.3125 54.390625 
Q 45.3125 60.0625 41.71875 63.234375 
Q 38.140625 66.40625 31.78125 66.40625 
Q 25.390625 66.40625 21.84375 63.234375 
Q 18.3125 60.0625 18.3125 54.390625 
z
" id="DejaVuSans-56"/>
      </defs>
      <g transform="translate(255.014915 224.798437)scale(0.1 -0.1)">
       <use xlink:href="#DejaVuSans-48"/>
       <use x="63.623047" xlink:href="#DejaVuSans-46"/>
       <use x="95.410156" xlink:href="#DejaVuSans-56"/>
      </g>
     </g>
    </g>
    <g id="xtick_6">
     <g id="line2d_6">
      <g>
       <use style="stroke:#000000;stroke-width:0.8;" x="313.623295" xlink:href="#m44c162292c" y="210.2"/>
      </g>
     </g>
     <g id="text_6">
      <!-- 1.0 -->
      <defs>
       <path d="M 12.40625 8.296875 
L 28.515625 8.296875 
L 28.515625 63.921875 
L 10.984375 60.40625 
L 10.984375 69.390625 
L 28.421875 72.90625 
L 38.28125 72.90625 
L 38.28125 8.296875 
L 54.390625 8.296875 
L 54.390625 0 
L 12.40625 0 
z
" id="DejaVuSans-49"/>
      </defs>
      <g transform="translate(305.671733 224.798437)scale(0.1 -0.1)">
       <use xlink:href="#DejaVuSans-49"/>
       <use x="63.623047" xlink:href="#DejaVuSans-46"/>
       <use x="95.410156" xlink:href="#DejaVuSans-48"/>
      </g>
     </g>
    </g>
    <g id="text_7">
     <!-- fpr -->
     <defs>
      <path d="M 37.109375 75.984375 
L 37.109375 68.5 
L 28.515625 68.5 
Q 23.6875 68.5 21.796875 66.546875 
Q 19.921875 64.59375 19.921875 59.515625 
L 19.921875 54.6875 
L 34.71875 54.6875 
L 34.71875 47.703125 
L 19.921875 47.703125 
L 19.921875 0 
L 10.890625 0 
L 10.890625 47.703125 
L 2.296875 47.703125 
L 2.296875 54.6875 
L 10.890625 54.6875 
L 10.890625 58.5 
Q 10.890625 67.625 15.140625 71.796875 
Q 19.390625 75.984375 28.609375 75.984375 
z
" id="DejaVuSans-102"/>
      <path d="M 18.109375 8.203125 
L 18.109375 -20.796875 
L 9.078125 -20.796875 
L 9.078125 54.6875 
L 18.109375 54.6875 
L 18.109375 46.390625 
Q 20.953125 51.265625 25.265625 53.625 
Q 29.59375 56 35.59375 56 
Q 45.5625 56 51.78125 48.09375 
Q 58.015625 40.1875 58.015625 27.296875 
Q 58.015625 14.40625 51.78125 6.484375 
Q 45.5625 -1.421875 35.59375 -1.421875 
Q 29.59375 -1.421875 25.265625 0.953125 
Q 20.953125 3.328125 18.109375 8.203125 
z
M 48.6875 27.296875 
Q 48.6875 37.203125 44.609375 42.84375 
Q 40.53125 48.484375 33.40625 48.484375 
Q 26.265625 48.484375 22.1875 42.84375 
Q 18.109375 37.203125 18.109375 27.296875 
Q 18.109375 17.390625 22.1875 11.75 
Q 26.265625 6.109375 33.40625 6.109375 
Q 40.53125 6.109375 44.609375 11.75 
Q 48.6875 17.390625 48.6875 27.296875 
z
" id="DejaVuSans-112"/>
      <path d="M 41.109375 46.296875 
Q 39.59375 47.171875 37.8125 47.578125 
Q 36.03125 48 33.890625 48 
Q 26.265625 48 22.1875 43.046875 
Q 18.109375 38.09375 18.109375 28.8125 
L 18.109375 0 
L 9.078125 0 
L 9.078125 54.6875 
L 18.109375 54.6875 
L 18.109375 46.1875 
Q 20.953125 51.171875 25.484375 53.578125 
Q 30.03125 56 36.53125 56 
Q 37.453125 56 38.578125 55.875 
Q 39.703125 55.765625 41.0625 55.515625 
z
" id="DejaVuSans-114"/>
     </defs>
     <g transform="translate(179.991406 238.476562)scale(0.1 -0.1)">
      <use xlink:href="#DejaVuSans-102"/>
      <use x="35.205078" xlink:href="#DejaVuSans-112"/>
      <use x="98.681641" xlink:href="#DejaVuSans-114"/>
     </g>
    </g>
   </g>
   <g id="matplotlib.axis_2">
    <g id="ytick_1">
     <g id="line2d_7">
      <defs>
       <path d="M 0 0 
L -3.5 0 
" id="mcf3d81d4c1" style="stroke:#000000;stroke-width:0.8;"/>
      </defs>
      <g>
       <use style="stroke:#000000;stroke-width:0.8;" x="47.675" xlink:href="#mcf3d81d4c1" y="203.165455"/>
      </g>
     </g>
     <g id="text_8">
      <!-- 0.0 -->
      <g transform="translate(24.771875 206.964673)scale(0.1 -0.1)">
       <use xlink:href="#DejaVuSans-48"/>
       <use x="63.623047" xlink:href="#DejaVuSans-46"/>
       <use x="95.410156" xlink:href="#DejaVuSans-48"/>
      </g>
     </g>
    </g>
    <g id="ytick_2">
     <g id="line2d_8">
      <g>
       <use style="stroke:#000000;stroke-width:0.8;" x="47.675" xlink:href="#mcf3d81d4c1" y="175.027273"/>
      </g>
     </g>
     <g id="text_9">
      <!-- 0.2 -->
      <g transform="translate(24.771875 178.826491)scale(0.1 -0.1)">
       <use xlink:href="#DejaVuSans-48"/>
       <use x="63.623047" xlink:href="#DejaVuSans-46"/>
       <use x="95.410156" xlink:href="#DejaVuSans-50"/>
      </g>
     </g>
    </g>
    <g id="ytick_3">
     <g id="line2d_9">
      <g>
       <use style="stroke:#000000;stroke-width:0.8;" x="47.675" xlink:href="#mcf3d81d4c1" y="146.889091"/>
      </g>
     </g>
     <g id="text_10">
      <!-- 0.4 -->
      <g transform="translate(24.771875 150.68831)scale(0.1 -0.1)">
       <use xlink:href="#DejaVuSans-48"/>
       <use x="63.623047" xlink:href="#DejaVuSans-46"/>
       <use x="95.410156" xlink:href="#DejaVuSans-52"/>
      </g>
     </g>
    </g>
    <g id="ytick_4">
     <g id="line2d_10">
      <g>
       <use style="stroke:#000000;stroke-width:0.8;" x="47.675" xlink:href="#mcf3d81d4c1" y="118.750909"/>
      </g>
     </g>
     <g id="text_11">
      <!-- 0.6 -->
      <g transform="translate(24.771875 122.550128)scale(0.1 -0.1)">
       <use xlink:href="#DejaVuSans-48"/>
       <use x="63.623047" xlink:href="#DejaVuSans-46"/>
       <use x="95.410156" xlink:href="#DejaVuSans-54"/>
      </g>
     </g>
    </g>
    <g id="ytick_5">
     <g id="line2d_11">
      <g>
       <use style="stroke:#000000;stroke-width:0.8;" x="47.675" xlink:href="#mcf3d81d4c1" y="90.612727"/>
      </g>
     </g>
     <g id="text_12">
      <!-- 0.8 -->
      <g transform="translate(24.771875 94.411946)scale(0.1 -0.1)">
       <use xlink:href="#DejaVuSans-48"/>
       <use x="63.623047" xlink:href="#DejaVuSans-46"/>
       <use x="95.410156" xlink:href="#DejaVuSans-56"/>
      </g>
     </g>
    </g>
    <g id="ytick_6">
     <g id="line2d_12">
      <g>
       <use style="stroke:#000000;stroke-width:0.8;" x="47.675" xlink:href="#mcf3d81d4c1" y="62.474545"/>
      </g>
     </g>
     <g id="text_13">
      <!-- 1.0 -->
      <g transform="translate(24.771875 66.273764)scale(0.1 -0.1)">
       <use xlink:href="#DejaVuSans-49"/>
       <use x="63.623047" xlink:href="#DejaVuSans-46"/>
       <use x="95.410156" xlink:href="#DejaVuSans-48"/>
      </g>
     </g>
    </g>
    <g id="text_14">
     <!-- tpr -->
     <defs>
      <path d="M 18.3125 70.21875 
L 18.3125 54.6875 
L 36.8125 54.6875 
L 36.8125 47.703125 
L 18.3125 47.703125 
L 18.3125 18.015625 
Q 18.3125 11.328125 20.140625 9.421875 
Q 21.96875 7.515625 27.59375 7.515625 
L 36.8125 7.515625 
L 36.8125 0 
L 27.59375 0 
Q 17.1875 0 13.234375 3.875 
Q 9.28125 7.765625 9.28125 18.015625 
L 9.28125 47.703125 
L 2.6875 47.703125 
L 2.6875 54.6875 
L 9.28125 54.6875 
L 9.28125 70.21875 
z
" id="DejaVuSans-116"/>
     </defs>
     <g transform="translate(18.692187 140.009844)rotate(-90)scale(0.1 -0.1)">
      <use xlink:href="#DejaVuSans-116"/>
      <use x="39.208984" xlink:href="#DejaVuSans-112"/>
      <use x="102.685547" xlink:href="#DejaVuSans-114"/>
     </g>
    </g>
   </g>
   <g id="line2d_13">
    <path clip-path="url(#pf20dd1eaf3)" d="M 60.339205 203.165455 
L 62.89763 138.045578 
L 65.456055 133.012443 
L 68.01448 127.979309 
L 70.572905 122.946175 
L 73.13133 117.631777 
L 75.689756 109.682385 
L 78.248181 107.905985 
L 80.806606 107.905985 
L 83.365031 107.905985 
L 85.923456 107.905985 
L 88.481881 106.440455 
L 91.040306 104.974924 
L 93.598732 104.974924 
L 96.157157 104.974924 
L 98.715582 104.974924 
L 101.274007 104.974924 
L 103.832432 104.219954 
L 106.390857 102.798834 
L 108.949283 102.043864 
L 111.507708 102.043864 
L 114.066133 101.844019 
L 116.624558 100.578333 
L 119.182983 93.783602 
L 121.741408 88.942911 
L 124.299834 85.92303 
L 126.858259 85.92303 
L 129.416684 85.92303 
L 131.975109 85.470048 
L 134.533534 84.564084 
L 137.091959 81.615259 
L 139.650385 78.595379 
L 142.20881 78.595379 
L 144.767235 78.595379 
L 147.32566 77.840409 
L 149.884085 76.932471 
L 152.44251 73.577048 
L 155.000935 70.221625 
L 157.559361 69.802197 
L 160.117786 69.802197 
L 162.676211 69.802197 
L 165.234636 69.802197 
L 167.793061 69.802197 
L 170.351486 69.802197 
L 172.909912 69.802197 
L 175.468337 69.235969 
L 178.026762 68.669742 
L 180.585187 67.714927 
L 183.143612 66.204986 
L 185.702037 64.695046 
L 188.260463 63.940076 
L 190.818888 63.940076 
L 193.377313 63.940076 
L 195.935738 63.940076 
L 198.494163 63.940076 
L 201.052588 63.940076 
L 203.611014 63.940076 
L 206.169439 63.940076 
L 208.727864 63.940076 
L 211.286289 63.940076 
L 213.844714 63.940076 
L 216.403139 63.940076 
L 218.961565 63.940076 
L 221.51999 63.940076 
L 224.078415 63.940076 
L 226.63684 63.940076 
L 229.195265 63.940076 
L 231.75369 63.940076 
L 234.312115 63.940076 
L 236.870541 63.940076 
L 239.428966 63.940076 
L 241.987391 63.940076 
L 244.545816 63.940076 
L 247.104241 63.940076 
L 249.662666 63.940076 
L 252.221092 63.940076 
L 254.779517 63.940076 
L 257.337942 63.940076 
L 259.896367 63.940076 
L 262.454792 63.940076 
L 265.013217 63.940076 
L 267.571643 63.940076 
L 270.130068 63.940076 
L 272.688493 63.940076 
L 275.246918 63.940076 
L 277.805343 63.940076 
L 280.363768 63.940076 
L 282.922194 63.940076 
L 285.480619 63.940076 
L 288.039044 63.940076 
L 290.597469 63.940076 
L 293.155894 63.940076 
L 295.714319 63.940076 
L 298.272744 63.940076 
L 300.83117 63.940076 
L 303.389595 63.940076 
L 305.94802 63.940076 
L 308.506445 63.940076 
L 311.06487 63.940076 
L 313.623295 62.474545 
" style="fill:none;stroke:#1f77b4;stroke-linecap:square;stroke-width:1.5;"/>
   </g>
   <g id="line2d_14">
    <path clip-path="url(#pf20dd1eaf3)" d="M 60.339205 203.165455 
L 62.89763 194.372273 
L 65.456055 194.372273 
L 68.01448 194.372273 
L 70.572905 194.372273 
L 73.13133 189.872058 
L 75.689756 135.884291 
L 78.248181 131.35447 
L 80.806606 131.35447 
L 83.365031 131.35447 
L 85.923456 130.51068 
L 88.481881 122.561288 
L 91.040306 122.561288 
L 93.598732 122.561288 
L 96.157157 122.561288 
L 98.715582 121.998761 
L 101.274007 118.386747 
L 103.832432 115.944197 
L 106.390857 114.523076 
L 108.949283 113.768106 
L 111.507708 113.768106 
L 114.066133 113.768106 
L 116.624558 113.768106 
L 119.182983 113.768106 
L 121.741408 113.768106 
L 124.299834 113.768106 
L 126.858259 113.768106 
L 129.416684 113.768106 
L 131.975109 113.768106 
L 134.533534 113.768106 
L 137.091959 113.768106 
L 139.650385 113.768106 
L 142.20881 113.768106 
L 144.767235 113.768106 
L 147.32566 113.768106 
L 149.884085 113.768106 
L 152.44251 113.768106 
L 155.000935 113.768106 
L 157.559361 113.768106 
L 160.117786 113.768106 
L 162.676211 113.768106 
L 165.234636 113.768106 
L 167.793061 113.768106 
L 170.351486 113.768106 
L 172.909912 113.768106 
L 175.468337 113.768106 
L 178.026762 113.768106 
L 180.585187 113.768106 
L 183.143612 113.768106 
L 185.702037 113.768106 
L 188.260463 113.768106 
L 190.818888 113.768106 
L 193.377313 113.768106 
L 195.935738 113.768106 
L 198.494163 113.768106 
L 201.052588 113.768106 
L 203.611014 113.768106 
L 206.169439 113.768106 
L 208.727864 113.768106 
L 211.286289 113.768106 
L 213.844714 113.768106 
L 216.403139 113.768106 
L 218.961565 113.768106 
L 221.51999 113.768106 
L 224.078415 113.768106 
L 226.63684 113.768106 
L 229.195265 113.768106 
L 231.75369 113.768106 
L 234.312115 113.768106 
L 236.870541 113.768106 
L 239.428966 113.768106 
L 241.987391 113.768106 
L 244.545816 113.768106 
L 247.104241 113.768106 
L 249.662666 113.768106 
L 252.221092 113.768106 
L 254.779517 113.768106 
L 257.337942 113.768106 
L 259.896367 113.768106 
L 262.454792 113.768106 
L 265.013217 113.768106 
L 267.571643 113.768106 
L 270.130068 113.768106 
L 272.688493 113.768106 
L 275.246918 113.768106 
L 277.805343 113.768106 
L 280.363768 113.768106 
L 282.922194 113.768106 
L 285.480619 113.768106 
L 288.039044 113.768106 
L 290.597469 113.768106 
L 293.155894 113.768106 
L 295.714319 113.768106 
L 298.272744 113.768106 
L 300.83117 113.768106 
L 303.389595 113.768106 
L 305.94802 113.768106 
L 308.506445 113.768106 
L 311.06487 113.768106 
L 313.623295 62.474545 
" style="fill:none;stroke:#ff7f0e;stroke-linecap:square;stroke-width:1.5;"/>
   </g>
   <g id="line2d_15">
    <path clip-path="url(#pf20dd1eaf3)" d="M 60.339205 203.165455 
L 62.89763 167.992727 
L 65.456055 167.992727 
L 68.01448 167.992727 
L 70.572905 167.992727 
L 73.13133 164.89883 
L 75.689756 127.046699 
L 78.248181 124.026818 
L 80.806606 124.026818 
L 83.365031 124.026818 
L 85.923456 122.901765 
L 88.481881 112.302576 
L 91.040306 105.774304 
L 93.598732 103.509394 
L 96.157157 103.509394 
L 98.715582 103.509394 
L 101.274007 103.509394 
L 103.832432 103.509394 
L 106.390857 103.509394 
L 108.949283 103.509394 
L 111.507708 103.509394 
L 114.066133 103.509394 
L 116.624558 103.509394 
L 119.182983 103.509394 
L 121.741408 103.509394 
L 124.299834 103.509394 
L 126.858259 103.509394 
L 129.416684 103.509394 
L 131.975109 103.509394 
L 134.533534 103.509394 
L 137.091959 103.509394 
L 139.650385 103.509394 
L 142.20881 103.509394 
L 144.767235 103.509394 
L 147.32566 103.509394 
L 149.884085 103.509394 
L 152.44251 103.509394 
L 155.000935 103.509394 
L 157.559361 103.509394 
L 160.117786 103.509394 
L 162.676211 103.509394 
L 165.234636 103.509394 
L 167.793061 103.509394 
L 170.351486 103.509394 
L 172.909912 103.509394 
L 175.468337 103.509394 
L 178.026762 103.509394 
L 180.585187 103.509394 
L 183.143612 103.509394 
L 185.702037 103.509394 
L 188.260463 103.509394 
L 190.818888 103.509394 
L 193.377313 103.509394 
L 195.935738 103.509394 
L 198.494163 103.509394 
L 201.052588 103.509394 
L 203.611014 103.509394 
L 206.169439 103.509394 
L 208.727864 103.509394 
L 211.286289 103.509394 
L 213.844714 103.509394 
L 216.403139 103.509394 
L 218.961565 103.509394 
L 221.51999 103.509394 
L 224.078415 103.509394 
L 226.63684 103.509394 
L 229.195265 103.509394 
L 231.75369 103.509394 
L 234.312115 103.509394 
L 236.870541 103.509394 
L 239.428966 103.509394 
L 241.987391 103.509394 
L 244.545816 103.509394 
L 247.104241 103.509394 
L 249.662666 103.509394 
L 252.221092 103.509394 
L 254.779517 103.509394 
L 257.337942 103.509394 
L 259.896367 103.509394 
L 262.454792 103.509394 
L 265.013217 103.509394 
L 267.571643 103.509394 
L 270.130068 103.509394 
L 272.688493 103.509394 
L 275.246918 103.509394 
L 277.805343 103.509394 
L 280.363768 103.509394 
L 282.922194 103.509394 
L 285.480619 103.509394 
L 288.039044 103.509394 
L 290.597469 103.509394 
L 293.155894 103.509394 
L 295.714319 103.509394 
L 298.272744 103.509394 
L 300.83117 103.509394 
L 303.389595 103.509394 
L 305.94802 103.509394 
L 308.506445 103.509394 
L 311.06487 103.509394 
L 313.623295 62.474545 
" style="fill:none;stroke:#2ca02c;stroke-linecap:square;stroke-width:1.5;"/>
   </g>
   <g id="line2d_16">
    <path clip-path="url(#pf20dd1eaf3)" d="M 60.339205 203.165455 
L 62.89763 156.268485 
L 65.456055 156.268485 
L 68.01448 156.268485 
L 70.572905 156.268485 
L 73.13133 155.424695 
L 75.689756 147.475303 
L 78.248181 147.475303 
L 80.806606 147.475303 
L 83.365031 147.475303 
L 85.923456 147.19404 
L 88.481881 144.544242 
L 91.040306 142.368152 
L 93.598732 141.613182 
L 96.157157 141.613182 
L 98.715582 141.613182 
L 101.274007 141.613182 
L 103.832432 141.613182 
L 106.390857 141.613182 
L 108.949283 141.613182 
L 111.507708 141.613182 
L 114.066133 141.613182 
L 116.624558 141.613182 
L 119.182983 141.613182 
L 121.741408 141.613182 
L 124.299834 141.613182 
L 126.858259 141.613182 
L 129.416684 141.613182 
L 131.975109 141.613182 
L 134.533534 141.613182 
L 137.091959 141.613182 
L 139.650385 141.613182 
L 142.20881 141.613182 
L 144.767235 141.613182 
L 147.32566 141.613182 
L 149.884085 141.613182 
L 152.44251 141.613182 
L 155.000935 141.613182 
L 157.559361 141.613182 
L 160.117786 141.613182 
L 162.676211 141.613182 
L 165.234636 141.613182 
L 167.793061 141.613182 
L 170.351486 141.613182 
L 172.909912 141.613182 
L 175.468337 141.613182 
L 178.026762 141.613182 
L 180.585187 141.613182 
L 183.143612 141.613182 
L 185.702037 141.613182 
L 188.260463 141.613182 
L 190.818888 141.613182 
L 193.377313 141.613182 
L 195.935738 141.613182 
L 198.494163 141.613182 
L 201.052588 141.613182 
L 203.611014 141.613182 
L 206.169439 141.613182 
L 208.727864 141.613182 
L 211.286289 141.613182 
L 213.844714 141.613182 
L 216.403139 141.613182 
L 218.961565 141.613182 
L 221.51999 141.613182 
L 224.078415 141.613182 
L 226.63684 141.613182 
L 229.195265 141.613182 
L 231.75369 141.613182 
L 234.312115 141.613182 
L 236.870541 141.613182 
L 239.428966 141.613182 
L 241.987391 141.613182 
L 244.545816 141.613182 
L 247.104241 141.613182 
L 249.662666 141.613182 
L 252.221092 141.613182 
L 254.779517 141.613182 
L 257.337942 141.613182 
L 259.896367 141.613182 
L 262.454792 141.613182 
L 265.013217 141.613182 
L 267.571643 141.613182 
L 270.130068 141.613182 
L 272.688493 141.613182 
L 275.246918 141.613182 
L 277.805343 141.613182 
L 280.363768 141.613182 
L 282.922194 141.613182 
L 285.480619 141.613182 
L 288.039044 141.613182 
L 290.597469 141.613182 
L 293.155894 141.613182 
L 295.714319 141.613182 
L 298.272744 141.613182 
L 300.83117 141.613182 
L 303.389595 141.613182 
L 305.94802 141.613182 
L 308.506445 141.613182 
L 311.06487 141.613182 
L 313.623295 62.474545 
" style="fill:none;stroke:#d62728;stroke-linecap:square;stroke-width:1.5;"/>
   </g>
   <g id="line2d_17">
    <path clip-path="url(#pf20dd1eaf3)" d="M 60.339205 203.165455 
L 62.89763 100.56353 
L 65.456055 93.221075 
L 68.01448 85.87862 
L 70.572905 78.536165 
L 73.13133 71.193711 
L 75.689756 63.851256 
L 78.248181 62.474545 
L 80.806606 62.474545 
L 83.365031 62.474545 
L 85.923456 62.474545 
L 88.481881 62.474545 
L 91.040306 62.474545 
L 93.598732 62.474545 
L 96.157157 62.474545 
L 98.715582 62.474545 
L 101.274007 62.474545 
L 103.832432 62.474545 
L 106.390857 62.474545 
L 108.949283 62.474545 
L 111.507708 62.474545 
L 114.066133 62.474545 
L 116.624558 62.474545 
L 119.182983 62.474545 
L 121.741408 62.474545 
L 124.299834 62.474545 
L 126.858259 62.474545 
L 129.416684 62.474545 
L 131.975109 62.474545 
L 134.533534 62.474545 
L 137.091959 62.474545 
L 139.650385 62.474545 
L 142.20881 62.474545 
L 144.767235 62.474545 
L 147.32566 62.474545 
L 149.884085 62.474545 
L 152.44251 62.474545 
L 155.000935 62.474545 
L 157.559361 62.474545 
L 160.117786 62.474545 
L 162.676211 62.474545 
L 165.234636 62.474545 
L 167.793061 62.474545 
L 170.351486 62.474545 
L 172.909912 62.474545 
L 175.468337 62.474545 
L 178.026762 62.474545 
L 180.585187 62.474545 
L 183.143612 62.474545 
L 185.702037 62.474545 
L 188.260463 62.474545 
L 190.818888 62.474545 
L 193.377313 62.474545 
L 195.935738 62.474545 
L 198.494163 62.474545 
L 201.052588 62.474545 
L 203.611014 62.474545 
L 206.169439 62.474545 
L 208.727864 62.474545 
L 211.286289 62.474545 
L 213.844714 62.474545 
L 216.403139 62.474545 
L 218.961565 62.474545 
L 221.51999 62.474545 
L 224.078415 62.474545 
L 226.63684 62.474545 
L 229.195265 62.474545 
L 231.75369 62.474545 
L 234.312115 62.474545 
L 236.870541 62.474545 
L 239.428966 62.474545 
L 241.987391 62.474545 
L 244.545816 62.474545 
L 247.104241 62.474545 
L 249.662666 62.474545 
L 252.221092 62.474545 
L 254.779517 62.474545 
L 257.337942 62.474545 
L 259.896367 62.474545 
L 262.454792 62.474545 
L 265.013217 62.474545 
L 267.571643 62.474545 
L 270.130068 62.474545 
L 272.688493 62.474545 
L 275.246918 62.474545 
L 277.805343 62.474545 
L 280.363768 62.474545 
L 282.922194 62.474545 
L 285.480619 62.474545 
L 288.039044 62.474545 
L 290.597469 62.474545 
L 293.155894 62.474545 
L 295.714319 62.474545 
L 298.272744 62.474545 
L 300.83117 62.474545 
L 303.389595 62.474545 
L 305.94802 62.474545 
L 308.506445 62.474545 
L 311.06487 62.474545 
L 313.623295 62.474545 
" style="fill:none;stroke:#9467bd;stroke-linecap:square;stroke-width:1.5;"/>
   </g>
   <g id="line2d_18">
    <path clip-path="url(#pf20dd1eaf3)" d="M 60.339205 203.165455 
L 62.89763 116.551133 
L 65.456055 113.472039 
L 68.01448 110.392945 
L 70.572905 107.313851 
L 73.13133 104.234757 
L 75.689756 98.13825 
L 78.248181 95.449142 
L 80.806606 92.760033 
L 83.365031 90.070925 
L 85.923456 87.381817 
L 88.481881 84.692709 
L 91.040306 81.484003 
L 93.598732 79.714511 
L 96.157157 78.808547 
L 98.715582 77.902583 
L 101.274007 76.996618 
L 103.832432 76.090654 
L 106.390857 75.344566 
L 108.949283 74.74059 
L 111.507708 74.136614 
L 114.066133 73.532638 
L 116.624558 72.928662 
L 119.182983 72.324685 
L 121.741408 71.720709 
L 124.299834 71.267727 
L 126.858259 71.267727 
L 129.416684 71.267727 
L 131.975109 71.267727 
L 134.533534 71.267727 
L 137.091959 71.106236 
L 139.650385 70.923213 
L 142.20881 70.74019 
L 144.767235 70.557167 
L 147.32566 69.996659 
L 149.884085 69.436151 
L 152.44251 68.875643 
L 155.000935 68.315135 
L 157.559361 67.914772 
L 160.117786 67.537287 
L 162.676211 67.159801 
L 165.234636 66.792185 
L 167.793061 66.456643 
L 170.351486 66.121101 
L 172.909912 65.785558 
L 175.468337 65.450016 
L 178.026762 65.114474 
L 180.585187 64.778931 
L 183.143612 64.443389 
L 185.702037 64.107847 
L 188.260463 63.940076 
L 190.818888 63.940076 
L 193.377313 63.940076 
L 195.935738 63.940076 
L 198.494163 63.940076 
L 201.052588 63.940076 
L 203.611014 63.940076 
L 206.169439 63.940076 
L 208.727864 63.940076 
L 211.286289 63.940076 
L 213.844714 63.940076 
L 216.403139 63.940076 
L 218.961565 63.940076 
L 221.51999 63.940076 
L 224.078415 63.940076 
L 226.63684 63.804731 
L 229.195265 63.660927 
L 231.75369 63.517123 
L 234.312115 63.373319 
L 236.870541 63.229516 
L 239.428966 63.085712 
L 241.987391 62.941908 
L 244.545816 62.798104 
L 247.104241 62.6543 
L 249.662666 62.510496 
L 252.221092 62.474545 
L 254.779517 62.474545 
L 257.337942 62.474545 
L 259.896367 62.474545 
L 262.454792 62.474545 
L 265.013217 62.474545 
L 267.571643 62.474545 
L 270.130068 62.474545 
L 272.688493 62.474545 
L 275.246918 62.474545 
L 277.805343 62.474545 
L 280.363768 62.474545 
L 282.922194 62.474545 
L 285.480619 62.474545 
L 288.039044 62.474545 
L 290.597469 62.474545 
L 293.155894 62.474545 
L 295.714319 62.474545 
L 298.272744 62.474545 
L 300.83117 62.474545 
L 303.389595 62.474545 
L 305.94802 62.474545 
L 308.506445 62.474545 
L 311.06487 62.474545 
L 313.623295 62.474545 
" style="fill:none;stroke:#8c564b;stroke-linecap:square;stroke-width:1.5;"/>
   </g>
   <g id="patch_3">
    <path d="M 47.675 210.2 
L 47.675 55.44 
" style="fill:none;stroke:#000000;stroke-linecap:square;stroke-linejoin:miter;stroke-width:0.8;"/>
   </g>
   <g id="patch_4">
    <path d="M 47.675 210.2 
L 326.2875 210.2 
" style="fill:none;stroke:#000000;stroke-linecap:square;stroke-linejoin:miter;stroke-width:0.8;"/>
   </g>
   <g id="text_15">
    <!-- p_alternate = 50 -->
    <defs>
     <path d="M 50.984375 -16.609375 
L 50.984375 -23.578125 
L -0.984375 -23.578125 
L -0.984375 -16.609375 
z
" id="DejaVuSans-95"/>
     <path d="M 34.28125 27.484375 
Q 23.390625 27.484375 19.1875 25 
Q 14.984375 22.515625 14.984375 16.5 
Q 14.984375 11.71875 18.140625 8.90625 
Q 21.296875 6.109375 26.703125 6.109375 
Q 34.1875 6.109375 38.703125 11.40625 
Q 43.21875 16.703125 43.21875 25.484375 
L 43.21875 27.484375 
z
M 52.203125 31.203125 
L 52.203125 0 
L 43.21875 0 
L 43.21875 8.296875 
Q 40.140625 3.328125 35.546875 0.953125 
Q 30.953125 -1.421875 24.3125 -1.421875 
Q 15.921875 -1.421875 10.953125 3.296875 
Q 6 8.015625 6 15.921875 
Q 6 25.140625 12.171875 29.828125 
Q 18.359375 34.515625 30.609375 34.515625 
L 43.21875 34.515625 
L 43.21875 35.40625 
Q 43.21875 41.609375 39.140625 45 
Q 35.0625 48.390625 27.6875 48.390625 
Q 23 48.390625 18.546875 47.265625 
Q 14.109375 46.140625 10.015625 43.890625 
L 10.015625 52.203125 
Q 14.9375 54.109375 19.578125 55.046875 
Q 24.21875 56 28.609375 56 
Q 40.484375 56 46.34375 49.84375 
Q 52.203125 43.703125 52.203125 31.203125 
z
" id="DejaVuSans-97"/>
     <path d="M 9.421875 75.984375 
L 18.40625 75.984375 
L 18.40625 0 
L 9.421875 0 
z
" id="DejaVuSans-108"/>
     <path d="M 56.203125 29.59375 
L 56.203125 25.203125 
L 14.890625 25.203125 
Q 15.484375 15.921875 20.484375 11.0625 
Q 25.484375 6.203125 34.421875 6.203125 
Q 39.59375 6.203125 44.453125 7.46875 
Q 49.3125 8.734375 54.109375 11.28125 
L 54.109375 2.78125 
Q 49.265625 0.734375 44.1875 -0.34375 
Q 39.109375 -1.421875 33.890625 -1.421875 
Q 20.796875 -1.421875 13.15625 6.1875 
Q 5.515625 13.8125 5.515625 26.8125 
Q 5.515625 40.234375 12.765625 48.109375 
Q 20.015625 56 32.328125 56 
Q 43.359375 56 49.78125 48.890625 
Q 56.203125 41.796875 56.203125 29.59375 
z
M 47.21875 32.234375 
Q 47.125 39.59375 43.09375 43.984375 
Q 39.0625 48.390625 32.421875 48.390625 
Q 24.90625 48.390625 20.390625 44.140625 
Q 15.875 39.890625 15.1875 32.171875 
z
" id="DejaVuSans-101"/>
     <path d="M 54.890625 33.015625 
L 54.890625 0 
L 45.90625 0 
L 45.90625 32.71875 
Q 45.90625 40.484375 42.875 44.328125 
Q 39.84375 48.1875 33.796875 48.1875 
Q 26.515625 48.1875 22.3125 43.546875 
Q 18.109375 38.921875 18.109375 30.90625 
L 18.109375 0 
L 9.078125 0 
L 9.078125 54.6875 
L 18.109375 54.6875 
L 18.109375 46.1875 
Q 21.34375 51.125 25.703125 53.5625 
Q 30.078125 56 35.796875 56 
Q 45.21875 56 50.046875 50.171875 
Q 54.890625 44.34375 54.890625 33.015625 
z
" id="DejaVuSans-110"/>
     <path id="DejaVuSans-32"/>
     <path d="M 10.59375 45.40625 
L 73.1875 45.40625 
L 73.1875 37.203125 
L 10.59375 37.203125 
z
M 10.59375 25.484375 
L 73.1875 25.484375 
L 73.1875 17.1875 
L 10.59375 17.1875 
z
" id="DejaVuSans-61"/>
     <path d="M 10.796875 72.90625 
L 49.515625 72.90625 
L 49.515625 64.59375 
L 19.828125 64.59375 
L 19.828125 46.734375 
Q 21.96875 47.46875 24.109375 47.828125 
Q 26.265625 48.1875 28.421875 48.1875 
Q 40.625 48.1875 47.75 41.5 
Q 54.890625 34.8125 54.890625 23.390625 
Q 54.890625 11.625 47.5625 5.09375 
Q 40.234375 -1.421875 26.90625 -1.421875 
Q 22.3125 -1.421875 17.546875 -0.640625 
Q 12.796875 0.140625 7.71875 1.703125 
L 7.71875 11.625 
Q 12.109375 9.234375 16.796875 8.0625 
Q 21.484375 6.890625 26.703125 6.890625 
Q 35.15625 6.890625 40.078125 11.328125 
Q 45.015625 15.765625 45.015625 23.390625 
Q 45.015625 31 40.078125 35.4375 
Q 35.15625 39.890625 26.703125 39.890625 
Q 22.75 39.890625 18.8125 39.015625 
Q 14.890625 38.140625 10.796875 36.28125 
z
" id="DejaVuSans-53"/>
    </defs>
    <g transform="translate(144.849219 49.44)scale(0.1 -0.1)">
     <use xlink:href="#DejaVuSans-112"/>
     <use x="63.476562" xlink:href="#DejaVuSans-95"/>
     <use x="113.476562" xlink:href="#DejaVuSans-97"/>
     <use x="174.755859" xlink:href="#DejaVuSans-108"/>
     <use x="202.539062" xlink:href="#DejaVuSans-116"/>
     <use x="241.748047" xlink:href="#DejaVuSans-101"/>
     <use x="303.271484" xlink:href="#DejaVuSans-114"/>
     <use x="342.634766" xlink:href="#DejaVuSans-110"/>
     <use x="406.013672" xlink:href="#DejaVuSans-97"/>
     <use x="467.292969" xlink:href="#DejaVuSans-116"/>
     <use x="506.501953" xlink:href="#DejaVuSans-101"/>
     <use x="568.025391" xlink:href="#DejaVuSans-32"/>
     <use x="599.8125" xlink:href="#DejaVuSans-61"/>
     <use x="683.601562" xlink:href="#DejaVuSans-32"/>
     <use x="715.388672" xlink:href="#DejaVuSans-53"/>
     <use x="779.011719" xlink:href="#DejaVuSans-48"/>
    </g>
   </g>
   <g id="legend_1">
    <g id="patch_5">
     <path d="M 219.698438 205.2 
L 319.2875 205.2 
Q 321.2875 205.2 321.2875 203.2 
L 321.2875 101.453125 
Q 321.2875 99.453125 319.2875 99.453125 
L 219.698438 99.453125 
Q 217.698438 99.453125 217.698438 101.453125 
L 217.698438 203.2 
Q 217.698438 205.2 219.698438 205.2 
z
" style="fill:#ffffff;opacity:0.8;stroke:#cccccc;stroke-linejoin:miter;"/>
    </g>
    <g id="text_16">
     <!-- AUC, method -->
     <defs>
      <path d="M 34.1875 63.1875 
L 20.796875 26.90625 
L 47.609375 26.90625 
z
M 28.609375 72.90625 
L 39.796875 72.90625 
L 67.578125 0 
L 57.328125 0 
L 50.6875 18.703125 
L 17.828125 18.703125 
L 11.1875 0 
L 0.78125 0 
z
" id="DejaVuSans-65"/>
      <path d="M 8.6875 72.90625 
L 18.609375 72.90625 
L 18.609375 28.609375 
Q 18.609375 16.890625 22.84375 11.734375 
Q 27.09375 6.59375 36.625 6.59375 
Q 46.09375 6.59375 50.34375 11.734375 
Q 54.59375 16.890625 54.59375 28.609375 
L 54.59375 72.90625 
L 64.5 72.90625 
L 64.5 27.390625 
Q 64.5 13.140625 57.4375 5.859375 
Q 50.390625 -1.421875 36.625 -1.421875 
Q 22.796875 -1.421875 15.734375 5.859375 
Q 8.6875 13.140625 8.6875 27.390625 
z
" id="DejaVuSans-85"/>
      <path d="M 64.40625 67.28125 
L 64.40625 56.890625 
Q 59.421875 61.53125 53.78125 63.8125 
Q 48.140625 66.109375 41.796875 66.109375 
Q 29.296875 66.109375 22.65625 58.46875 
Q 16.015625 50.828125 16.015625 36.375 
Q 16.015625 21.96875 22.65625 14.328125 
Q 29.296875 6.6875 41.796875 6.6875 
Q 48.140625 6.6875 53.78125 8.984375 
Q 59.421875 11.28125 64.40625 15.921875 
L 64.40625 5.609375 
Q 59.234375 2.09375 53.4375 0.328125 
Q 47.65625 -1.421875 41.21875 -1.421875 
Q 24.65625 -1.421875 15.125 8.703125 
Q 5.609375 18.84375 5.609375 36.375 
Q 5.609375 53.953125 15.125 64.078125 
Q 24.65625 74.21875 41.21875 74.21875 
Q 47.75 74.21875 53.53125 72.484375 
Q 59.328125 70.75 64.40625 67.28125 
z
" id="DejaVuSans-67"/>
      <path d="M 11.71875 12.40625 
L 22.015625 12.40625 
L 22.015625 4 
L 14.015625 -11.625 
L 7.71875 -11.625 
L 11.71875 4 
z
" id="DejaVuSans-44"/>
      <path d="M 52 44.1875 
Q 55.375 50.25 60.0625 53.125 
Q 64.75 56 71.09375 56 
Q 79.640625 56 84.28125 50.015625 
Q 88.921875 44.046875 88.921875 33.015625 
L 88.921875 0 
L 79.890625 0 
L 79.890625 32.71875 
Q 79.890625 40.578125 77.09375 44.375 
Q 74.3125 48.1875 68.609375 48.1875 
Q 61.625 48.1875 57.5625 43.546875 
Q 53.515625 38.921875 53.515625 30.90625 
L 53.515625 0 
L 44.484375 0 
L 44.484375 32.71875 
Q 44.484375 40.625 41.703125 44.40625 
Q 38.921875 48.1875 33.109375 48.1875 
Q 26.21875 48.1875 22.15625 43.53125 
Q 18.109375 38.875 18.109375 30.90625 
L 18.109375 0 
L 9.078125 0 
L 9.078125 54.6875 
L 18.109375 54.6875 
L 18.109375 46.1875 
Q 21.1875 51.21875 25.484375 53.609375 
Q 29.78125 56 35.6875 56 
Q 41.65625 56 45.828125 52.96875 
Q 50 49.953125 52 44.1875 
z
" id="DejaVuSans-109"/>
      <path d="M 54.890625 33.015625 
L 54.890625 0 
L 45.90625 0 
L 45.90625 32.71875 
Q 45.90625 40.484375 42.875 44.328125 
Q 39.84375 48.1875 33.796875 48.1875 
Q 26.515625 48.1875 22.3125 43.546875 
Q 18.109375 38.921875 18.109375 30.90625 
L 18.109375 0 
L 9.078125 0 
L 9.078125 75.984375 
L 18.109375 75.984375 
L 18.109375 46.1875 
Q 21.34375 51.125 25.703125 53.5625 
Q 30.078125 56 35.796875 56 
Q 45.21875 56 50.046875 50.171875 
Q 54.890625 44.34375 54.890625 33.015625 
z
" id="DejaVuSans-104"/>
      <path d="M 30.609375 48.390625 
Q 23.390625 48.390625 19.1875 42.75 
Q 14.984375 37.109375 14.984375 27.296875 
Q 14.984375 17.484375 19.15625 11.84375 
Q 23.34375 6.203125 30.609375 6.203125 
Q 37.796875 6.203125 41.984375 11.859375 
Q 46.1875 17.53125 46.1875 27.296875 
Q 46.1875 37.015625 41.984375 42.703125 
Q 37.796875 48.390625 30.609375 48.390625 
z
M 30.609375 56 
Q 42.328125 56 49.015625 48.375 
Q 55.71875 40.765625 55.71875 27.296875 
Q 55.71875 13.875 49.015625 6.21875 
Q 42.328125 -1.421875 30.609375 -1.421875 
Q 18.84375 -1.421875 12.171875 6.21875 
Q 5.515625 13.875 5.515625 27.296875 
Q 5.515625 40.765625 12.171875 48.375 
Q 18.84375 56 30.609375 56 
z
" id="DejaVuSans-111"/>
      <path d="M 45.40625 46.390625 
L 45.40625 75.984375 
L 54.390625 75.984375 
L 54.390625 0 
L 45.40625 0 
L 45.40625 8.203125 
Q 42.578125 3.328125 38.25 0.953125 
Q 33.9375 -1.421875 27.875 -1.421875 
Q 17.96875 -1.421875 11.734375 6.484375 
Q 5.515625 14.40625 5.515625 27.296875 
Q 5.515625 40.1875 11.734375 48.09375 
Q 17.96875 56 27.875 56 
Q 33.9375 56 38.25 53.625 
Q 42.578125 51.265625 45.40625 46.390625 
z
M 14.796875 27.296875 
Q 14.796875 17.390625 18.875 11.75 
Q 22.953125 6.109375 30.078125 6.109375 
Q 37.203125 6.109375 41.296875 11.75 
Q 45.40625 17.390625 45.40625 27.296875 
Q 45.40625 37.203125 41.296875 42.84375 
Q 37.203125 48.484375 30.078125 48.484375 
Q 22.953125 48.484375 18.875 42.84375 
Q 14.796875 37.203125 14.796875 27.296875 
z
" id="DejaVuSans-100"/>
     </defs>
     <g transform="translate(251.170313 111.051562)scale(0.1 -0.1)">
      <use xlink:href="#DejaVuSans-65"/>
      <use x="68.408203" xlink:href="#DejaVuSans-85"/>
      <use x="141.601562" xlink:href="#DejaVuSans-67"/>
      <use x="211.425781" xlink:href="#DejaVuSans-44"/>
      <use x="243.212891" xlink:href="#DejaVuSans-32"/>
      <use x="275" xlink:href="#DejaVuSans-109"/>
      <use x="372.412109" xlink:href="#DejaVuSans-101"/>
      <use x="433.935547" xlink:href="#DejaVuSans-116"/>
      <use x="473.144531" xlink:href="#DejaVuSans-104"/>
      <use x="536.523438" xlink:href="#DejaVuSans-111"/>
      <use x="597.705078" xlink:href="#DejaVuSans-100"/>
     </g>
    </g>
    <g id="line2d_19">
     <path d="M 221.698438 122.229687 
L 241.698438 122.229687 
" style="fill:none;stroke:#1f77b4;stroke-linecap:square;stroke-width:1.5;"/>
    </g>
    <g id="line2d_20"/>
    <g id="text_17">
     <!-- 0.89 ET -->
     <defs>
      <path d="M 10.984375 1.515625 
L 10.984375 10.5 
Q 14.703125 8.734375 18.5 7.8125 
Q 22.3125 6.890625 25.984375 6.890625 
Q 35.75 6.890625 40.890625 13.453125 
Q 46.046875 20.015625 46.78125 33.40625 
Q 43.953125 29.203125 39.59375 26.953125 
Q 35.25 24.703125 29.984375 24.703125 
Q 19.046875 24.703125 12.671875 31.3125 
Q 6.296875 37.9375 6.296875 49.421875 
Q 6.296875 60.640625 12.9375 67.421875 
Q 19.578125 74.21875 30.609375 74.21875 
Q 43.265625 74.21875 49.921875 64.515625 
Q 56.59375 54.828125 56.59375 36.375 
Q 56.59375 19.140625 48.40625 8.859375 
Q 40.234375 -1.421875 26.421875 -1.421875 
Q 22.703125 -1.421875 18.890625 -0.6875 
Q 15.09375 0.046875 10.984375 1.515625 
z
M 30.609375 32.421875 
Q 37.25 32.421875 41.125 36.953125 
Q 45.015625 41.5 45.015625 49.421875 
Q 45.015625 57.28125 41.125 61.84375 
Q 37.25 66.40625 30.609375 66.40625 
Q 23.96875 66.40625 20.09375 61.84375 
Q 16.21875 57.28125 16.21875 49.421875 
Q 16.21875 41.5 20.09375 36.953125 
Q 23.96875 32.421875 30.609375 32.421875 
z
" id="DejaVuSans-57"/>
      <path d="M 9.8125 72.90625 
L 55.90625 72.90625 
L 55.90625 64.59375 
L 19.671875 64.59375 
L 19.671875 43.015625 
L 54.390625 43.015625 
L 54.390625 34.71875 
L 19.671875 34.71875 
L 19.671875 8.296875 
L 56.78125 8.296875 
L 56.78125 0 
L 9.8125 0 
z
" id="DejaVuSans-69"/>
      <path d="M -0.296875 72.90625 
L 61.375 72.90625 
L 61.375 64.59375 
L 35.5 64.59375 
L 35.5 0 
L 25.59375 0 
L 25.59375 64.59375 
L -0.296875 64.59375 
z
" id="DejaVuSans-84"/>
     </defs>
     <g transform="translate(249.698438 125.729687)scale(0.1 -0.1)">
      <use xlink:href="#DejaVuSans-48"/>
      <use x="63.623047" xlink:href="#DejaVuSans-46"/>
      <use x="95.410156" xlink:href="#DejaVuSans-56"/>
      <use x="159.033203" xlink:href="#DejaVuSans-57"/>
      <use x="222.65625" xlink:href="#DejaVuSans-32"/>
      <use x="254.443359" xlink:href="#DejaVuSans-69"/>
      <use x="317.626953" xlink:href="#DejaVuSans-84"/>
     </g>
    </g>
    <g id="line2d_21">
     <path d="M 221.698438 136.907813 
L 241.698438 136.907813 
" style="fill:none;stroke:#ff7f0e;stroke-linecap:square;stroke-width:1.5;"/>
    </g>
    <g id="line2d_22"/>
    <g id="text_18">
     <!-- 0.60 FB -->
     <defs>
      <path d="M 9.8125 72.90625 
L 51.703125 72.90625 
L 51.703125 64.59375 
L 19.671875 64.59375 
L 19.671875 43.109375 
L 48.578125 43.109375 
L 48.578125 34.8125 
L 19.671875 34.8125 
L 19.671875 0 
L 9.8125 0 
z
" id="DejaVuSans-70"/>
      <path d="M 19.671875 34.8125 
L 19.671875 8.109375 
L 35.5 8.109375 
Q 43.453125 8.109375 47.28125 11.40625 
Q 51.125 14.703125 51.125 21.484375 
Q 51.125 28.328125 47.28125 31.5625 
Q 43.453125 34.8125 35.5 34.8125 
z
M 19.671875 64.796875 
L 19.671875 42.828125 
L 34.28125 42.828125 
Q 41.5 42.828125 45.03125 45.53125 
Q 48.578125 48.25 48.578125 53.8125 
Q 48.578125 59.328125 45.03125 62.0625 
Q 41.5 64.796875 34.28125 64.796875 
z
M 9.8125 72.90625 
L 35.015625 72.90625 
Q 46.296875 72.90625 52.390625 68.21875 
Q 58.5 63.53125 58.5 54.890625 
Q 58.5 48.1875 55.375 44.234375 
Q 52.25 40.28125 46.1875 39.3125 
Q 53.46875 37.75 57.5 32.78125 
Q 61.53125 27.828125 61.53125 20.40625 
Q 61.53125 10.640625 54.890625 5.3125 
Q 48.25 0 35.984375 0 
L 9.8125 0 
z
" id="DejaVuSans-66"/>
     </defs>
     <g transform="translate(249.698438 140.407813)scale(0.1 -0.1)">
      <use xlink:href="#DejaVuSans-48"/>
      <use x="63.623047" xlink:href="#DejaVuSans-46"/>
      <use x="95.410156" xlink:href="#DejaVuSans-54"/>
      <use x="159.033203" xlink:href="#DejaVuSans-48"/>
      <use x="222.65625" xlink:href="#DejaVuSans-32"/>
      <use x="254.443359" xlink:href="#DejaVuSans-70"/>
      <use x="311.962891" xlink:href="#DejaVuSans-66"/>
     </g>
    </g>
    <g id="line2d_23">
     <path d="M 221.698438 151.585938 
L 241.698438 151.585938 
" style="fill:none;stroke:#2ca02c;stroke-linecap:square;stroke-width:1.5;"/>
    </g>
    <g id="line2d_24"/>
    <g id="text_19">
     <!-- 0.68 FB Deep -->
     <defs>
      <path d="M 19.671875 64.796875 
L 19.671875 8.109375 
L 31.59375 8.109375 
Q 46.6875 8.109375 53.6875 14.9375 
Q 60.6875 21.78125 60.6875 36.53125 
Q 60.6875 51.171875 53.6875 57.984375 
Q 46.6875 64.796875 31.59375 64.796875 
z
M 9.8125 72.90625 
L 30.078125 72.90625 
Q 51.265625 72.90625 61.171875 64.09375 
Q 71.09375 55.28125 71.09375 36.53125 
Q 71.09375 17.671875 61.125 8.828125 
Q 51.171875 0 30.078125 0 
L 9.8125 0 
z
" id="DejaVuSans-68"/>
     </defs>
     <g transform="translate(249.698438 155.085938)scale(0.1 -0.1)">
      <use xlink:href="#DejaVuSans-48"/>
      <use x="63.623047" xlink:href="#DejaVuSans-46"/>
      <use x="95.410156" xlink:href="#DejaVuSans-54"/>
      <use x="159.033203" xlink:href="#DejaVuSans-56"/>
      <use x="222.65625" xlink:href="#DejaVuSans-32"/>
      <use x="254.443359" xlink:href="#DejaVuSans-70"/>
      <use x="311.962891" xlink:href="#DejaVuSans-66"/>
      <use x="380.566406" xlink:href="#DejaVuSans-32"/>
      <use x="412.353516" xlink:href="#DejaVuSans-68"/>
      <use x="489.355469" xlink:href="#DejaVuSans-101"/>
      <use x="550.878906" xlink:href="#DejaVuSans-101"/>
      <use x="612.402344" xlink:href="#DejaVuSans-112"/>
     </g>
    </g>
    <g id="line2d_25">
     <path d="M 221.698438 166.264062 
L 241.698438 166.264062 
" style="fill:none;stroke:#d62728;stroke-linecap:square;stroke-width:1.5;"/>
    </g>
    <g id="line2d_26"/>
    <g id="text_20">
     <!-- 0.43 FB 1-NN -->
     <defs>
      <path d="M 40.578125 39.3125 
Q 47.65625 37.796875 51.625 33 
Q 55.609375 28.21875 55.609375 21.1875 
Q 55.609375 10.40625 48.1875 4.484375 
Q 40.765625 -1.421875 27.09375 -1.421875 
Q 22.515625 -1.421875 17.65625 -0.515625 
Q 12.796875 0.390625 7.625 2.203125 
L 7.625 11.71875 
Q 11.71875 9.328125 16.59375 8.109375 
Q 21.484375 6.890625 26.8125 6.890625 
Q 36.078125 6.890625 40.9375 10.546875 
Q 45.796875 14.203125 45.796875 21.1875 
Q 45.796875 27.640625 41.28125 31.265625 
Q 36.765625 34.90625 28.71875 34.90625 
L 20.21875 34.90625 
L 20.21875 43.015625 
L 29.109375 43.015625 
Q 36.375 43.015625 40.234375 45.921875 
Q 44.09375 48.828125 44.09375 54.296875 
Q 44.09375 59.90625 40.109375 62.90625 
Q 36.140625 65.921875 28.71875 65.921875 
Q 24.65625 65.921875 20.015625 65.03125 
Q 15.375 64.15625 9.8125 62.3125 
L 9.8125 71.09375 
Q 15.4375 72.65625 20.34375 73.4375 
Q 25.25 74.21875 29.59375 74.21875 
Q 40.828125 74.21875 47.359375 69.109375 
Q 53.90625 64.015625 53.90625 55.328125 
Q 53.90625 49.265625 50.4375 45.09375 
Q 46.96875 40.921875 40.578125 39.3125 
z
" id="DejaVuSans-51"/>
      <path d="M 4.890625 31.390625 
L 31.203125 31.390625 
L 31.203125 23.390625 
L 4.890625 23.390625 
z
" id="DejaVuSans-45"/>
      <path d="M 9.8125 72.90625 
L 23.09375 72.90625 
L 55.421875 11.921875 
L 55.421875 72.90625 
L 64.984375 72.90625 
L 64.984375 0 
L 51.703125 0 
L 19.390625 60.984375 
L 19.390625 0 
L 9.8125 0 
z
" id="DejaVuSans-78"/>
     </defs>
     <g transform="translate(249.698438 169.764062)scale(0.1 -0.1)">
      <use xlink:href="#DejaVuSans-48"/>
      <use x="63.623047" xlink:href="#DejaVuSans-46"/>
      <use x="95.410156" xlink:href="#DejaVuSans-52"/>
      <use x="159.033203" xlink:href="#DejaVuSans-51"/>
      <use x="222.65625" xlink:href="#DejaVuSans-32"/>
      <use x="254.443359" xlink:href="#DejaVuSans-70"/>
      <use x="311.962891" xlink:href="#DejaVuSans-66"/>
      <use x="380.566406" xlink:href="#DejaVuSans-32"/>
      <use x="412.353516" xlink:href="#DejaVuSans-49"/>
      <use x="475.976562" xlink:href="#DejaVuSans-45"/>
      <use x="512.060547" xlink:href="#DejaVuSans-78"/>
      <use x="586.865234" xlink:href="#DejaVuSans-78"/>
     </g>
    </g>
    <g id="line2d_27">
     <path d="M 221.698438 180.942187 
L 241.698438 180.942187 
" style="fill:none;stroke:#9467bd;stroke-linecap:square;stroke-width:1.5;"/>
    </g>
    <g id="line2d_28"/>
    <g id="text_21">
     <!-- 0.99 M-SURF -->
     <defs>
      <path d="M 9.8125 72.90625 
L 24.515625 72.90625 
L 43.109375 23.296875 
L 61.8125 72.90625 
L 76.515625 72.90625 
L 76.515625 0 
L 66.890625 0 
L 66.890625 64.015625 
L 48.09375 14.015625 
L 38.1875 14.015625 
L 19.390625 64.015625 
L 19.390625 0 
L 9.8125 0 
z
" id="DejaVuSans-77"/>
      <path d="M 53.515625 70.515625 
L 53.515625 60.890625 
Q 47.90625 63.578125 42.921875 64.890625 
Q 37.9375 66.21875 33.296875 66.21875 
Q 25.25 66.21875 20.875 63.09375 
Q 16.5 59.96875 16.5 54.203125 
Q 16.5 49.359375 19.40625 46.890625 
Q 22.3125 44.4375 30.421875 42.921875 
L 36.375 41.703125 
Q 47.40625 39.59375 52.65625 34.296875 
Q 57.90625 29 57.90625 20.125 
Q 57.90625 9.515625 50.796875 4.046875 
Q 43.703125 -1.421875 29.984375 -1.421875 
Q 24.8125 -1.421875 18.96875 -0.25 
Q 13.140625 0.921875 6.890625 3.21875 
L 6.890625 13.375 
Q 12.890625 10.015625 18.65625 8.296875 
Q 24.421875 6.59375 29.984375 6.59375 
Q 38.421875 6.59375 43.015625 9.90625 
Q 47.609375 13.234375 47.609375 19.390625 
Q 47.609375 24.75 44.3125 27.78125 
Q 41.015625 30.8125 33.5 32.328125 
L 27.484375 33.5 
Q 16.453125 35.6875 11.515625 40.375 
Q 6.59375 45.0625 6.59375 53.421875 
Q 6.59375 63.09375 13.40625 68.65625 
Q 20.21875 74.21875 32.171875 74.21875 
Q 37.3125 74.21875 42.625 73.28125 
Q 47.953125 72.359375 53.515625 70.515625 
z
" id="DejaVuSans-83"/>
      <path d="M 44.390625 34.1875 
Q 47.5625 33.109375 50.5625 29.59375 
Q 53.5625 26.078125 56.59375 19.921875 
L 66.609375 0 
L 56 0 
L 46.6875 18.703125 
Q 43.0625 26.03125 39.671875 28.421875 
Q 36.28125 30.8125 30.421875 30.8125 
L 19.671875 30.8125 
L 19.671875 0 
L 9.8125 0 
L 9.8125 72.90625 
L 32.078125 72.90625 
Q 44.578125 72.90625 50.734375 67.671875 
Q 56.890625 62.453125 56.890625 51.90625 
Q 56.890625 45.015625 53.6875 40.46875 
Q 50.484375 35.9375 44.390625 34.1875 
z
M 19.671875 64.796875 
L 19.671875 38.921875 
L 32.078125 38.921875 
Q 39.203125 38.921875 42.84375 42.21875 
Q 46.484375 45.515625 46.484375 51.90625 
Q 46.484375 58.296875 42.84375 61.546875 
Q 39.203125 64.796875 32.078125 64.796875 
z
" id="DejaVuSans-82"/>
     </defs>
     <g transform="translate(249.698438 184.442187)scale(0.1 -0.1)">
      <use xlink:href="#DejaVuSans-48"/>
      <use x="63.623047" xlink:href="#DejaVuSans-46"/>
      <use x="95.410156" xlink:href="#DejaVuSans-57"/>
      <use x="159.033203" xlink:href="#DejaVuSans-57"/>
      <use x="222.65625" xlink:href="#DejaVuSans-32"/>
      <use x="254.443359" xlink:href="#DejaVuSans-77"/>
      <use x="340.722656" xlink:href="#DejaVuSans-45"/>
      <use x="376.806641" xlink:href="#DejaVuSans-83"/>
      <use x="440.283203" xlink:href="#DejaVuSans-85"/>
      <use x="513.476562" xlink:href="#DejaVuSans-82"/>
      <use x="582.958984" xlink:href="#DejaVuSans-70"/>
     </g>
    </g>
    <g id="line2d_29">
     <path d="M 221.698438 195.620313 
L 241.698438 195.620313 
" style="fill:none;stroke:#8c564b;stroke-linecap:square;stroke-width:1.5;"/>
    </g>
    <g id="line2d_30"/>
    <g id="text_22">
     <!-- 0.94 RFE -->
     <g transform="translate(249.698438 199.120313)scale(0.1 -0.1)">
      <use xlink:href="#DejaVuSans-48"/>
      <use x="63.623047" xlink:href="#DejaVuSans-46"/>
      <use x="95.410156" xlink:href="#DejaVuSans-57"/>
      <use x="159.033203" xlink:href="#DejaVuSans-52"/>
      <use x="222.65625" xlink:href="#DejaVuSans-32"/>
      <use x="254.443359" xlink:href="#DejaVuSans-82"/>
      <use x="323.925781" xlink:href="#DejaVuSans-70"/>
      <use x="381.445312" xlink:href="#DejaVuSans-69"/>
     </g>
    </g>
   </g>
  </g>
  <g id="axes_2">
   <g id="patch_6">
    <path d="M 340.5875 210.2 
L 619.2 210.2 
L 619.2 55.44 
L 340.5875 55.44 
z
" style="fill:#ffffff;"/>
   </g>
   <g id="matplotlib.axis_3">
    <g id="xtick_7">
     <g id="line2d_31">
      <g>
       <use style="stroke:#000000;stroke-width:0.8;" x="353.251705" xlink:href="#m44c162292c" y="210.2"/>
      </g>
     </g>
     <g id="text_23">
      <!-- 0.0 -->
      <g transform="translate(345.300142 224.798437)scale(0.1 -0.1)">
       <use xlink:href="#DejaVuSans-48"/>
       <use x="63.623047" xlink:href="#DejaVuSans-46"/>
       <use x="95.410156" xlink:href="#DejaVuSans-48"/>
      </g>
     </g>
    </g>
    <g id="xtick_8">
     <g id="line2d_32">
      <g>
       <use style="stroke:#000000;stroke-width:0.8;" x="403.908523" xlink:href="#m44c162292c" y="210.2"/>
      </g>
     </g>
     <g id="text_24">
      <!-- 0.2 -->
      <g transform="translate(395.95696 224.798437)scale(0.1 -0.1)">
       <use xlink:href="#DejaVuSans-48"/>
       <use x="63.623047" xlink:href="#DejaVuSans-46"/>
       <use x="95.410156" xlink:href="#DejaVuSans-50"/>
      </g>
     </g>
    </g>
    <g id="xtick_9">
     <g id="line2d_33">
      <g>
       <use style="stroke:#000000;stroke-width:0.8;" x="454.565341" xlink:href="#m44c162292c" y="210.2"/>
      </g>
     </g>
     <g id="text_25">
      <!-- 0.4 -->
      <g transform="translate(446.613778 224.798437)scale(0.1 -0.1)">
       <use xlink:href="#DejaVuSans-48"/>
       <use x="63.623047" xlink:href="#DejaVuSans-46"/>
       <use x="95.410156" xlink:href="#DejaVuSans-52"/>
      </g>
     </g>
    </g>
    <g id="xtick_10">
     <g id="line2d_34">
      <g>
       <use style="stroke:#000000;stroke-width:0.8;" x="505.222159" xlink:href="#m44c162292c" y="210.2"/>
      </g>
     </g>
     <g id="text_26">
      <!-- 0.6 -->
      <g transform="translate(497.270597 224.798437)scale(0.1 -0.1)">
       <use xlink:href="#DejaVuSans-48"/>
       <use x="63.623047" xlink:href="#DejaVuSans-46"/>
       <use x="95.410156" xlink:href="#DejaVuSans-54"/>
      </g>
     </g>
    </g>
    <g id="xtick_11">
     <g id="line2d_35">
      <g>
       <use style="stroke:#000000;stroke-width:0.8;" x="555.878977" xlink:href="#m44c162292c" y="210.2"/>
      </g>
     </g>
     <g id="text_27">
      <!-- 0.8 -->
      <g transform="translate(547.927415 224.798437)scale(0.1 -0.1)">
       <use xlink:href="#DejaVuSans-48"/>
       <use x="63.623047" xlink:href="#DejaVuSans-46"/>
       <use x="95.410156" xlink:href="#DejaVuSans-56"/>
      </g>
     </g>
    </g>
    <g id="xtick_12">
     <g id="line2d_36">
      <g>
       <use style="stroke:#000000;stroke-width:0.8;" x="606.535795" xlink:href="#m44c162292c" y="210.2"/>
      </g>
     </g>
     <g id="text_28">
      <!-- 1.0 -->
      <g transform="translate(598.584233 224.798437)scale(0.1 -0.1)">
       <use xlink:href="#DejaVuSans-49"/>
       <use x="63.623047" xlink:href="#DejaVuSans-46"/>
       <use x="95.410156" xlink:href="#DejaVuSans-48"/>
      </g>
     </g>
    </g>
    <g id="text_29">
     <!-- fpr -->
     <g transform="translate(472.903906 238.476562)scale(0.1 -0.1)">
      <use xlink:href="#DejaVuSans-102"/>
      <use x="35.205078" xlink:href="#DejaVuSans-112"/>
      <use x="98.681641" xlink:href="#DejaVuSans-114"/>
     </g>
    </g>
   </g>
   <g id="matplotlib.axis_4">
    <g id="ytick_7">
     <g id="line2d_37">
      <g>
       <use style="stroke:#000000;stroke-width:0.8;" x="340.5875" xlink:href="#mcf3d81d4c1" y="203.165455"/>
      </g>
     </g>
    </g>
    <g id="ytick_8">
     <g id="line2d_38">
      <g>
       <use style="stroke:#000000;stroke-width:0.8;" x="340.5875" xlink:href="#mcf3d81d4c1" y="175.027273"/>
      </g>
     </g>
    </g>
    <g id="ytick_9">
     <g id="line2d_39">
      <g>
       <use style="stroke:#000000;stroke-width:0.8;" x="340.5875" xlink:href="#mcf3d81d4c1" y="146.889091"/>
      </g>
     </g>
    </g>
    <g id="ytick_10">
     <g id="line2d_40">
      <g>
       <use style="stroke:#000000;stroke-width:0.8;" x="340.5875" xlink:href="#mcf3d81d4c1" y="118.750909"/>
      </g>
     </g>
    </g>
    <g id="ytick_11">
     <g id="line2d_41">
      <g>
       <use style="stroke:#000000;stroke-width:0.8;" x="340.5875" xlink:href="#mcf3d81d4c1" y="90.612727"/>
      </g>
     </g>
    </g>
    <g id="ytick_12">
     <g id="line2d_42">
      <g>
       <use style="stroke:#000000;stroke-width:0.8;" x="340.5875" xlink:href="#mcf3d81d4c1" y="62.474545"/>
      </g>
     </g>
    </g>
   </g>
   <g id="line2d_43">
    <path clip-path="url(#p8433d34901)" d="M 353.251705 203.165455 
L 355.81013 151.072514 
L 358.368555 147.342073 
L 360.92698 143.611632 
L 363.485405 139.881191 
L 366.04383 136.150751 
L 368.602256 134.28553 
L 371.160681 134.28553 
L 373.719106 134.28553 
L 376.277531 134.28553 
L 378.835956 134.28553 
L 381.394381 134.28553 
L 383.952806 134.28553 
L 386.511232 134.28553 
L 389.069657 134.28553 
L 391.628082 134.28553 
L 394.186507 133.66379 
L 396.744932 132.06503 
L 399.303357 131.35447 
L 401.861783 131.35447 
L 404.420208 131.35447 
L 406.978633 131.35447 
L 409.537058 131.35447 
L 412.095483 129.089559 
L 414.653908 128.423409 
L 417.212334 128.423409 
L 419.770759 128.423409 
L 422.329184 128.423409 
L 424.887609 127.517445 
L 427.446034 125.705517 
L 430.004459 124.071228 
L 432.562885 122.561288 
L 435.12131 122.561288 
L 437.679735 122.561288 
L 440.23816 119.541407 
L 442.796585 116.620216 
L 445.35501 115.278046 
L 447.913435 113.935877 
L 450.471861 113.768106 
L 453.030286 112.79743 
L 455.588711 110.856078 
L 458.147136 109.371515 
L 460.705561 109.371515 
L 463.263986 109.371515 
L 465.822412 109.371515 
L 468.380837 109.371515 
L 470.939262 109.371515 
L 473.497687 109.164268 
L 476.056112 108.660955 
L 478.614537 108.157642 
L 481.172963 107.905985 
L 483.731388 107.905985 
L 486.289813 107.905985 
L 488.848238 107.905985 
L 491.406663 107.905985 
L 493.965088 107.905985 
L 496.523514 107.905985 
L 499.081939 107.905985 
L 501.640364 107.905985 
L 504.198789 107.905985 
L 506.757214 107.905985 
L 509.315639 107.905985 
L 511.874065 107.905985 
L 514.43249 107.905985 
L 516.990915 107.905985 
L 519.54934 107.905985 
L 522.107765 107.905985 
L 524.66619 107.905985 
L 527.224615 107.905985 
L 529.783041 107.905985 
L 532.341466 107.905985 
L 534.899891 107.905985 
L 537.458316 107.905985 
L 540.016741 107.905985 
L 542.575166 107.905985 
L 545.133592 107.905985 
L 547.692017 107.905985 
L 550.250442 107.905985 
L 552.808867 107.905985 
L 555.367292 107.905985 
L 557.925717 107.905985 
L 560.484143 107.905985 
L 563.042568 107.905985 
L 565.600993 107.905985 
L 568.159418 107.905985 
L 570.717843 107.905985 
L 573.276268 107.905985 
L 575.834694 107.905985 
L 578.393119 107.905985 
L 580.951544 107.905985 
L 583.509969 107.905985 
L 586.068394 107.905985 
L 588.626819 107.905985 
L 591.185244 107.905985 
L 593.74367 107.905985 
L 596.302095 107.905985 
L 598.86052 107.905985 
L 601.418945 107.905985 
L 603.97737 107.905985 
L 606.535795 62.474545 
" style="fill:none;stroke:#1f77b4;stroke-linecap:square;stroke-width:1.5;"/>
   </g>
   <g id="line2d_44">
    <path clip-path="url(#p8433d34901)" d="M 353.251705 203.165455 
L 355.81013 179.71697 
L 358.368555 179.71697 
L 360.92698 179.71697 
L 363.485405 179.71697 
L 366.04383 177.466863 
L 368.602256 155.557925 
L 371.160681 154.802955 
L 373.719106 154.802955 
L 376.277531 154.802955 
L 378.835956 153.396638 
L 381.394381 140.147652 
L 383.952806 135.0405 
L 386.511232 134.28553 
L 389.069657 134.28553 
L 391.628082 133.723004 
L 394.186507 130.110989 
L 396.744932 127.668439 
L 399.303357 126.247319 
L 401.861783 125.492348 
L 404.420208 125.492348 
L 406.978633 125.492348 
L 409.537058 125.492348 
L 412.095483 125.492348 
L 414.653908 125.492348 
L 417.212334 125.492348 
L 419.770759 125.492348 
L 422.329184 125.492348 
L 424.887609 125.492348 
L 427.446034 125.492348 
L 430.004459 125.492348 
L 432.562885 125.492348 
L 435.12131 125.492348 
L 437.679735 125.492348 
L 440.23816 125.492348 
L 442.796585 125.492348 
L 445.35501 125.492348 
L 447.913435 125.492348 
L 450.471861 125.492348 
L 453.030286 125.492348 
L 455.588711 125.492348 
L 458.147136 125.492348 
L 460.705561 125.492348 
L 463.263986 125.492348 
L 465.822412 125.492348 
L 468.380837 125.492348 
L 470.939262 125.492348 
L 473.497687 125.492348 
L 476.056112 125.492348 
L 478.614537 125.492348 
L 481.172963 125.492348 
L 483.731388 125.492348 
L 486.289813 125.492348 
L 488.848238 125.492348 
L 491.406663 125.492348 
L 493.965088 125.492348 
L 496.523514 125.492348 
L 499.081939 125.492348 
L 501.640364 125.492348 
L 504.198789 125.492348 
L 506.757214 125.492348 
L 509.315639 125.492348 
L 511.874065 125.492348 
L 514.43249 125.492348 
L 516.990915 125.492348 
L 519.54934 125.492348 
L 522.107765 125.492348 
L 524.66619 125.492348 
L 527.224615 125.492348 
L 529.783041 125.492348 
L 532.341466 125.492348 
L 534.899891 125.492348 
L 537.458316 125.492348 
L 540.016741 125.492348 
L 542.575166 125.492348 
L 545.133592 125.492348 
L 547.692017 125.492348 
L 550.250442 125.492348 
L 552.808867 125.492348 
L 555.367292 125.492348 
L 557.925717 125.492348 
L 560.484143 125.492348 
L 563.042568 125.492348 
L 565.600993 125.492348 
L 568.159418 125.492348 
L 570.717843 125.492348 
L 573.276268 125.492348 
L 575.834694 125.492348 
L 578.393119 125.492348 
L 580.951544 125.492348 
L 583.509969 125.492348 
L 586.068394 125.492348 
L 588.626819 125.492348 
L 591.185244 125.492348 
L 593.74367 125.492348 
L 596.302095 125.492348 
L 598.86052 125.492348 
L 601.418945 125.492348 
L 603.97737 125.492348 
L 606.535795 62.474545 
" style="fill:none;stroke:#ff7f0e;stroke-linecap:square;stroke-width:1.5;"/>
   </g>
   <g id="line2d_45">
    <path clip-path="url(#p8433d34901)" d="M 353.251705 203.165455 
L 355.81013 184.113561 
L 358.368555 184.113561 
L 360.92698 184.113561 
L 363.485405 184.113561 
L 366.04383 181.58219 
L 368.602256 152.626864 
L 371.160681 151.871894 
L 373.719106 151.871894 
L 376.277531 151.871894 
L 378.835956 150.74684 
L 381.394381 140.147652 
L 383.952806 140.147652 
L 386.511232 140.147652 
L 389.069657 140.147652 
L 391.628082 139.585125 
L 394.186507 136.594851 
L 396.744932 134.99609 
L 399.303357 133.57497 
L 401.861783 132.82 
L 404.420208 132.82 
L 406.978633 132.82 
L 409.537058 132.82 
L 412.095483 132.82 
L 414.653908 132.82 
L 417.212334 132.82 
L 419.770759 132.82 
L 422.329184 132.82 
L 424.887609 132.82 
L 427.446034 132.82 
L 430.004459 132.82 
L 432.562885 132.82 
L 435.12131 132.82 
L 437.679735 132.82 
L 440.23816 132.82 
L 442.796585 132.82 
L 445.35501 132.82 
L 447.913435 132.82 
L 450.471861 132.82 
L 453.030286 132.82 
L 455.588711 132.82 
L 458.147136 132.82 
L 460.705561 132.82 
L 463.263986 132.82 
L 465.822412 132.82 
L 468.380837 132.82 
L 470.939262 132.82 
L 473.497687 132.82 
L 476.056112 132.82 
L 478.614537 132.82 
L 481.172963 132.82 
L 483.731388 132.82 
L 486.289813 132.82 
L 488.848238 132.82 
L 491.406663 132.82 
L 493.965088 132.82 
L 496.523514 132.82 
L 499.081939 132.82 
L 501.640364 132.82 
L 504.198789 132.82 
L 506.757214 132.82 
L 509.315639 132.82 
L 511.874065 132.82 
L 514.43249 132.82 
L 516.990915 132.82 
L 519.54934 132.82 
L 522.107765 132.82 
L 524.66619 132.82 
L 527.224615 132.82 
L 529.783041 132.82 
L 532.341466 132.82 
L 534.899891 132.82 
L 537.458316 132.82 
L 540.016741 132.82 
L 542.575166 132.82 
L 545.133592 132.82 
L 547.692017 132.82 
L 550.250442 132.82 
L 552.808867 132.82 
L 555.367292 132.82 
L 557.925717 132.82 
L 560.484143 132.82 
L 563.042568 132.82 
L 565.600993 132.82 
L 568.159418 132.82 
L 570.717843 132.82 
L 573.276268 132.82 
L 575.834694 132.82 
L 578.393119 132.82 
L 580.951544 132.82 
L 583.509969 132.82 
L 586.068394 132.82 
L 588.626819 132.82 
L 591.185244 132.82 
L 593.74367 132.82 
L 596.302095 132.82 
L 598.86052 132.82 
L 601.418945 132.82 
L 603.97737 132.82 
L 606.535795 62.474545 
" style="fill:none;stroke:#2ca02c;stroke-linecap:square;stroke-width:1.5;"/>
   </g>
   <g id="line2d_46">
    <path clip-path="url(#p8433d34901)" d="M 353.251705 203.165455 
L 355.81013 160.665076 
L 358.368555 160.665076 
L 360.92698 160.665076 
L 363.485405 160.665076 
L 366.04383 159.821286 
L 368.602256 153.337424 
L 371.160681 153.337424 
L 373.719106 153.337424 
L 376.277531 153.337424 
L 378.835956 153.056161 
L 381.394381 150.406364 
L 383.952806 148.230273 
L 386.511232 147.475303 
L 389.069657 147.475303 
L 391.628082 147.475303 
L 394.186507 147.475303 
L 396.744932 147.475303 
L 399.303357 147.475303 
L 401.861783 147.475303 
L 404.420208 147.475303 
L 406.978633 147.475303 
L 409.537058 147.475303 
L 412.095483 147.475303 
L 414.653908 147.475303 
L 417.212334 147.475303 
L 419.770759 147.475303 
L 422.329184 147.475303 
L 424.887609 147.475303 
L 427.446034 147.475303 
L 430.004459 147.475303 
L 432.562885 147.475303 
L 435.12131 147.475303 
L 437.679735 147.475303 
L 440.23816 147.475303 
L 442.796585 147.475303 
L 445.35501 147.475303 
L 447.913435 147.475303 
L 450.471861 147.475303 
L 453.030286 147.475303 
L 455.588711 147.475303 
L 458.147136 147.475303 
L 460.705561 147.475303 
L 463.263986 147.475303 
L 465.822412 147.475303 
L 468.380837 147.475303 
L 470.939262 147.475303 
L 473.497687 147.475303 
L 476.056112 147.475303 
L 478.614537 147.475303 
L 481.172963 147.475303 
L 483.731388 147.475303 
L 486.289813 147.475303 
L 488.848238 147.475303 
L 491.406663 147.475303 
L 493.965088 147.475303 
L 496.523514 147.475303 
L 499.081939 147.475303 
L 501.640364 147.475303 
L 504.198789 147.475303 
L 506.757214 147.475303 
L 509.315639 147.475303 
L 511.874065 147.475303 
L 514.43249 147.475303 
L 516.990915 147.475303 
L 519.54934 147.475303 
L 522.107765 147.475303 
L 524.66619 147.475303 
L 527.224615 147.475303 
L 529.783041 147.475303 
L 532.341466 147.475303 
L 534.899891 147.475303 
L 537.458316 147.475303 
L 540.016741 147.475303 
L 542.575166 147.475303 
L 545.133592 147.475303 
L 547.692017 147.475303 
L 550.250442 147.475303 
L 552.808867 147.475303 
L 555.367292 147.475303 
L 557.925717 147.475303 
L 560.484143 147.475303 
L 563.042568 147.475303 
L 565.600993 147.475303 
L 568.159418 147.475303 
L 570.717843 147.475303 
L 573.276268 147.475303 
L 575.834694 147.475303 
L 578.393119 147.475303 
L 580.951544 147.475303 
L 583.509969 147.475303 
L 586.068394 147.475303 
L 588.626819 147.475303 
L 591.185244 147.475303 
L 593.74367 147.475303 
L 596.302095 147.475303 
L 598.86052 147.475303 
L 601.418945 147.475303 
L 603.97737 147.475303 
L 606.535795 62.474545 
" style="fill:none;stroke:#d62728;stroke-linecap:square;stroke-width:1.5;"/>
   </g>
   <g id="line2d_47">
    <path clip-path="url(#p8433d34901)" d="M 353.251705 203.165455 
L 355.81013 85.30129 
L 358.368555 81.748489 
L 360.92698 78.195689 
L 363.485405 74.642888 
L 366.04383 71.090087 
L 368.602256 66.826726 
L 371.160681 65.405606 
L 373.719106 65.405606 
L 376.277531 65.405606 
L 378.835956 65.405606 
L 381.394381 65.405606 
L 383.952806 63.940076 
L 386.511232 63.940076 
L 389.069657 63.940076 
L 391.628082 63.940076 
L 394.186507 63.940076 
L 396.744932 63.940076 
L 399.303357 63.940076 
L 401.861783 63.940076 
L 404.420208 63.940076 
L 406.978633 63.940076 
L 409.537058 63.940076 
L 412.095483 63.940076 
L 414.653908 63.940076 
L 417.212334 63.940076 
L 419.770759 63.940076 
L 422.329184 63.940076 
L 424.887609 63.940076 
L 427.446034 63.940076 
L 430.004459 63.229516 
L 432.562885 62.474545 
L 435.12131 62.474545 
L 437.679735 62.474545 
L 440.23816 62.474545 
L 442.796585 62.474545 
L 445.35501 62.474545 
L 447.913435 62.474545 
L 450.471861 62.474545 
L 453.030286 62.474545 
L 455.588711 62.474545 
L 458.147136 62.474545 
L 460.705561 62.474545 
L 463.263986 62.474545 
L 465.822412 62.474545 
L 468.380837 62.474545 
L 470.939262 62.474545 
L 473.497687 62.474545 
L 476.056112 62.474545 
L 478.614537 62.474545 
L 481.172963 62.474545 
L 483.731388 62.474545 
L 486.289813 62.474545 
L 488.848238 62.474545 
L 491.406663 62.474545 
L 493.965088 62.474545 
L 496.523514 62.474545 
L 499.081939 62.474545 
L 501.640364 62.474545 
L 504.198789 62.474545 
L 506.757214 62.474545 
L 509.315639 62.474545 
L 511.874065 62.474545 
L 514.43249 62.474545 
L 516.990915 62.474545 
L 519.54934 62.474545 
L 522.107765 62.474545 
L 524.66619 62.474545 
L 527.224615 62.474545 
L 529.783041 62.474545 
L 532.341466 62.474545 
L 534.899891 62.474545 
L 537.458316 62.474545 
L 540.016741 62.474545 
L 542.575166 62.474545 
L 545.133592 62.474545 
L 547.692017 62.474545 
L 550.250442 62.474545 
L 552.808867 62.474545 
L 555.367292 62.474545 
L 557.925717 62.474545 
L 560.484143 62.474545 
L 563.042568 62.474545 
L 565.600993 62.474545 
L 568.159418 62.474545 
L 570.717843 62.474545 
L 573.276268 62.474545 
L 575.834694 62.474545 
L 578.393119 62.474545 
L 580.951544 62.474545 
L 583.509969 62.474545 
L 586.068394 62.474545 
L 588.626819 62.474545 
L 591.185244 62.474545 
L 593.74367 62.474545 
L 596.302095 62.474545 
L 598.86052 62.474545 
L 601.418945 62.474545 
L 603.97737 62.474545 
L 606.535795 62.474545 
" style="fill:none;stroke:#9467bd;stroke-linecap:square;stroke-width:1.5;"/>
   </g>
   <g id="line2d_48">
    <path clip-path="url(#p8433d34901)" d="M 353.251705 203.165455 
L 355.81013 135.17373 
L 358.368555 131.66534 
L 360.92698 128.156949 
L 363.485405 124.648558 
L 366.04383 120.858904 
L 368.602256 115.963934 
L 371.160681 113.067744 
L 373.719106 110.171553 
L 376.277531 107.275363 
L 378.835956 104.353603 
L 381.394381 101.201718 
L 383.952806 98.089803 
L 386.511232 96.055241 
L 389.069657 94.667092 
L 391.628082 93.278943 
L 394.186507 91.984997 
L 396.744932 90.852541 
L 399.303357 90.319621 
L 401.861783 90.319621 
L 404.420208 90.319621 
L 406.978633 90.319621 
L 409.537058 90.319621 
L 412.095483 90.319621 
L 414.653908 90.319621 
L 417.212334 90.319621 
L 419.770759 90.319621 
L 422.329184 90.319621 
L 424.887609 90.319621 
L 427.446034 90.319621 
L 430.004459 89.996639 
L 432.562885 89.630593 
L 435.12131 89.264547 
L 437.679735 88.898501 
L 440.23816 88.343712 
L 442.796585 87.788924 
L 445.35501 87.234135 
L 447.913435 86.679346 
L 450.471861 86.444848 
L 453.030286 86.256105 
L 455.588711 86.067363 
L 458.147136 85.804604 
L 460.705561 85.30129 
L 463.263986 84.797977 
L 465.822412 84.294663 
L 468.380837 83.442902 
L 470.939262 82.591141 
L 473.497687 81.683456 
L 476.056112 80.300419 
L 478.614537 78.917383 
L 481.172963 77.786003 
L 483.731388 76.90628 
L 486.289813 76.026557 
L 488.848238 75.391026 
L 491.406663 74.926429 
L 493.965088 74.461832 
L 496.523514 73.673676 
L 499.081939 72.88552 
L 501.640364 72.097365 
L 504.198789 71.309209 
L 506.757214 70.521053 
L 509.315639 69.732898 
L 511.874065 69.002817 
L 514.43249 68.679258 
L 516.990915 68.3557 
L 519.54934 68.065977 
L 522.107765 67.778369 
L 524.66619 67.490762 
L 527.224615 67.203154 
L 529.783041 66.915546 
L 532.341466 66.627939 
L 534.899891 66.340331 
L 537.458316 66.052723 
L 540.016741 65.765116 
L 542.575166 65.477508 
L 545.133592 65.405606 
L 547.692017 65.36613 
L 550.250442 65.231914 
L 552.808867 65.097697 
L 555.367292 64.96348 
L 557.925717 64.829263 
L 560.484143 64.695046 
L 563.042568 64.560829 
L 565.600993 64.426612 
L 568.159418 64.292395 
L 570.717843 64.158178 
L 573.276268 64.023961 
L 575.834694 63.940076 
L 578.393119 63.858657 
L 580.951544 63.732829 
L 583.509969 63.607001 
L 586.068394 63.481172 
L 588.626819 63.355344 
L 591.185244 63.229516 
L 593.74367 63.103687 
L 596.302095 62.977859 
L 598.86052 62.852031 
L 601.418945 62.726202 
L 603.97737 62.600374 
L 606.535795 62.474545 
" style="fill:none;stroke:#8c564b;stroke-linecap:square;stroke-width:1.5;"/>
   </g>
   <g id="patch_7">
    <path d="M 340.5875 210.2 
L 340.5875 55.44 
" style="fill:none;stroke:#000000;stroke-linecap:square;stroke-linejoin:miter;stroke-width:0.8;"/>
   </g>
   <g id="patch_8">
    <path d="M 340.5875 210.2 
L 619.2 210.2 
" style="fill:none;stroke:#000000;stroke-linecap:square;stroke-linejoin:miter;stroke-width:0.8;"/>
   </g>
   <g id="text_30">
    <!-- p_alternate = 75 -->
    <defs>
     <path d="M 8.203125 72.90625 
L 55.078125 72.90625 
L 55.078125 68.703125 
L 28.609375 0 
L 18.3125 0 
L 43.21875 64.59375 
L 8.203125 64.59375 
z
" id="DejaVuSans-55"/>
    </defs>
    <g transform="translate(437.761719 49.44)scale(0.1 -0.1)">
     <use xlink:href="#DejaVuSans-112"/>
     <use x="63.476562" xlink:href="#DejaVuSans-95"/>
     <use x="113.476562" xlink:href="#DejaVuSans-97"/>
     <use x="174.755859" xlink:href="#DejaVuSans-108"/>
     <use x="202.539062" xlink:href="#DejaVuSans-116"/>
     <use x="241.748047" xlink:href="#DejaVuSans-101"/>
     <use x="303.271484" xlink:href="#DejaVuSans-114"/>
     <use x="342.634766" xlink:href="#DejaVuSans-110"/>
     <use x="406.013672" xlink:href="#DejaVuSans-97"/>
     <use x="467.292969" xlink:href="#DejaVuSans-116"/>
     <use x="506.501953" xlink:href="#DejaVuSans-101"/>
     <use x="568.025391" xlink:href="#DejaVuSans-32"/>
     <use x="599.8125" xlink:href="#DejaVuSans-61"/>
     <use x="683.601562" xlink:href="#DejaVuSans-32"/>
     <use x="715.388672" xlink:href="#DejaVuSans-55"/>
     <use x="779.011719" xlink:href="#DejaVuSans-53"/>
    </g>
   </g>
   <g id="legend_2">
    <g id="patch_9">
     <path d="M 512.610938 205.2 
L 612.2 205.2 
Q 614.2 205.2 614.2 203.2 
L 614.2 101.453125 
Q 614.2 99.453125 612.2 99.453125 
L 512.610938 99.453125 
Q 510.610938 99.453125 510.610938 101.453125 
L 510.610938 203.2 
Q 510.610938 205.2 512.610938 205.2 
z
" style="fill:#ffffff;opacity:0.8;stroke:#cccccc;stroke-linejoin:miter;"/>
    </g>
    <g id="text_31">
     <!-- AUC, method -->
     <g transform="translate(544.082813 111.051562)scale(0.1 -0.1)">
      <use xlink:href="#DejaVuSans-65"/>
      <use x="68.408203" xlink:href="#DejaVuSans-85"/>
      <use x="141.601562" xlink:href="#DejaVuSans-67"/>
      <use x="211.425781" xlink:href="#DejaVuSans-44"/>
      <use x="243.212891" xlink:href="#DejaVuSans-32"/>
      <use x="275" xlink:href="#DejaVuSans-109"/>
      <use x="372.412109" xlink:href="#DejaVuSans-101"/>
      <use x="433.935547" xlink:href="#DejaVuSans-116"/>
      <use x="473.144531" xlink:href="#DejaVuSans-104"/>
      <use x="536.523438" xlink:href="#DejaVuSans-111"/>
      <use x="597.705078" xlink:href="#DejaVuSans-100"/>
     </g>
    </g>
    <g id="line2d_49">
     <path d="M 514.610938 122.229687 
L 534.610938 122.229687 
" style="fill:none;stroke:#1f77b4;stroke-linecap:square;stroke-width:1.5;"/>
    </g>
    <g id="line2d_50"/>
    <g id="text_32">
     <!-- 0.61 ET -->
     <g transform="translate(542.610938 125.729687)scale(0.1 -0.1)">
      <use xlink:href="#DejaVuSans-48"/>
      <use x="63.623047" xlink:href="#DejaVuSans-46"/>
      <use x="95.410156" xlink:href="#DejaVuSans-54"/>
      <use x="159.033203" xlink:href="#DejaVuSans-49"/>
      <use x="222.65625" xlink:href="#DejaVuSans-32"/>
      <use x="254.443359" xlink:href="#DejaVuSans-69"/>
      <use x="317.626953" xlink:href="#DejaVuSans-84"/>
     </g>
    </g>
    <g id="line2d_51">
     <path d="M 514.610938 136.907813 
L 534.610938 136.907813 
" style="fill:none;stroke:#ff7f0e;stroke-linecap:square;stroke-width:1.5;"/>
    </g>
    <g id="line2d_52"/>
    <g id="text_33">
     <!-- 0.52 FB -->
     <g transform="translate(542.610938 140.407813)scale(0.1 -0.1)">
      <use xlink:href="#DejaVuSans-48"/>
      <use x="63.623047" xlink:href="#DejaVuSans-46"/>
      <use x="95.410156" xlink:href="#DejaVuSans-53"/>
      <use x="159.033203" xlink:href="#DejaVuSans-50"/>
      <use x="222.65625" xlink:href="#DejaVuSans-32"/>
      <use x="254.443359" xlink:href="#DejaVuSans-70"/>
      <use x="311.962891" xlink:href="#DejaVuSans-66"/>
     </g>
    </g>
    <g id="line2d_53">
     <path d="M 514.610938 151.585938 
L 534.610938 151.585938 
" style="fill:none;stroke:#2ca02c;stroke-linecap:square;stroke-width:1.5;"/>
    </g>
    <g id="line2d_54"/>
    <g id="text_34">
     <!-- 0.47 FB Deep -->
     <g transform="translate(542.610938 155.085938)scale(0.1 -0.1)">
      <use xlink:href="#DejaVuSans-48"/>
      <use x="63.623047" xlink:href="#DejaVuSans-46"/>
      <use x="95.410156" xlink:href="#DejaVuSans-52"/>
      <use x="159.033203" xlink:href="#DejaVuSans-55"/>
      <use x="222.65625" xlink:href="#DejaVuSans-32"/>
      <use x="254.443359" xlink:href="#DejaVuSans-70"/>
      <use x="311.962891" xlink:href="#DejaVuSans-66"/>
      <use x="380.566406" xlink:href="#DejaVuSans-32"/>
      <use x="412.353516" xlink:href="#DejaVuSans-68"/>
      <use x="489.355469" xlink:href="#DejaVuSans-101"/>
      <use x="550.878906" xlink:href="#DejaVuSans-101"/>
      <use x="612.402344" xlink:href="#DejaVuSans-112"/>
     </g>
    </g>
    <g id="line2d_55">
     <path d="M 514.610938 166.264062 
L 534.610938 166.264062 
" style="fill:none;stroke:#d62728;stroke-linecap:square;stroke-width:1.5;"/>
    </g>
    <g id="line2d_56"/>
    <g id="text_35">
     <!-- 0.39 FB 1-NN -->
     <g transform="translate(542.610938 169.764062)scale(0.1 -0.1)">
      <use xlink:href="#DejaVuSans-48"/>
      <use x="63.623047" xlink:href="#DejaVuSans-46"/>
      <use x="95.410156" xlink:href="#DejaVuSans-51"/>
      <use x="159.033203" xlink:href="#DejaVuSans-57"/>
      <use x="222.65625" xlink:href="#DejaVuSans-32"/>
      <use x="254.443359" xlink:href="#DejaVuSans-70"/>
      <use x="311.962891" xlink:href="#DejaVuSans-66"/>
      <use x="380.566406" xlink:href="#DejaVuSans-32"/>
      <use x="412.353516" xlink:href="#DejaVuSans-49"/>
      <use x="475.976562" xlink:href="#DejaVuSans-45"/>
      <use x="512.060547" xlink:href="#DejaVuSans-78"/>
      <use x="586.865234" xlink:href="#DejaVuSans-78"/>
     </g>
    </g>
    <g id="line2d_57">
     <path d="M 514.610938 180.942187 
L 534.610938 180.942187 
" style="fill:none;stroke:#9467bd;stroke-linecap:square;stroke-width:1.5;"/>
    </g>
    <g id="line2d_58"/>
    <g id="text_36">
     <!-- 0.99 M-SURF -->
     <g transform="translate(542.610938 184.442187)scale(0.1 -0.1)">
      <use xlink:href="#DejaVuSans-48"/>
      <use x="63.623047" xlink:href="#DejaVuSans-46"/>
      <use x="95.410156" xlink:href="#DejaVuSans-57"/>
      <use x="159.033203" xlink:href="#DejaVuSans-57"/>
      <use x="222.65625" xlink:href="#DejaVuSans-32"/>
      <use x="254.443359" xlink:href="#DejaVuSans-77"/>
      <use x="340.722656" xlink:href="#DejaVuSans-45"/>
      <use x="376.806641" xlink:href="#DejaVuSans-83"/>
      <use x="440.283203" xlink:href="#DejaVuSans-85"/>
      <use x="513.476562" xlink:href="#DejaVuSans-82"/>
      <use x="582.958984" xlink:href="#DejaVuSans-70"/>
     </g>
    </g>
    <g id="line2d_59">
     <path d="M 514.610938 195.620313 
L 534.610938 195.620313 
" style="fill:none;stroke:#8c564b;stroke-linecap:square;stroke-width:1.5;"/>
    </g>
    <g id="line2d_60"/>
    <g id="text_37">
     <!-- 0.86 RFE -->
     <g transform="translate(542.610938 199.120313)scale(0.1 -0.1)">
      <use xlink:href="#DejaVuSans-48"/>
      <use x="63.623047" xlink:href="#DejaVuSans-46"/>
      <use x="95.410156" xlink:href="#DejaVuSans-56"/>
      <use x="159.033203" xlink:href="#DejaVuSans-54"/>
      <use x="222.65625" xlink:href="#DejaVuSans-32"/>
      <use x="254.443359" xlink:href="#DejaVuSans-82"/>
      <use x="323.925781" xlink:href="#DejaVuSans-70"/>
      <use x="381.445312" xlink:href="#DejaVuSans-69"/>
     </g>
    </g>
   </g>
  </g>
  <g id="text_38">
   <!-- 4 informative features [p=20, n=1600] -->
   <defs>
    <path d="M 9.421875 54.6875 
L 18.40625 54.6875 
L 18.40625 0 
L 9.421875 0 
z
M 9.421875 75.984375 
L 18.40625 75.984375 
L 18.40625 64.59375 
L 9.421875 64.59375 
z
" id="DejaVuSans-105"/>
    <path d="M 2.984375 54.6875 
L 12.5 54.6875 
L 29.59375 8.796875 
L 46.6875 54.6875 
L 56.203125 54.6875 
L 35.6875 0 
L 23.484375 0 
z
" id="DejaVuSans-118"/>
    <path d="M 8.5 21.578125 
L 8.5 54.6875 
L 17.484375 54.6875 
L 17.484375 21.921875 
Q 17.484375 14.15625 20.5 10.265625 
Q 23.53125 6.390625 29.59375 6.390625 
Q 36.859375 6.390625 41.078125 11.03125 
Q 45.3125 15.671875 45.3125 23.6875 
L 45.3125 54.6875 
L 54.296875 54.6875 
L 54.296875 0 
L 45.3125 0 
L 45.3125 8.40625 
Q 42.046875 3.421875 37.71875 1 
Q 33.40625 -1.421875 27.6875 -1.421875 
Q 18.265625 -1.421875 13.375 4.4375 
Q 8.5 10.296875 8.5 21.578125 
z
M 31.109375 56 
z
" id="DejaVuSans-117"/>
    <path d="M 44.28125 53.078125 
L 44.28125 44.578125 
Q 40.484375 46.53125 36.375 47.5 
Q 32.28125 48.484375 27.875 48.484375 
Q 21.1875 48.484375 17.84375 46.4375 
Q 14.5 44.390625 14.5 40.28125 
Q 14.5 37.15625 16.890625 35.375 
Q 19.28125 33.59375 26.515625 31.984375 
L 29.59375 31.296875 
Q 39.15625 29.25 43.1875 25.515625 
Q 47.21875 21.78125 47.21875 15.09375 
Q 47.21875 7.46875 41.1875 3.015625 
Q 35.15625 -1.421875 24.609375 -1.421875 
Q 20.21875 -1.421875 15.453125 -0.5625 
Q 10.6875 0.296875 5.421875 2 
L 5.421875 11.28125 
Q 10.40625 8.6875 15.234375 7.390625 
Q 20.0625 6.109375 24.8125 6.109375 
Q 31.15625 6.109375 34.5625 8.28125 
Q 37.984375 10.453125 37.984375 14.40625 
Q 37.984375 18.0625 35.515625 20.015625 
Q 33.0625 21.96875 24.703125 23.78125 
L 21.578125 24.515625 
Q 13.234375 26.265625 9.515625 29.90625 
Q 5.8125 33.546875 5.8125 39.890625 
Q 5.8125 47.609375 11.28125 51.796875 
Q 16.75 56 26.8125 56 
Q 31.78125 56 36.171875 55.265625 
Q 40.578125 54.546875 44.28125 53.078125 
z
" id="DejaVuSans-115"/>
    <path d="M 8.59375 75.984375 
L 29.296875 75.984375 
L 29.296875 69 
L 17.578125 69 
L 17.578125 -6.203125 
L 29.296875 -6.203125 
L 29.296875 -13.1875 
L 8.59375 -13.1875 
z
" id="DejaVuSans-91"/>
    <path d="M 30.421875 75.984375 
L 30.421875 -13.1875 
L 9.71875 -13.1875 
L 9.71875 -6.203125 
L 21.390625 -6.203125 
L 21.390625 69 
L 9.71875 69 
L 9.71875 75.984375 
z
" id="DejaVuSans-93"/>
   </defs>
   <g transform="translate(216.842969 30.24)scale(0.1 -0.1)">
    <use xlink:href="#DejaVuSans-52"/>
    <use x="63.623047" xlink:href="#DejaVuSans-32"/>
    <use x="95.410156" xlink:href="#DejaVuSans-105"/>
    <use x="123.193359" xlink:href="#DejaVuSans-110"/>
    <use x="186.572266" xlink:href="#DejaVuSans-102"/>
    <use x="221.777344" xlink:href="#DejaVuSans-111"/>
    <use x="282.958984" xlink:href="#DejaVuSans-114"/>
    <use x="322.322266" xlink:href="#DejaVuSans-109"/>
    <use x="419.734375" xlink:href="#DejaVuSans-97"/>
    <use x="481.013672" xlink:href="#DejaVuSans-116"/>
    <use x="520.222656" xlink:href="#DejaVuSans-105"/>
    <use x="548.005859" xlink:href="#DejaVuSans-118"/>
    <use x="607.185547" xlink:href="#DejaVuSans-101"/>
    <use x="668.708984" xlink:href="#DejaVuSans-32"/>
    <use x="700.496094" xlink:href="#DejaVuSans-102"/>
    <use x="735.701172" xlink:href="#DejaVuSans-101"/>
    <use x="797.224609" xlink:href="#DejaVuSans-97"/>
    <use x="858.503906" xlink:href="#DejaVuSans-116"/>
    <use x="897.712891" xlink:href="#DejaVuSans-117"/>
    <use x="961.091797" xlink:href="#DejaVuSans-114"/>
    <use x="999.955078" xlink:href="#DejaVuSans-101"/>
    <use x="1061.478516" xlink:href="#DejaVuSans-115"/>
    <use x="1113.578125" xlink:href="#DejaVuSans-32"/>
    <use x="1145.365234" xlink:href="#DejaVuSans-91"/>
    <use x="1184.378906" xlink:href="#DejaVuSans-112"/>
    <use x="1247.855469" xlink:href="#DejaVuSans-61"/>
    <use x="1331.644531" xlink:href="#DejaVuSans-50"/>
    <use x="1395.267578" xlink:href="#DejaVuSans-48"/>
    <use x="1458.890625" xlink:href="#DejaVuSans-44"/>
    <use x="1490.677734" xlink:href="#DejaVuSans-32"/>
    <use x="1522.464844" xlink:href="#DejaVuSans-110"/>
    <use x="1585.84375" xlink:href="#DejaVuSans-61"/>
    <use x="1669.632812" xlink:href="#DejaVuSans-49"/>
    <use x="1733.255859" xlink:href="#DejaVuSans-54"/>
    <use x="1796.878906" xlink:href="#DejaVuSans-48"/>
    <use x="1860.501953" xlink:href="#DejaVuSans-48"/>
    <use x="1924.125" xlink:href="#DejaVuSans-93"/>
   </g>
  </g>
  <g id="text_39">
   <!-- Heterogeneity -->
   <defs>
    <path d="M 9.8125 72.90625 
L 19.671875 72.90625 
L 19.671875 43.015625 
L 55.515625 43.015625 
L 55.515625 72.90625 
L 65.375 72.90625 
L 65.375 0 
L 55.515625 0 
L 55.515625 34.71875 
L 19.671875 34.71875 
L 19.671875 0 
L 9.8125 0 
z
" id="DejaVuSans-72"/>
    <path d="M 45.40625 27.984375 
Q 45.40625 37.75 41.375 43.109375 
Q 37.359375 48.484375 30.078125 48.484375 
Q 22.859375 48.484375 18.828125 43.109375 
Q 14.796875 37.75 14.796875 27.984375 
Q 14.796875 18.265625 18.828125 12.890625 
Q 22.859375 7.515625 30.078125 7.515625 
Q 37.359375 7.515625 41.375 12.890625 
Q 45.40625 18.265625 45.40625 27.984375 
z
M 54.390625 6.78125 
Q 54.390625 -7.171875 48.1875 -13.984375 
Q 42 -20.796875 29.203125 -20.796875 
Q 24.46875 -20.796875 20.265625 -20.09375 
Q 16.0625 -19.390625 12.109375 -17.921875 
L 12.109375 -9.1875 
Q 16.0625 -11.328125 19.921875 -12.34375 
Q 23.78125 -13.375 27.78125 -13.375 
Q 36.625 -13.375 41.015625 -8.765625 
Q 45.40625 -4.15625 45.40625 5.171875 
L 45.40625 9.625 
Q 42.625 4.78125 38.28125 2.390625 
Q 33.9375 0 27.875 0 
Q 17.828125 0 11.671875 7.65625 
Q 5.515625 15.328125 5.515625 27.984375 
Q 5.515625 40.671875 11.671875 48.328125 
Q 17.828125 56 27.875 56 
Q 33.9375 56 38.28125 53.609375 
Q 42.625 51.21875 45.40625 46.390625 
L 45.40625 54.6875 
L 54.390625 54.6875 
z
" id="DejaVuSans-103"/>
    <path d="M 32.171875 -5.078125 
Q 28.375 -14.84375 24.75 -17.8125 
Q 21.140625 -20.796875 15.09375 -20.796875 
L 7.90625 -20.796875 
L 7.90625 -13.28125 
L 13.1875 -13.28125 
Q 16.890625 -13.28125 18.9375 -11.515625 
Q 21 -9.765625 23.484375 -3.21875 
L 25.09375 0.875 
L 2.984375 54.6875 
L 12.5 54.6875 
L 29.59375 11.921875 
L 46.6875 54.6875 
L 56.203125 54.6875 
z
" id="DejaVuSans-121"/>
   </defs>
   <g transform="translate(257.91125 17.1975)scale(0.16 -0.16)">
    <use xlink:href="#DejaVuSans-72"/>
    <use x="75.195312" xlink:href="#DejaVuSans-101"/>
    <use x="136.71875" xlink:href="#DejaVuSans-116"/>
    <use x="175.927734" xlink:href="#DejaVuSans-101"/>
    <use x="237.451172" xlink:href="#DejaVuSans-114"/>
    <use x="276.314453" xlink:href="#DejaVuSans-111"/>
    <use x="337.496094" xlink:href="#DejaVuSans-103"/>
    <use x="400.972656" xlink:href="#DejaVuSans-101"/>
    <use x="462.496094" xlink:href="#DejaVuSans-110"/>
    <use x="525.875" xlink:href="#DejaVuSans-101"/>
    <use x="587.398438" xlink:href="#DejaVuSans-105"/>
    <use x="615.181641" xlink:href="#DejaVuSans-116"/>
    <use x="654.390625" xlink:href="#DejaVuSans-121"/>
   </g>
  </g>
 </g>
 <defs>
  <clipPath id="pf20dd1eaf3">
   <rect height="154.76" width="278.6125" x="47.675" y="55.44"/>
  </clipPath>
  <clipPath id="p8433d34901">
   <rect height="154.76" width="278.6125" x="340.5875" y="55.44"/>
  </clipPath>
 </defs>
</svg>
